<svg xmlns="http://www.w3.org/2000/svg" viewBox="0 0 457.7518 571.8022"><g id="katman_2" data-name="katman 2"><g id="katman_1-2" data-name="katman 1"><path class="cls-1" d="M33.8124,519.4516a40.4465,40.4465,0,0,1-9.8692,11.9073q-5.5818,4.4-11.1567,4.3984a9.8356,9.8356,0,0,1-8.4751-4.3984A24.2214,24.2214,0,0,1,.3422,520.31a48.4531,48.4531,0,0,1,.4292-14.2685,52.8109,52.8109,0,0,1,4.5058-14.2676,33.503,33.503,0,0,1,8.3672-11.0488A17.9344,17.9344,0,0,1,25.66,476.3266a15.8477,15.8477,0,0,1,6.544,1.3946,11.5329,11.5329,0,0,1,5.042,4.3984c.2847.2881.4995.2139.6435-.2148l.6436-2.5743a3.4274,3.4274,0,0,1,3.2183-3.0039q9.8664-.8554,15.0185-6.0078,1.7154-1.7139,3.1113-1.3945,1.393.3222.5362,3.3252-2.1468,7.9614-4.1836,18.3115a100.5627,100.5627,0,0,0-2.0381,19.41,17.1417,17.1417,0,0,0,.751,5.7158,2.5994,2.5994,0,0,0,2.4673,2.0478,6.4952,6.4952,0,0,0,4.5053-2.0381,20.4438,20.4438,0,0,0,3.7549-4.9345,53.66,53.66,0,0,0,2.7891-5.793q1.1769-2.8961,1.8237-4.6133a1.752,1.752,0,0,1,1.8237-1.0722q1.393,0,1.18,1.9306a49.6826,49.6826,0,0,1-2.79,14.5625,40.8537,40.8537,0,0,1-5.793,10.8653,25.191,25.191,0,0,1-7.6162,6.7851,17.6041,17.6041,0,0,1-8.69,2.33,11.1522,11.1522,0,0,1-9.5478-4.9346,24.5676,24.5676,0,0,1-4.398-11.1562c0-.2852-.0742-.4629-.2148-.5371C34.0975,519.059,33.9535,519.1665,33.8124,519.4516Zm-9.0113-1.7168A5.8961,5.8961,0,0,0,29.2,515.4653a19.0185,19.0185,0,0,0,3.4331-5.8359,41.1018,41.1018,0,0,0,2.1455-7.8916,49.3558,49.3558,0,0,0,.751-8.4317,3.7544,3.7544,0,0,0-1.0728-2.92,3.7168,3.7168,0,0,0-2.5747-.9717,7.1278,7.1278,0,0,0-4.935,1.9473A16.9147,16.9147,0,0,0,23.3,496.226a25.7378,25.7378,0,0,0-2.2529,6.376,31.4354,31.4354,0,0,0-.751,6.7022,14.745,14.745,0,0,0,1.0727,6.0537A3.5716,3.5716,0,0,0,24.8011,517.7348Z" fill="#ffffff"/><path class="cls-1" d="M99.892,522.8842a34.9569,34.9569,0,0,1-8.0459,9.2256,16.64,16.64,0,0,1-10.62,3.6475,9.8354,9.8354,0,0,1-8.4751-4.3984A24.1837,24.1837,0,0,1,68.7816,520.31a50.8925,50.8925,0,0,1,.3218-14.2685,50.2883,50.2883,0,0,1,4.3984-14.2676A33.4975,33.4975,0,0,1,81.87,480.7251a17.9332,17.9332,0,0,1,12.0147-4.3985q8.5788,0,12.6586,8.1524.4278.86.6436,0l1.9312-6.2217q1.0707-2.7861,3.2182-3.0039a31.72,31.72,0,0,0,8.5825-1.8233,18.2117,18.2117,0,0,0,6.4366-4.1836q1.7137-1.7153,3.2177-1.3945,1.4986.3209.43,3.3252-3.6517,11.5854-6.1152,20.0606-2.4682,8.4785-3.9688,16.1992a2.3985,2.3985,0,0,0,.2139,1.7158,4.6727,4.6727,0,0,0,1.2881,1.8242,3.1242,3.1242,0,0,0,2.1455.751q2.3585,0,5.1484-3.541a20.57,20.57,0,0,0,3.8623-8.0449c.1407-.2852.4629-.43.9659-.43a3.6368,3.6368,0,0,1,1.6084.43,4.8449,4.8449,0,0,1,1.5019,1.18,1.732,1.732,0,0,1,.43,1.6094q-.6445,3.2182-1.7168,6.7578a24.1707,24.1707,0,0,1-3.0039,6.4366,16.4778,16.4778,0,0,1-4.72,4.7207,12.2821,12.2821,0,0,1-6.8662,1.8232h-1.9307a.76.76,0,0,0-.8584.8584q-.4321,6.6533-.3218,14.16.1062,7.513.7515,17.8085a3.0416,3.0416,0,0,1-1.9312,3.004,19.3244,19.3244,0,0,0-6.1147,4.1835,25.3836,25.3836,0,0,0-3.2183,4.2911q-1.1822,2.0361-2.0386,3.4326a2.6534,2.6534,0,0,1-2.36,1.3945q-1.2876,0-2.1455-1.9307a21.9084,21.9084,0,0,1-1.3946-5.3642,73.5469,73.5469,0,0,1-.7509-7.7236q-.2161-4.2891-.2149-9.2256,0-6.2212.2149-12.3369.2109-6.1143.8579-12.337C100.3207,522.3139,100.1766,522.3139,99.892,522.8842Zm-6.8658-3.8623a5.7563,5.7563,0,0,0,4.3985-2.4668,21.19,21.19,0,0,0,3.4326-6.3291,48,48,0,0,0,2.1455-8.3681,52.3764,52.3764,0,0,0,.751-8.5821,3.512,3.512,0,0,0-3.6475-3.8613,7.1553,7.1553,0,0,0-4.9345,1.9307,16.7638,16.7638,0,0,0-3.6475,4.8271,25.4741,25.4741,0,0,0-2.2529,6.3291,30.9582,30.9582,0,0,0-.751,6.6514,20.536,20.536,0,0,0,1.0727,6.7588Q90.6647,519.0244,93.0262,519.0219Z" fill="#ffffff"/><path class="cls-1" d="M161.682,516.4477a40.2969,40.2969,0,0,1-9.0117,14.16q-5.3643,5.15-9.44,5.1494a7.0446,7.0446,0,0,1-5.042-1.9307,14.3737,14.3737,0,0,1-3.3261-5.042,28.4375,28.4375,0,0,1-1.8233-7.08,61.9931,61.9931,0,0,1-.5371-8.2608,92.9469,92.9469,0,0,1,.5371-9.7617q.5376-5.0391,1.18-9.7627.6446-4.7167,1.3945-8.582.75-3.8613,1.1807-6.4366a2.5685,2.5685,0,0,1,2.7891-2.36l14.8037-.2139q2.3584,0,1.9307,2.3594-.4322,1.9322-1.0723,5.1494-.6445,3.2183-1.18,7.08-.5391,3.8628-.9658,7.832a66.9474,66.9474,0,0,0-.43,7.1875,29.1415,29.1415,0,0,0,.6445,6.3291q.6431,2.896,1.9307,2.8965,2.7861,0,4.72-4.7207a62.8188,62.8188,0,0,0,3.2188-10.835q1.2876-6.1141,2.038-12.0146a69.3,69.3,0,0,1,1.3946-8.26,3.4271,3.4271,0,0,1,3.2187-3.0039q9.8658-.8554,15.0186-6.0078,1.7139-1.7139,3.11-1.3945,1.393.3222.5371,3.3252-2.1474,7.9409-4.1845,18.2373a99.6167,99.6167,0,0,0-2.0381,19.31q0,7.9408,3.8623,7.9384a5.5205,5.5205,0,0,0,4.0762-2.1455,27.2369,27.2369,0,0,0,3.54-5.042,48.9416,48.9416,0,0,0,2.7891-5.9q1.1776-3.0014,1.8242-4.5048a1.7515,1.7515,0,0,1,1.8232-1.0733q1.393,0,1.1807,1.9307a49.9793,49.9793,0,0,1-2.7891,14.59,41.6859,41.6859,0,0,1-5.7929,10.9424,24.8068,24.8068,0,0,1-7.7246,6.8652,18.02,18.02,0,0,1-8.7959,2.36,11.2289,11.2289,0,0,1-10.1915-5.9,28.4692,28.4692,0,0,1-3.97-13.1943C162.1107,515.6635,161.9672,515.5893,161.682,516.4477Z" fill="#ffffff"/><path class="cls-1" d="M229.9061,519.4516a40.4452,40.4452,0,0,1-9.8686,11.9073q-5.5825,4.4-11.1572,4.3984a9.8366,9.8366,0,0,1-8.4747-4.3984,24.228,24.228,0,0,1-3.9687-11.0489,48.4216,48.4216,0,0,1,.4287-14.2685,52.811,52.811,0,0,1,4.5059-14.2676,33.5027,33.5027,0,0,1,8.3671-11.0488,17.9334,17.9334,0,0,1,12.0147-4.3985,15.844,15.844,0,0,1,6.5435,1.3946,11.5278,11.5278,0,0,1,5.0419,4.3984c.2852.2881.5.2139.6436-.2148l.6445-2.5743a3.427,3.427,0,0,1,3.2178-3.0039q9.8658-.8554,15.0186-6.0078,1.7152-1.7139,3.1113-1.3945,1.3931.3222.5361,3.3252-2.1474,7.9614-4.1836,18.3115a100.5706,100.5706,0,0,0-2.0381,19.41,17.1443,17.1443,0,0,0,.751,5.7158,2.5984,2.5984,0,0,0,2.4668,2.0478,6.4974,6.4974,0,0,0,4.5059-2.0381,20.4718,20.4718,0,0,0,3.7549-4.9345,53.8661,53.8661,0,0,0,2.789-5.793q1.1763-2.8961,1.8233-4.6133a1.7534,1.7534,0,0,1,1.8242-1.0722q1.393,0,1.18,1.9306a49.6633,49.6633,0,0,1-2.7891,14.5625,40.8509,40.8509,0,0,1-5.793,10.8653,25.1828,25.1828,0,0,1-7.6162,6.7851,17.6007,17.6007,0,0,1-8.6894,2.33,11.153,11.153,0,0,1-9.5479-4.9346,24.5693,24.5693,0,0,1-4.3984-11.1562c0-.2852-.0733-.4629-.2139-.5371C230.1913,519.059,230.0468,519.1665,229.9061,519.4516Zm-9.01-1.7168a5.8958,5.8958,0,0,0,4.3979-2.2695,19.0377,19.0377,0,0,0,3.4326-5.8359,41.0583,41.0583,0,0,0,2.1455-7.8916,49.3963,49.3963,0,0,0,.751-8.4317,3.7546,3.7546,0,0,0-1.0732-2.92,3.7138,3.7138,0,0,0-2.5742-.9717,7.1246,7.1246,0,0,0-4.9341,1.9473,16.907,16.907,0,0,0-3.6475,4.8642,25.7015,25.7015,0,0,0-2.2529,6.376,31.4418,31.4418,0,0,0-.751,6.7022,14.7537,14.7537,0,0,0,1.0723,6.0537A3.5731,3.5731,0,0,0,220.8959,517.7348Z" fill="#ffffff"/><path class="cls-1" d="M278.3925,475.2534q-.6432,4.5058-1.9307,10.1914-1.2876,5.688-2.8965,11.3711-1.61,5.688-3.54,10.8349a67.6118,67.6118,0,0,1-4.0762,9.0118q-.4278.6431-1.2881.1074a5.7376,5.7376,0,0,1-1.6084-1.6094,12.5435,12.5435,0,0,1-1.2881-2.36,2.5049,2.5049,0,0,1,.1074-2.36,49.817,49.817,0,0,0,3.8624-8.582q1.9307-5.36,3.54-11.586a96.3844,96.3844,0,0,0,2.36-12.3359,65.9762,65.9762,0,0,0,.5362-10.835c0-.43.3213-.8925.9658-1.3945a7.558,7.558,0,0,1,2.252-1.1807,18.3249,18.3249,0,0,1,2.4677-.6435c.7842-.1406,1.25-.07,1.3946.2148a18.11,18.11,0,0,1,0,4.0762c0,.5732.3554.8584,1.0732.8584q2.7846.2167,7.08.8584a26.68,26.68,0,0,1,8.26,2.6816A21.53,21.53,0,0,1,302.53,478.15q2.8959,3.54,2.8964,9.5478a39.8,39.8,0,0,1-2.038,12.4444A40.3559,40.3559,0,0,0,301.35,512.8a21.3777,21.3777,0,0,0,.4326,3.97c.2881,1.501.9424,2.2519,1.9551,2.2519a5.75,5.75,0,0,0,4.2334-2.3593,31.9743,31.9743,0,0,0,3.7988-5.4717,61.326,61.326,0,0,0,3.0371-6.2217q1.3023-3.1084,1.9541-4.8271a1.7761,1.7761,0,0,1,1.8438-1.0733q1.4076,0,1.1972,1.9307a49.6159,49.6159,0,0,1-2.8066,14.59,41.494,41.494,0,0,1-5.8223,10.9424,24.8513,24.8513,0,0,1-7.7646,6.8652,18.1934,18.1934,0,0,1-8.8438,2.36,13.3591,13.3591,0,0,1-6.041-1.3945,14.2876,14.2876,0,0,1-4.7471-3.7549,17.8138,17.8138,0,0,1-3.0205-5.3633,18.327,18.327,0,0,1-1.0752-6.2227,43.2356,43.2356,0,0,1,.9981-8.6894q.9961-4.8267,2.22-9.8692,1.2172-5.0376,2.22-9.8691a43.5277,43.5277,0,0,0,.9991-8.6894,6.21,6.21,0,0,0-1.7676-4.8272,11.7821,11.7821,0,0,0-4.8535-2.4678C278.7577,474.3247,278.3925,474.54,278.3925,475.2534Z" fill="#ffffff"/><path class="cls-1" d="M341.8993,472.25q-2.1474,7.9409-4.1836,18.2373a99.5515,99.5515,0,0,0-2.0391,19.31,24.738,24.738,0,0,0,.751,6.4365q.75,2.792,2.4678,2.789,2.1416,0,4.1836-2.3593a32.0709,32.0709,0,0,0,3.7549-5.4717,61.604,61.604,0,0,0,3.0039-6.2217q1.2876-3.1084,1.9306-4.8271a1.7521,1.7521,0,0,1,1.8243-1.0733q1.3915,0,1.18,1.9307a49.9794,49.9794,0,0,1-2.789,14.59,41.689,41.689,0,0,1-5.793,10.9424,24.8126,24.8126,0,0,1-7.7236,6.8652,18.0232,18.0232,0,0,1-8.7969,2.36,10.5571,10.5571,0,0,1-6.0078-1.7158,15.1,15.1,0,0,1-4.3984-4.6133,23.4008,23.4008,0,0,1-2.7891-6.544,28.39,28.39,0,0,1-.9658-7.2949,154.9454,154.9454,0,0,1,1.1806-18.2363,132.6457,132.6457,0,0,1,3.3252-18.0225,3.428,3.428,0,0,1,3.2188-3.0039q9.8657-.8554,15.0185-6.0078,1.7139-1.7139,3.1114-1.3945Q342.7548,469.2465,341.8993,472.25Zm-2.1455-30.252a2.63,2.63,0,0,1,2.0381,1.3955q.9653,1.3976.9658,5.2559a19.3315,19.3315,0,0,1-.8584,5.1494,27.9122,27.9122,0,0,1-2.4678,5.9,17.1164,17.1164,0,0,1-4.0762,4.9346,8.6585,8.6585,0,0,1-5.6855,2.0381,5.6057,5.6057,0,0,1-4.7207-1.9307,7.4485,7.4485,0,0,1-1.502-4.7207,7.2908,7.2908,0,0,1,1.0733-3.7539,7.51,7.51,0,0,1,3.2178-2.8965,19.5237,19.5237,0,0,0,5.042-3.6475,23.9092,23.9092,0,0,0,2.8964-3.6474q1.0724-1.7154,1.9317-2.8965A2.5708,2.5708,0,0,1,339.7538,441.9975Z" fill="#ffffff"/><path class="cls-1" d="M379.8719,516.4477a40.2955,40.2955,0,0,1-9.0117,14.16q-5.3641,5.15-9.4394,5.1494a7.0442,7.0442,0,0,1-5.042-1.9307,14.3738,14.3738,0,0,1-3.3262-5.042,28.4376,28.4376,0,0,1-1.8232-7.08,61.9763,61.9763,0,0,1-.5371-8.2608,92.92,92.92,0,0,1,.5371-9.7617q.5376-5.0391,1.18-9.7627.6444-4.7167,1.3945-8.582.75-3.8613,1.1807-6.4366a2.5683,2.5683,0,0,1,2.789-2.36l14.8037-.2139q2.3584,0,1.9307,2.3594-.4321,1.9322-1.0723,5.1494-.6446,3.2183-1.18,7.08-.5389,3.8628-.9658,7.832a66.9474,66.9474,0,0,0-.43,7.1875,29.1413,29.1413,0,0,0,.6446,6.3291q.643,2.896,1.9306,2.8965,2.7861,0,4.72-4.7207a62.828,62.828,0,0,0,3.2187-10.835q1.2876-6.1141,2.0381-12.0146a69.2845,69.2845,0,0,1,1.3945-8.26,3.4272,3.4272,0,0,1,3.2188-3.0039q9.8656-.8554,15.0185-6.0078,1.7139-1.7139,3.11-1.3945,1.393.3222.5371,3.3252-2.1476,7.9409-4.1846,18.2373a99.6245,99.6245,0,0,0-2.0381,19.31q0,7.9408,3.8623,7.9384a5.52,5.52,0,0,0,4.0762-2.1455,27.2322,27.2322,0,0,0,3.54-5.042,48.9264,48.9264,0,0,0,2.7891-5.9q1.1778-3.0014,1.8242-4.5048a1.7516,1.7516,0,0,1,1.8233-1.0733q1.3931,0,1.1806,1.9307a49.9826,49.9826,0,0,1-2.789,14.59,41.689,41.689,0,0,1-5.793,10.9424,24.8057,24.8057,0,0,1-7.7246,6.8652,18.02,18.02,0,0,1-8.7959,2.36,11.2286,11.2286,0,0,1-10.1914-5.9,28.4669,28.4669,0,0,1-3.97-13.1943C380.3007,515.6635,380.1571,515.5893,379.8719,516.4477Z" fill="#ffffff"/><path class="cls-1" d="M412.0516,510.44a51.3114,51.3114,0,0,0,4.5059-10.19q2.1416-6.3267,4.1836-12.874,2.0361-6.5421,4.1836-12.336a33.03,33.03,0,0,1,4.5058-8.7969,8.8732,8.8732,0,0,1,2.6817-2.4677,7.5875,7.5875,0,0,1,3.97-.9649,4.085,4.085,0,0,1,3.4326,1.7158,6.2836,6.2836,0,0,1,1.2871,3.8624,3.6365,3.6365,0,0,1-1.9306,3.4326q-1.9306,1.0765-1.9307,2.5742,0,3.2183,3.2178,6.5439,3.2183,3.33,7.1875,7.51a56.6226,56.6226,0,0,1,7.1875,9.44,23.585,23.585,0,0,1,3.2187,12.5508,29.0512,29.0512,0,0,1-1.5019,9.2266,25.1683,25.1683,0,0,1-4.3985,8.0449,22.9344,22.9344,0,0,1-7.1875,5.793,20.9294,20.9294,0,0,1-9.8691,2.2529,20.5554,20.5554,0,0,1-9.2266-1.8233,16.329,16.329,0,0,1-5.792-4.6132,16.6843,16.6843,0,0,1-3.0039-6.2217,20.5936,20.5936,0,0,1-.6435-6.4365c-.2852.2881-.7149.2509-1.2881-.1075a5.7238,5.7238,0,0,1-1.6084-1.6093,14.16,14.16,0,0,1-1.2881-2.253A2.3059,2.3059,0,0,1,412.0516,510.44Zm16.95-27.4619a76.3532,76.3532,0,0,0-4.8281,12.7656q-1.8252,6.5464-4.1836,12.7656a3.4737,3.4737,0,0,1,2.1455-.6435q1.0708,0,.8584,1.3945a14.8583,14.8583,0,0,0-.2148,2.0381,7.0135,7.0135,0,0,0,2.1455,5.1494,7.2705,7.2705,0,0,0,5.3642,2.1455q4.9336,0,6.6514-3.1113a14.2008,14.2008,0,0,0,1.7158-6.9727,23.3423,23.3423,0,0,0-1.0722-7.1875,56.3656,56.3656,0,0,0-2.4678-6.3291q-1.3976-3.0028-3.0039-6.0078a30.2075,30.2075,0,0,1-2.4668-6.0068Q429.4287,482.1225,429.0018,482.978Z" fill="#ffffff"/><path class="cls-1" d="M335.5264,232.8318c-55.0744.1187-52.0594-81.9506-105.17-61.0009-40.98,16.1647-71.0037,71.9406-112.4874,41.9113C86.036,190.6985,80.692,160.6441,50.09,170.4041c-25.8584,8.247-30.96,22.0981-39.0713,12.1429-3.3607-4.1243-2.0772-10.1794,1.6643-13.3393,21.3243-18.0095,54.4833-31.1385,78.9511-9.8743,38.3777,33.3528,37.4066,59.7017,80.7575,26.498,18.0731-13.8428,31.5535-26.1981,52.0572-33.7982,47.945-17.7718,69.4755,24.873,79.1636,37.4039,41.3484,53.4808,52.6214,2.5267,119.3741-26.7783,12.7558-5.6,21.55,14.9131,4.0545,21.1046C392.6787,195.9236,371.9711,232.7532,335.5264,232.8318Z" fill="#ffffff"/><path class="cls-1" d="M334.0591,299.7582c-55.62-.0275-51.7333-82.0678-105.1706-61.0078-40.8534,16.1006-71.0226,71.925-112.49,41.9285-31.58-22.8437-37.2309-53.0889-67.7774-43.3547-25.7746,8.2135-30.9942,22.0391-39.0774,12.1629-3.3264-4.0643-2.15-10.1213,1.6445-13.3334,20.5077-17.3607,54.1167-31.4741,78.9439-9.9071,38.7015,33.62,37.4772,59.6416,80.7563,26.521,18.0724-13.83,31.5372-26.1914,52.0555-33.8014,47.8626-17.7518,69.2774,24.5816,79.1708,37.38,41.3427,53.4824,52.67,2.5345,119.3666-26.7555,12.8256-5.6323,21.511,14.9525,4.09,21.0888C391.3743,262.7252,370.278,299.7761,334.0591,299.7582Z" fill="#ffffff"/><path class="cls-1" d="M63.2,280.0537c41.6582-1.91,57.1247,69.8261,93.076,49.0241,25.425-14.7113,76.0165-74.2882,121.09-38.84C303.4,310.7122,314.2,354.941,346.3892,341.72c30.9524-12.7132,32.3038-28.9073,75.9523-47.1469,14.07-5.88,22.4033,14.4067,3.8893,21.1333-39.95,14.5148-69.5907,70.4157-116.7125,40.9373-34.3858-21.511-37.0852-88.0345-104.214-38.7462-45.47,33.3855-60.78,55.2875-103.5791,13.0966C82.76,312.298,75.0071,294.14,50.023,302.1033c-19.2384,6.132-23.7433,12.2-28.3037,14.3732A8.8368,8.8368,0,0,1,10.06,304.3423C14.0783,296.8281,37.4527,281.2341,63.2,280.0537Z" fill="#ffffff"/><polygon class="cls-1" points="99.594 92.272 131.611 100.892 99.594 109.513 90.974 141.529 82.353 109.513 50.337 100.892 82.353 92.272 90.974 60.255 99.594 92.272" fill="#ffffff"/><polygon class="cls-1" points="395.265 123.1 427.281 131.72 395.265 140.341 386.644 172.358 378.024 140.341 346.007 131.72 378.024 123.1 386.644 91.083 395.265 123.1" fill="#ffffff"/><polygon class="cls-1" points="259.34 411.764 291.357 420.384 259.34 429.005 250.72 461.021 242.099 429.005 210.083 420.384 242.099 411.764 250.72 379.747 259.34 411.764" fill="#ffffff"/><polygon class="cls-1" points="71.186 344.885 96.579 351.722 71.186 358.558 64.35 383.951 57.513 358.558 32.12 351.722 57.513 344.885 64.35 319.492 71.186 344.885" fill="#ffffff"/><polygon class="cls-1" points="274.372 25.393 299.765 32.229 274.372 39.066 267.535 64.459 260.698 39.066 235.306 32.229 260.698 25.393 267.535 0 274.372 25.393" fill="#ffffff"/><path class="cls-1" d="M332.6948,91.0833c0,13.8949-21.0192,13.9145-21.0192,0C311.6756,77.1884,332.6948,77.1687,332.6948,91.0833Z" fill="#ffffff"/><path class="cls-1" d="M209.3821,365.7344c0,13.8948-21.0192,13.9145-21.0192,0C188.3629,351.84,209.3821,351.82,209.3821,365.7344Z" fill="#ffffff"/><path class="cls-1" d="M369.1282,410.5753c0,13.8949-21.0193,13.9146-21.0193,0C348.1089,396.6805,369.1282,396.6608,369.1282,410.5753Z" fill="#ffffff"/><path class="cls-1" d="M122.5027,410.5753c0,13.8949-21.0192,13.9146-21.0192,0C101.4835,396.6805,122.5027,396.6608,122.5027,410.5753Z" fill="#ffffff"/><path class="cls-1" d="M198.1719,116.3063c0,13.8949-21.0192,13.9146-21.0192,0C177.1527,102.4114,198.1719,102.3917,198.1719,116.3063Z" fill="#ffffff"/><path class="cls-1" d="M167.3437,25.2231c0,13.8949-21.0192,13.9145-21.0192,0C146.3245,11.3282,167.3437,11.3085,167.3437,25.2231Z" fill="#ffffff"/></g></g></svg>
