<svg xmlns="http://www.w3.org/2000/svg" viewBox="0 0 416.4111 520.8558"><g id="katman_2"><g id="katman_1-2"><path d="M205.8781,323.642c16.2753-132.0293,22.2056-221.6167,79.5846-254.8028,32.3144-18.69,67.86-7.8029,94.914,15.18,7.3116,6.2111,13.9794,15.0589,6.33,20.84-11.8358,8.9455-10.4592-13.6533-55.5151-24.7706C220.108,52.6788,234.6792,366.1571,212.7746,406.808a9.628,9.628,0,0,1-18.0016-3.0226c-19.9-102.4032-15.4109-349.8428-118.5471-320.2495-43.6067,12.5123-41.0175,33.32-52.7385,24.0167C1.84,90.3707,140.4634-14.5746,181.9552,169.9463,197.7676,240.2669,200.7512,323.3624,205.8781,323.642Z"/><polygon points="46.691 180.442 77.039 188.614 46.691 196.785 38.52 227.133 30.348 196.785 0 188.614 30.348 180.442 38.52 150.094 46.691 180.442"/><polygon points="356.177 323.895 386.525 332.066 356.177 340.238 348.005 370.586 339.834 340.238 309.486 332.066 339.834 323.895 348.005 293.547 356.177 323.895"/><polygon points="246.897 24.069 270.966 30.55 246.897 37.031 240.416 61.1 233.935 37.031 209.866 30.55 233.935 24.069 240.416 0 246.897 24.069"/><polygon points="292.058 220.653 316.127 227.133 292.058 233.614 285.577 257.683 279.096 233.614 255.027 227.133 279.096 220.653 285.577 196.583 292.058 220.653"/><polygon points="144.62 374.731 168.69 381.212 144.62 387.693 138.14 411.762 131.659 387.693 107.589 381.212 131.659 374.731 138.14 350.662 144.62 374.731"/><path d="M367.2653,139.4678c0,13.1709-19.9239,13.19-19.9239,0C347.3414,126.297,367.2653,126.2783,367.2653,139.4678Z"/><path d="M132.1624,30.55c0,13.1709-19.924,13.19-19.924,0C112.2384,17.3792,132.1624,17.3606,132.1624,30.55Z"/><path d="M280.9281,386.5252c0,13.1709-19.924,13.19-19.924,0C261.0041,373.3543,280.9281,373.3356,280.9281,386.5252Z"/><path d="M215.8431,95.6351c0,13.1709-19.924,13.19-19.924,0C195.9191,82.4642,215.8431,82.4456,215.8431,95.6351Z"/><path d="M122.8645,245.7291c0,13.1708-19.9239,13.19-19.9239,0C102.9406,232.5582,122.8645,232.54,122.8645,245.7291Z"/><path d="M57.78,293.5466c0,13.1709-19.9239,13.19-19.9239,0C37.8556,280.3757,57.78,280.3571,57.78,293.5466Z"/><path d="M416.4111,227.1334c0,13.1708-19.9239,13.19-19.9239,0C396.4872,213.9625,416.4111,213.9438,416.4111,227.1334Z"/><path d="M118.9567,504.55a40.446,40.446,0,0,1-9.8692,11.9072q-5.5818,4.4-11.1567,4.3984a9.8353,9.8353,0,0,1-8.4751-4.3984,24.2214,24.2214,0,0,1-3.9692-11.0488,48.45,48.45,0,0,1,.4292-14.2686,52.812,52.812,0,0,1,4.5058-14.2676,33.503,33.503,0,0,1,8.3672-11.0488,17.9343,17.9343,0,0,1,12.0151-4.3984,15.8492,15.8492,0,0,1,6.544,1.3945,11.5336,11.5336,0,0,1,5.042,4.3984c.2846.2881.5.2139.6435-.2148l.6436-2.5742a3.4273,3.4273,0,0,1,3.2182-3.0039q9.8666-.8555,15.0186-6.0078,1.7154-1.7139,3.1113-1.3946,1.393.3223.5362,3.3252-2.1468,7.9614-4.1836,18.3116a100.5617,100.5617,0,0,0-2.0381,19.41,17.1409,17.1409,0,0,0,.751,5.7158,2.6,2.6,0,0,0,2.4672,2.0479,6.4956,6.4956,0,0,0,4.5054-2.0381,20.4449,20.4449,0,0,0,3.7549-4.9346,53.6584,53.6584,0,0,0,2.7891-5.7929q1.1769-2.8961,1.8237-4.6133a1.752,1.752,0,0,1,1.8237-1.0723q1.393,0,1.18,1.9307a49.6792,49.6792,0,0,1-2.79,14.5625,40.8485,40.8485,0,0,1-5.7929,10.8652,25.1914,25.1914,0,0,1-7.6162,6.7852,17.6051,17.6051,0,0,1-8.6895,2.33,11.1521,11.1521,0,0,1-9.5478-4.9345,24.5684,24.5684,0,0,1-4.398-11.1563c0-.2851-.0742-.4629-.2148-.5371C119.2418,504.1576,119.0978,504.265,118.9567,504.55Zm-9.0113-1.7168a5.8959,5.8959,0,0,0,4.3985-2.27,19.0173,19.0173,0,0,0,3.4331-5.8359,41.1,41.1,0,0,0,2.1455-7.8916,49.3556,49.3556,0,0,0,.751-8.4316,3.7546,3.7546,0,0,0-1.0728-2.92,3.7172,3.7172,0,0,0-2.5747-.9716,7.1285,7.1285,0,0,0-4.9351,1.9472,16.9181,16.9181,0,0,0-3.6469,4.8643,25.7391,25.7391,0,0,0-2.253,6.376,31.44,31.44,0,0,0-.7509,6.7021,14.7447,14.7447,0,0,0,1.0727,6.0537A3.5715,3.5715,0,0,0,109.9454,502.8334Z"/><path d="M167.443,460.3519q-.6438,4.5059-1.9312,10.1914-1.2876,5.688-2.8964,11.3711-1.6092,5.688-3.54,10.835a67.6145,67.6145,0,0,1-4.0766,9.0117q-.4271.643-1.2871.1074a5.73,5.73,0,0,1-1.6094-1.6093,12.5129,12.5129,0,0,1-1.2871-2.36,2.5005,2.5005,0,0,1,.1074-2.36,49.8605,49.8605,0,0,0,3.8618-8.5821q1.9307-5.36,3.54-11.5859a96.2162,96.2162,0,0,0,2.36-12.3359,65.9255,65.9255,0,0,0,.5366-10.835c0-.43.3218-.8926.9654-1.3945a7.551,7.551,0,0,1,2.2529-1.1807,18.3441,18.3441,0,0,1,2.4673-.6436c.7846-.1406,1.2505-.07,1.3945.2149a18.0458,18.0458,0,0,1,0,4.0762c0,.5732.3555.8584,1.0728.8584q2.7861.2168,7.08.8584a26.6843,26.6843,0,0,1,8.26,2.6816,21.518,21.518,0,0,1,6.8652,5.5781q2.8968,3.5406,2.8965,9.5479a39.7855,39.7855,0,0,1-2.0381,12.4443A40.373,40.373,0,0,0,190.4,497.8988a21.3722,21.3722,0,0,0,.4322,3.97q.4327,2.2515,1.9546,2.252a5.7508,5.7508,0,0,0,4.2338-2.3594,31.9788,31.9788,0,0,0,3.7984-5.4717,61.3829,61.3829,0,0,0,3.0376-6.2216q1.3022-3.1085,1.9541-4.8272a1.776,1.776,0,0,1,1.8437-1.0732q1.4077,0,1.1973,1.9306a49.62,49.62,0,0,1-2.8066,14.59,41.4992,41.4992,0,0,1-5.8228,10.9424,24.8558,24.8558,0,0,1-7.7642,6.8652,18.1922,18.1922,0,0,1-8.8432,2.36,13.3546,13.3546,0,0,1-6.041-1.3945,14.2691,14.2691,0,0,1-4.7471-3.7549,17.8,17.8,0,0,1-3.02-5.3633,18.3147,18.3147,0,0,1-1.0762-6.2226,43.2437,43.2437,0,0,1,.999-8.69q.9954-4.8265,2.2193-9.8691,1.2172-5.0376,2.2192-9.8691a43.4553,43.4553,0,0,0,.999-8.6895,6.2093,6.2093,0,0,0-1.7666-4.8271,11.7835,11.7835,0,0,0-4.8545-2.4678C167.8082,459.4232,167.443,459.6381,167.443,460.3519Z"/><path d="M230.9493,457.348q-2.1474,7.941-4.1835,18.2373a99.5445,99.5445,0,0,0-2.0391,19.31,24.7331,24.7331,0,0,0,.751,6.4365q.75,2.7921,2.4677,2.7891,2.1417,0,4.1836-2.3594a32.0651,32.0651,0,0,0,3.7549-5.4717,61.5915,61.5915,0,0,0,3.0039-6.2216q1.2876-3.1085,1.9307-4.8272a1.752,1.752,0,0,1,1.8242-1.0732q1.3916,0,1.18,1.9306a49.98,49.98,0,0,1-2.7891,14.59A41.6875,41.6875,0,0,1,235.24,511.63a24.8153,24.8153,0,0,1-7.7237,6.8652,18.0227,18.0227,0,0,1-8.7968,2.36,10.5572,10.5572,0,0,1-6.0079-1.7158,15.1,15.1,0,0,1-4.3984-4.6133,23.4019,23.4019,0,0,1-2.7891-6.5439,28.3945,28.3945,0,0,1-.9658-7.2949,154.9255,154.9255,0,0,1,1.1807-18.2364,132.6287,132.6287,0,0,1,3.3252-18.0224,3.4278,3.4278,0,0,1,3.2187-3.0039q9.8658-.8555,15.0186-6.0078,1.7139-1.7139,3.1113-1.3946Q231.8048,454.3452,230.9493,457.348Zm-2.1455-30.2519a2.6294,2.6294,0,0,1,2.0381,1.3955q.9654,1.3974.9658,5.2558a19.3274,19.3274,0,0,1-.8584,5.1495,27.9162,27.9162,0,0,1-2.4677,5.9,17.1167,17.1167,0,0,1-4.0762,4.9346A8.6587,8.6587,0,0,1,218.72,451.77a5.6056,5.6056,0,0,1-4.7207-1.9307,7.4483,7.4483,0,0,1-1.502-4.7207,7.2916,7.2916,0,0,1,1.0732-3.7539,7.511,7.511,0,0,1,3.2178-2.8965,19.52,19.52,0,0,0,5.042-3.6474,23.9045,23.9045,0,0,0,2.8965-3.6475q1.0722-1.7153,1.9316-2.8965A2.5711,2.5711,0,0,1,228.8038,427.0961Z"/><path d="M262.4855,495.5023a11.6673,11.6673,0,0,0,3.4326,5.2832,9.4749,9.4749,0,0,0,6.4365,2.0479q4.2891,0,8.69-3.8613,4.3945-3.8628,7.6162-13.5176a1.7534,1.7534,0,0,1,1.8242-1.0723q1.3931,0,1.18,1.9307a43.3359,43.3359,0,0,1-3.2178,14.8847A36.9733,36.9733,0,0,1,281.58,512.059a27.9463,27.9463,0,0,1-9.1182,6.5713,24.5605,24.5605,0,0,1-9.9765,2.2255q-8.8008,0-14.0537-4.3984a23.4388,23.4388,0,0,1-7.4014-11.1562,35.963,35.963,0,0,1-1.3945-14.4825,41.64,41.64,0,0,1,4.0761-14.4824A30.9127,30.9127,0,0,1,252.83,465.18a22.0653,22.0653,0,0,1,13.7315-4.3985,15.0177,15.0177,0,0,1,9.8691,3.56q4.29,3.561,4.292,10.456a19.4484,19.4484,0,0,1-5.042,13.2657,20.2069,20.2069,0,0,1-12.7666,6.792C262.6261,494.8549,262.4855,495.0726,262.4855,495.5023Zm-.2149-6.4q6.8643-1.4985,9.6553-6.0068a15.8826,15.8826,0,0,0,2.7891-8.1533,2.4922,2.4922,0,0,0-1.9307-2.6817,5.7863,5.7863,0,0,0-4.3984.8584,12.5651,12.5651,0,0,0-4.5059,5.1485q-2.0419,3.7574-2.2529,10.1914A.5686.5686,0,0,0,262.2706,489.1019Z"/><path d="M284.1525,495.5385a51.3188,51.3188,0,0,0,4.5058-10.19q2.1417-6.3266,4.1836-12.874,2.0361-6.5419,4.1836-12.3359a33.03,33.03,0,0,1,4.5059-8.7969,8.8744,8.8744,0,0,1,2.6816-2.4678,7.5889,7.5889,0,0,1,3.97-.9648,4.0848,4.0848,0,0,1,3.4327,1.7158,6.2835,6.2835,0,0,1,1.2871,3.8623,3.6364,3.6364,0,0,1-1.9307,3.4326q-1.9306,1.0767-1.9307,2.5742,0,3.2183,3.2178,6.544,3.2183,3.33,7.1875,7.51a56.6234,56.6234,0,0,1,7.1875,9.4405,23.5845,23.5845,0,0,1,3.2188,12.5508,29.0507,29.0507,0,0,1-1.502,9.2265,25.167,25.167,0,0,1-4.3984,8.0449,22.9327,22.9327,0,0,1-7.1875,5.793,20.9289,20.9289,0,0,1-9.8692,2.2529,20.555,20.555,0,0,1-9.2265-1.8232,16.3283,16.3283,0,0,1-5.792-4.6133,16.6805,16.6805,0,0,1-3.0039-6.2217,20.5935,20.5935,0,0,1-.6436-6.4365c-.2851.2881-.7148.251-1.2881-.1074a5.7256,5.7256,0,0,1-1.6084-1.6094,14.1505,14.1505,0,0,1-1.288-2.2529A2.3059,2.3059,0,0,1,284.1525,495.5385Zm16.95-27.462a76.3547,76.3547,0,0,0-4.8282,12.7657q-1.8252,6.5463-4.1836,12.7656a3.4743,3.4743,0,0,1,2.1456-.6436q1.0707,0,.8584,1.3946a14.8433,14.8433,0,0,0-.2149,2.0381,7.0142,7.0142,0,0,0,2.1455,5.1494,7.2711,7.2711,0,0,0,5.3643,2.1455q4.9335,0,6.6513-3.1114a14.2,14.2,0,0,0,1.7159-6.9726,23.3388,23.3388,0,0,0-1.0723-7.1875,56.3656,56.3656,0,0,0-2.4678-6.3291q-1.3974-3.003-3.0039-6.0078a30.2227,30.2227,0,0,1-2.4668-6.0069Q301.5295,467.2211,301.1027,468.0765Z"/></g></g></svg>
