<svg xmlns="http://www.w3.org/2000/svg" viewBox="0 0 453.8326 565.1475"><defs><style>.cls-1{fill:#464646;}</style></defs><g id="katman_2" data-name="katman 2"><g id="katman_1-2" data-name="katman 1"><path class="cls-1" d="M244.7836,73.6328c68.432-.5147,120.3225,18.0618,164.15,47.6454,15.932,10.7542,3.441,25.6568-9.1056,17.52C276.4773,58.8039,54.7127,94.68,31.0725,211.4939,15.76,287.1605,98.43,314.5258,132.2657,277.6964c22.3914-24.3725,18.6735-78.7295-30.0975-85.7234-10.3095-1.4785-26.897,2.0262-27.038-11.5353-.0812-7.8122,7.6651-11.4879,12.19-11.03,13.4393,1.3589,64.38-1.1713,77.4992,53.5867,19.6552,82.0364-78.0942,121.28-130.0139,70.68C-36.6911,223.9946,27.6661,75.2661,244.7836,73.6328Z"/><path class="cls-1" d="M42.1813,382.8122c-6.628-4.4778-11.4705-10.3469-6.57-16.94,4.5205-6.0826,10.3986-3.898,16.3085-.154,78.4332,49.6881,183.9018,53.5506,267.4548,23.4706C454.9467,340.3807,441.47,207.8308,356.1452,209.8729c-34.899.8352-61.0541,29.2355-47.98,70.9137,14.5192,46.2837,69.32,19.0116,66.8906,43.4222a10.2173,10.2173,0,0,1-9.5986,9.3958c-38.6344,2.953-77.0641-15.2986-82.1121-64.9746-10.91-107.36,159.3185-108.37,159.2519,3.9678C442.5069,425.1961,179.7667,475.7649,42.1813,382.8122Z"/><polygon class="cls-1" points="276.435 150.574 309.563 159.494 276.435 168.414 267.515 201.542 258.595 168.414 225.466 159.494 258.595 150.574 267.515 117.446 276.435 150.574"/><polygon class="cls-1" points="374.635 259.715 400.91 266.79 374.635 273.864 367.561 300.139 360.487 273.864 334.212 266.79 360.487 259.715 367.561 233.441 374.635 259.715"/><polygon class="cls-1" points="155.694 351.062 181.968 358.136 155.694 365.211 148.619 391.485 141.545 365.211 115.271 358.136 141.545 351.062 148.619 324.788 155.694 351.062"/><polygon class="cls-1" points="212.241 26.274 238.516 33.349 212.241 40.423 205.167 66.697 198.093 40.423 171.818 33.349 198.093 26.274 205.167 0 212.241 26.274"/><path class="cls-1" d="M165.2937,452.3827c0,14.3774-21.7492,14.3978-21.7492,0C143.5445,438.0052,165.2937,437.9849,165.2937,452.3827Z"/><path class="cls-1" d="M84.0968,255.19c0,14.3775-21.7492,14.3978-21.7492,0C62.3476,240.8128,84.0968,240.7924,84.0968,255.19Z"/><path class="cls-1" d="M453.8326,188.4928c0,14.3774-21.7491,14.3978-21.7491,0C432.0835,174.1154,453.8326,174.095,453.8326,188.4928Z"/><path class="cls-1" d="M21.7492,308.8382c0,14.3774-21.7492,14.3978-21.7492,0C0,294.4607,21.7492,294.44,21.7492,308.8382Z"/><path class="cls-1" d="M130.495,57.9978c0,14.3774-21.7492,14.3978-21.7492,0C108.7458,43.62,130.495,43.6,130.495,57.9978Z"/><path class="cls-1" d="M388.5851,79.7469c0,14.3775-21.7491,14.3978-21.7491,0C366.836,65.37,388.5851,65.3491,388.5851,79.7469Z"/><path class="cls-1" d="M310.2881,361.0362c0,14.3774-21.7491,14.3978-21.7491,0C288.539,346.6587,310.2881,346.6384,310.2881,361.0362Z"/><path class="cls-1" d="M226.1913,274.04c0,14.3774-21.7491,14.3978-21.7491,0C204.4422,259.6621,226.1913,259.6417,226.1913,274.04Z"/><path class="cls-1" d="M192.8426,150.7942c0,14.3775-21.7492,14.3978-21.7492,0C171.0934,136.4168,192.8426,136.3964,192.8426,150.7942Z"/><path class="cls-1" d="M310.2881,453.8326c0,14.3775-21.7491,14.3978-21.7491,0C288.539,439.4552,310.2881,439.4348,310.2881,453.8326Z"/><path class="cls-1" d="M33.3487,139.1947c0,14.3774-21.7491,14.3978-21.7491,0C11.6,124.8172,33.3487,124.7969,33.3487,139.1947Z"/><path class="cls-1" d="M90.21,516.873q-1.9314,0-3.6475,2.27a18.6433,18.6433,0,0,0-2.7891,5.6191,28.6515,28.6515,0,0,0-1.2876,7.2373,21.6484,21.6484,0,0,0,.751,7.2383,12.3683,12.3683,0,0,0,3.3257,5.6182,8.8831,8.8831,0,0,0,6.4365,2.2695q4.2891,0,8.69-3.8613,4.3945-3.8628,7.6167-13.5176a1.7516,1.7516,0,0,1,1.8232-1.0723q1.3931,0,1.18,1.9307a43.3358,43.3358,0,0,1-3.2183,14.8847,35.7388,35.7388,0,0,1-6.9726,10.8614,29.1146,29.1146,0,0,1-9.2261,6.5713,24.5594,24.5594,0,0,1-9.9766,2.2256,21.0338,21.0338,0,0,1-10.2983-2.36,21.6635,21.6635,0,0,1-7.0806-6.1143,26.5929,26.5929,0,0,1-4.1836-8.582,35.042,35.042,0,0,1-1.3945-9.7627,40.83,40.83,0,0,1,1.7163-11.1562A40.04,40.04,0,0,1,66.6085,516.23a30.1612,30.1612,0,0,1,7.9385-8.26,18.1729,18.1729,0,0,1,10.7275-3.3262,13.6979,13.6979,0,0,1,9.2261,3.54q4.073,3.54,4.0761,9.9765a6.5956,6.5956,0,0,1-1.2871,4.0772,3.7066,3.7066,0,0,1-3.0039,1.7158,2.0837,2.0837,0,0,1-2.36-2.3594,16.6153,16.6153,0,0,1,.3217-3.0039Q92.5692,516.8746,90.21,516.873Z"/><path class="cls-1" d="M140.84,548.8418a40.4473,40.4473,0,0,1-9.8691,11.9072q-5.5818,4.4-11.1568,4.3985a9.8355,9.8355,0,0,1-8.4751-4.3985A24.2221,24.2221,0,0,1,107.37,549.7a48.4572,48.4572,0,0,1,.4292-14.2686,52.8068,52.8068,0,0,1,4.5059-14.2675,33.5021,33.5021,0,0,1,8.3671-11.0489,17.9349,17.9349,0,0,1,12.0152-4.3984,15.849,15.849,0,0,1,6.5439,1.3945,11.5338,11.5338,0,0,1,5.042,4.3985c.2847.288.4995.2138.6436-.2149l.6435-2.5742a3.4274,3.4274,0,0,1,3.2183-3.0039q9.8664-.8554,15.0185-6.0078,1.7154-1.7139,3.1114-1.3946,1.393.3224.5361,3.3252-2.1468,7.9615-4.1836,18.3116a100.57,100.57,0,0,0-2.0381,19.41,17.1435,17.1435,0,0,0,.751,5.7158,2.6,2.6,0,0,0,2.4673,2.0479,6.496,6.496,0,0,0,4.5054-2.0381,20.4421,20.4421,0,0,0,3.7548-4.9346,53.6584,53.6584,0,0,0,2.7891-5.7929q1.177-2.8961,1.8237-4.6133a1.752,1.752,0,0,1,1.8238-1.0723q1.3931,0,1.18,1.9307a49.66,49.66,0,0,1-2.789,14.5625,40.8515,40.8515,0,0,1-5.793,10.8652,25.189,25.189,0,0,1-7.6162,6.7852,17.6045,17.6045,0,0,1-8.6894,2.33,11.1524,11.1524,0,0,1-9.5479-4.9346,24.5683,24.5683,0,0,1-4.3979-11.1563c0-.2851-.0743-.4629-.2149-.5371C141.1256,548.4492,140.9815,548.5566,140.84,548.8418Zm-9.0112-1.7168a5.8959,5.8959,0,0,0,4.3984-2.2695,19.0191,19.0191,0,0,0,3.4331-5.836,41.1,41.1,0,0,0,2.1455-7.8916,49.3556,49.3556,0,0,0,.751-8.4316,3.7546,3.7546,0,0,0-1.0727-2.92,3.7169,3.7169,0,0,0-2.5748-.9717,7.1281,7.1281,0,0,0-4.935,1.9472,16.9166,16.9166,0,0,0-3.647,4.8643,25.739,25.739,0,0,0-2.2529,6.376,31.44,31.44,0,0,0-.751,6.7021,14.7446,14.7446,0,0,0,1.0728,6.0537A3.5713,3.5713,0,0,0,131.8292,547.125Z"/><path class="cls-1" d="M197.2642,519.6621a41.5092,41.5092,0,0,1,8.4746-10.19,16.2171,16.2171,0,0,1,10.836-4.3985q5.792,0,7.832,4.0762a21.3837,21.3837,0,0,1,2.0371,9.6553,53.7634,53.7634,0,0,1-.43,6.65q-.4306,3.435-.9648,6.6513-.5391,3.2183-.9648,5.9a27.9509,27.9509,0,0,0-.43,4.1836q0,5.3658,3.0039,5.3643,1.7137,0,3.539-2.253a33.3259,33.3259,0,0,0,3.4336-5.2568q1.6084-3.0015,2.8965-6.0078a42.8518,42.8518,0,0,0,1.7168-4.5049,1.7513,1.7513,0,0,1,1.8242-1.0732q1.3917,0,1.18,1.9306a52.5341,52.5341,0,0,1-2.6816,14.59,39.4945,39.4945,0,0,1-5.6856,10.9424,25.3084,25.3084,0,0,1-7.6172,6.8652,17.4238,17.4238,0,0,1-8.6894,2.36,14.1694,14.1694,0,0,1-6.9727-1.502,11.4136,11.4136,0,0,1-4.1836-3.8613,14.6168,14.6168,0,0,1-2.039-5.3643,33.9092,33.9092,0,0,1-.5352-6.0078,63.8211,63.8211,0,0,1,1.0723-11.4785,58.3214,58.3214,0,0,0,1.0722-10.19q0-3.003-1.7167-3.004-2.1475,0-4.9336,4.9346-2.7921,4.938-2.7891,12.8731,0,4.5058.32,9.333.3224,4.828.752,9.7617a2.2,2.2,0,0,1-.752,2.0391,2.8708,2.8708,0,0,1-2.0371.9648H180.53q-2.3643,0-2.7891-2.5742a72.4133,72.4133,0,0,1-1.2876-11.6934q-.2109-6.3252.1074-13.1953.3216-6.8628,1.0728-13.9453.7493-7.0811,2.039-13.9463a2.569,2.569,0,0,1,2.7891-2.36l14.59-.2139q2.3585,0,1.93,2.3594-.4306,2.5752-.9648,5.6865-.5391,3.1128-.9649,5.8994Q197.0513,520.0957,197.2642,519.6621Z"/><path class="cls-1" d="M266.7789,516.873q-1.9307,0-3.6475,2.27a18.6409,18.6409,0,0,0-2.789,5.6191,28.687,28.687,0,0,0-1.2871,7.2373,21.633,21.633,0,0,0,.7509,7.2383,12.3718,12.3718,0,0,0,3.3252,5.6182,8.8831,8.8831,0,0,0,6.4365,2.2695q4.2906,0,8.69-3.8613,4.3961-3.8628,7.6172-13.5176a1.752,1.752,0,0,1,1.8232-1.0723q1.3931,0,1.1807,1.9307a43.3567,43.3567,0,0,1-3.2188,14.8847,35.7369,35.7369,0,0,1-6.9726,10.8614,29.1182,29.1182,0,0,1-9.2256,6.5713,24.5656,24.5656,0,0,1-9.9775,2.2256,21.0332,21.0332,0,0,1-10.2979-2.36,21.6525,21.6525,0,0,1-7.08-6.1143,26.5743,26.5743,0,0,1-4.1845-8.582,35.0754,35.0754,0,0,1-1.3946-9.7627,40.8159,40.8159,0,0,1,1.7168-11.1562,40.0551,40.0551,0,0,1,4.9346-10.9424,30.1685,30.1685,0,0,1,7.9385-8.26,18.1731,18.1731,0,0,1,10.7275-3.3262,13.6974,13.6974,0,0,1,9.2256,3.54q4.0737,3.54,4.0772,9.9765a6.5963,6.5963,0,0,1-1.2881,4.0772,3.7053,3.7053,0,0,1-3.003,1.7158,2.0839,2.0839,0,0,1-2.36-2.3594,16.6473,16.6473,0,0,1,.3213-3.0039Q269.1392,516.8746,266.7789,516.873Z"/><path class="cls-1" d="M307.5406,539.7939a11.6681,11.6681,0,0,0,3.4326,5.2832,9.4749,9.4749,0,0,0,6.4365,2.0479q4.2891,0,8.69-3.8613,4.3946-3.8628,7.6162-13.5176a1.7535,1.7535,0,0,1,1.8242-1.0723q1.393,0,1.18,1.9307a43.3336,43.3336,0,0,1-3.2178,14.8847,36.9713,36.9713,0,0,1-6.8662,10.8614,27.9456,27.9456,0,0,1-9.1181,6.5713,24.5611,24.5611,0,0,1-9.9766,2.2256q-8.8008,0-14.0537-4.3985a23.44,23.44,0,0,1-7.4014-11.1562A35.9628,35.9628,0,0,1,284.691,535.11a41.6377,41.6377,0,0,1,4.0762-14.4824,30.9122,30.9122,0,0,1,9.1181-11.1562,22.0653,22.0653,0,0,1,13.7315-4.3985,15.018,15.018,0,0,1,9.8691,3.56q4.2906,3.561,4.292,10.4561a19.4483,19.4483,0,0,1-5.042,13.2656,20.2069,20.2069,0,0,1-12.7666,6.792C307.6812,539.1465,307.5406,539.3642,307.5406,539.7939Zm-.2148-6.4q6.8641-1.4985,9.6552-6.0068a15.8817,15.8817,0,0,0,2.7891-8.1533,2.4922,2.4922,0,0,0-1.9307-2.6817,5.7864,5.7864,0,0,0-4.3984.8584,12.5658,12.5658,0,0,0-4.5059,5.1485q-2.0419,3.7573-2.2529,10.1914A.5687.5687,0,0,0,307.3258,533.3935Z"/><path class="cls-1" d="M345.7291,504.6435q-.6431,4.506-1.9307,10.1915-1.2876,5.6878-2.8965,11.371-1.61,5.688-3.54,10.835a67.6032,67.6032,0,0,1-4.0762,9.0117q-.4276.6431-1.2881.1074a5.7371,5.7371,0,0,1-1.6084-1.6093,12.5384,12.5384,0,0,1-1.288-2.36,2.5047,2.5047,0,0,1,.1074-2.36,49.8155,49.8155,0,0,0,3.8623-8.5821q1.9307-5.36,3.54-11.5859a96.4089,96.4089,0,0,0,2.36-12.3359,65.9867,65.9867,0,0,0,.5361-10.835c0-.43.3213-.8926.9658-1.3945a7.5592,7.5592,0,0,1,2.252-1.1807,18.3176,18.3176,0,0,1,2.4677-.6435c.7842-.1407,1.25-.07,1.3946.2148a18.11,18.11,0,0,1,0,4.0762c0,.5732.3554.8584,1.0732.8584q2.7847.2167,7.08.8584a26.6815,26.6815,0,0,1,8.26,2.6816,21.53,21.53,0,0,1,6.8662,5.5781q2.8959,3.5406,2.8965,9.5479a39.8,39.8,0,0,1-2.0381,12.4443,40.3569,40.3569,0,0,0-2.0391,12.6582,21.3759,21.3759,0,0,0,.4326,3.97c.2881,1.501.9424,2.252,1.9551,2.252a5.75,5.75,0,0,0,4.2334-2.3594,31.97,31.97,0,0,0,3.7988-5.4717,61.3143,61.3143,0,0,0,3.0371-6.2216q1.3023-3.1085,1.9541-4.8272a1.7762,1.7762,0,0,1,1.8438-1.0732q1.4078,0,1.1973,1.9306a49.62,49.62,0,0,1-2.8067,14.59,41.4939,41.4939,0,0,1-5.8222,10.9424,24.8518,24.8518,0,0,1-7.7647,6.8652,18.1933,18.1933,0,0,1-8.8437,2.36,13.3583,13.3583,0,0,1-6.0411-1.3946,14.2837,14.2837,0,0,1-4.747-3.7549,17.809,17.809,0,0,1-3.0205-5.3632,18.327,18.327,0,0,1-1.0752-6.2227,43.2366,43.2366,0,0,1,.998-8.6895q.9962-4.8265,2.22-9.8691,1.2174-5.0376,2.22-9.8691a43.5287,43.5287,0,0,0,.999-8.69,6.21,6.21,0,0,0-1.7676-4.8271A11.78,11.78,0,0,0,346.8326,504C346.0943,503.7148,345.7291,503.93,345.7291,504.6435Z"/></g></g></svg>