<svg xmlns="http://www.w3.org/2000/svg" viewBox="0 0 473.9546 563.476"><defs><style>.cls-1{fill:#464646;}</style></defs><g id="katman_2" data-name="katman 2"><g id="katman_1-2" data-name="katman 1"><path class="cls-1" d="M30.252,475.2944q-1.9314,0-3.6475,2.2695a18.6433,18.6433,0,0,0-2.7891,5.6191,28.6522,28.6522,0,0,0-1.2876,7.2374,21.6478,21.6478,0,0,0,.751,7.2382,12.3672,12.3672,0,0,0,3.3257,5.6182,8.8831,8.8831,0,0,0,6.4365,2.2695q4.2891,0,8.69-3.8613,4.3946-3.8628,7.6167-13.5176a1.7517,1.7517,0,0,1,1.8232-1.0722q1.3931,0,1.18,1.9306a43.3364,43.3364,0,0,1-3.2183,14.8848A35.74,35.74,0,0,1,42.16,514.7719a29.113,29.113,0,0,1-9.2261,6.5713,24.5577,24.5577,0,0,1-9.9766,2.2256,21.0338,21.0338,0,0,1-10.2983-2.36,21.662,21.662,0,0,1-7.0806-6.1142,26.5944,26.5944,0,0,1-4.1836-8.5821A35.0419,35.0419,0,0,1,0,496.75a40.83,40.83,0,0,1,1.7163-11.1563,40.0415,40.0415,0,0,1,4.9346-10.9424,30.1594,30.1594,0,0,1,7.9385-8.26,18.1722,18.1722,0,0,1,10.7275-3.3262,13.6978,13.6978,0,0,1,9.2261,3.54q4.0729,3.5406,4.0761,9.9766a6.5951,6.5951,0,0,1-1.2871,4.0771,3.7067,3.7067,0,0,1-3.0039,1.7159,2.0837,2.0837,0,0,1-2.36-2.3594,16.6153,16.6153,0,0,1,.3217-3.0039Q32.6116,475.2958,30.252,475.2944Z"/><path class="cls-1" d="M80.8828,507.2631A40.4478,40.4478,0,0,1,71.0137,519.17q-5.5818,4.4-11.1568,4.3984a9.8356,9.8356,0,0,1-8.4751-4.3984,24.2226,24.2226,0,0,1-3.9692-11.0489,48.4565,48.4565,0,0,1,.4292-14.2685,52.8075,52.8075,0,0,1,4.5059-14.2676,33.5017,33.5017,0,0,1,8.3671-11.0488A17.9345,17.9345,0,0,1,72.73,464.1381a15.8475,15.8475,0,0,1,6.5439,1.3946,11.5329,11.5329,0,0,1,5.042,4.3984c.2847.2881.4995.2139.6436-.2149l.6435-2.5742a3.4275,3.4275,0,0,1,3.2183-3.0039q9.8664-.8555,15.0185-6.0078,1.7154-1.7139,3.1114-1.3945,1.3931.3222.5361,3.3252-2.1466,7.9614-4.1836,18.3115a100.5706,100.5706,0,0,0-2.0381,19.41,17.1443,17.1443,0,0,0,.751,5.7158,2.5994,2.5994,0,0,0,2.4673,2.0478,6.4954,6.4954,0,0,0,4.5054-2.0381,20.4435,20.4435,0,0,0,3.7548-4.9345,53.66,53.66,0,0,0,2.7891-5.793q1.1771-2.8961,1.8237-4.6133a1.7521,1.7521,0,0,1,1.8238-1.0722q1.393,0,1.18,1.9306a49.6633,49.6633,0,0,1-2.7891,14.5625,40.8537,40.8537,0,0,1-5.793,10.8653,25.1886,25.1886,0,0,1-7.6162,6.7851,17.6035,17.6035,0,0,1-8.6894,2.33,11.1524,11.1524,0,0,1-9.5479-4.9346,24.5675,24.5675,0,0,1-4.3979-11.1562c0-.2852-.0743-.4629-.2149-.5371C81.168,506.8705,81.0239,506.978,80.8828,507.2631Zm-9.0112-1.7168a5.8959,5.8959,0,0,0,4.3984-2.2695,19.0185,19.0185,0,0,0,3.4331-5.8359,41.1018,41.1018,0,0,0,2.1455-7.8916,49.3558,49.3558,0,0,0,.751-8.4317,3.7547,3.7547,0,0,0-1.0727-2.92,3.7169,3.7169,0,0,0-2.5748-.9717,7.1278,7.1278,0,0,0-4.935,1.9473,16.9147,16.9147,0,0,0-3.647,4.8642,25.7418,25.7418,0,0,0-2.2529,6.376,31.4418,31.4418,0,0,0-.751,6.7022,14.7449,14.7449,0,0,0,1.0728,6.0537A3.5714,3.5714,0,0,0,71.8716,505.5463Z"/><path class="cls-1" d="M133.0156,508.1215q-.6416,7.7227-.6426,17.5928,0,9.8716.8575,21.4551a3.0391,3.0391,0,0,1-1.9512,3.0039,19.5759,19.5759,0,0,0-6.1816,4.1836,25.6045,25.6045,0,0,0-3.252,4.291q-1.1953,2.0376-2.06,3.4336a2.6823,2.6823,0,0,1-2.3843,1.3945c-.5767,0-1.12-.8252-1.6294-2.4678a50.7627,50.7627,0,0,1-1.4077-6.5439q-.6489-4.0782-.9756-9.333-.3224-5.2543-.3252-10.835a288.6548,288.6548,0,0,1,2.1689-34.65,162.0118,162.0118,0,0,1,7.59-33.5771q1.0811-2.7861,3.2519-3.0039a31.948,31.948,0,0,0,8.6446-1.8233,18.1639,18.1639,0,0,0,6.4511-4.1836q1.7139-1.7153,3.2168-1.3945,1.5.3209.43,3.3252-1.0752,3.0074-2.4668,6.6514-1.3974,3.65-2.4668,7.2949c-.1445.4287,0,.4287.4277,0a37.1576,37.1576,0,0,1,6.6524-6.9736,10.2409,10.2409,0,0,1,6.2207-2.253q6.8643,0,10.5137,6.4366a29.9728,29.9728,0,0,1,3.6465,15.0195,73.4567,73.4567,0,0,1-1.2872,14.375h.8594q2.3585,0,5.1485-3.541a20.5865,20.5865,0,0,0,3.8632-8.0449c.1407-.2852.461-.43.9649-.43a3.6407,3.6407,0,0,1,1.6094.43,4.8565,4.8565,0,0,1,1.5019,1.18,1.7357,1.7357,0,0,1,.4277,1.6094q-.6416,3.2183-1.7148,6.7578a24.2638,24.2638,0,0,1-3.0039,6.4366,16.4811,16.4811,0,0,1-4.7207,4.7207,12.283,12.283,0,0,1-6.8652,1.8232H162.84a28.0284,28.0284,0,0,1-6.6523,9.6553,12.36,12.36,0,0,1-8.3672,3.4326,11.5316,11.5316,0,0,1-9.6543-4.3984,27.5791,27.5791,0,0,1-4.9355-11.2637C133.0859,507.478,133.0156,507.5512,133.0156,508.1215Zm12.4453-28.9648a5.7016,5.7016,0,0,0-3.6484,1.3945,12.4314,12.4314,0,0,0-3.0039,3.7549,26.8967,26.8967,0,0,0-2.1445,5.2559,19.8978,19.8978,0,0,0-.8594,5.6865,24.836,24.836,0,0,0,.9668,6.9726q.9639,3.3282,3.7539,3.3252,3.22,0,5.6855-4.0761a27.443,27.443,0,0,0,3.4336-9.1182,23.1623,23.1623,0,0,0,.1075-9.1191Q148.8905,479.1605,145.4609,479.1567Z"/><path class="cls-1" d="M187.7246,463.0649q-.6431,4.5058-1.9307,10.1914-1.2876,5.688-2.8964,11.3711-1.61,5.688-3.54,10.8349a67.5991,67.5991,0,0,1-4.0762,9.0118q-.4276.6431-1.288.1074a5.7363,5.7363,0,0,1-1.6084-1.6094,12.5435,12.5435,0,0,1-1.2881-2.36,2.5049,2.5049,0,0,1,.1074-2.36,49.8176,49.8176,0,0,0,3.8623-8.582q1.9307-5.36,3.54-11.586a96.385,96.385,0,0,0,2.36-12.3359,65.9751,65.9751,0,0,0,.5361-10.835c0-.43.3213-.8925.9659-1.3945a7.5574,7.5574,0,0,1,2.2519-1.1807,18.33,18.33,0,0,1,2.4678-.6435c.7842-.1406,1.25-.07,1.3945.2148a18.11,18.11,0,0,1,0,4.0762c0,.5732.3555.8584,1.0732.8584q2.7847.2167,7.08.8584a26.6806,26.6806,0,0,1,8.26,2.6816,21.5287,21.5287,0,0,1,6.8662,5.5782q2.8961,3.54,2.8965,9.5478a39.8006,39.8006,0,0,1-2.0381,12.4444,40.3588,40.3588,0,0,0-2.0391,12.6582,21.3786,21.3786,0,0,0,.4327,3.97c.288,1.501.9423,2.2519,1.955,2.2519a5.75,5.75,0,0,0,4.2334-2.3593,31.98,31.98,0,0,0,3.7989-5.4717,61.3683,61.3683,0,0,0,3.0371-6.2217q1.3022-3.1085,1.9541-4.8271a1.776,1.776,0,0,1,1.8437-1.0733q1.4077,0,1.1973,1.9307a49.6158,49.6158,0,0,1-2.8067,14.59,41.4939,41.4939,0,0,1-5.8222,10.9424,24.8505,24.8505,0,0,1-7.7647,6.8652,18.1927,18.1927,0,0,1-8.8437,2.36,13.3591,13.3591,0,0,1-6.041-1.3945,14.2866,14.2866,0,0,1-4.7471-3.7549,17.8138,17.8138,0,0,1-3.02-5.3633,18.327,18.327,0,0,1-1.0752-6.2227,43.2422,43.2422,0,0,1,.998-8.6894q.9961-4.8267,2.22-9.8692,1.2172-5.0376,2.22-9.8691a43.5271,43.5271,0,0,0,.999-8.69,6.21,6.21,0,0,0-1.7676-4.8271,11.7814,11.7814,0,0,0-4.8535-2.4678C188.09,462.1362,187.7246,462.351,187.7246,463.0649Z"/><path class="cls-1" d="M251.2305,460.061q-2.1476,7.9409-4.1836,18.2373a99.5437,99.5437,0,0,0-2.0391,19.31,24.738,24.738,0,0,0,.751,6.4365q.75,2.792,2.4678,2.789,2.1416,0,4.1836-2.3593a32.0649,32.0649,0,0,0,3.7548-5.4717,61.5826,61.5826,0,0,0,3.0039-6.2217q1.2876-3.1085,1.9307-4.8271a1.7521,1.7521,0,0,1,1.8242-1.0733q1.3917,0,1.18,1.9307a49.9826,49.9826,0,0,1-2.789,14.59,41.689,41.689,0,0,1-5.793,10.9424,24.8148,24.8148,0,0,1-7.7236,6.8652,18.0232,18.0232,0,0,1-8.7969,2.36,10.5569,10.5569,0,0,1-6.0078-1.7158,15.1,15.1,0,0,1-4.3985-4.6133,23.4007,23.4007,0,0,1-2.789-6.544,28.39,28.39,0,0,1-.9659-7.2949,154.9253,154.9253,0,0,1,1.1807-18.2363,132.6457,132.6457,0,0,1,3.3252-18.0225,3.428,3.428,0,0,1,3.2188-3.0039q9.8657-.8555,15.0185-6.0078,1.7139-1.7139,3.1113-1.3945Q252.086,457.058,251.2305,460.061Zm-2.1455-30.252a2.6294,2.6294,0,0,1,2.038,1.3955q.9654,1.3975.9659,5.2559a19.3315,19.3315,0,0,1-.8584,5.1494,27.9227,27.9227,0,0,1-2.4678,5.9,17.118,17.118,0,0,1-4.0762,4.9346,8.6587,8.6587,0,0,1-5.6855,2.0381,5.6057,5.6057,0,0,1-4.7207-1.9307,7.4485,7.4485,0,0,1-1.502-4.7207,7.2908,7.2908,0,0,1,1.0733-3.7539,7.51,7.51,0,0,1,3.2177-2.8965,19.522,19.522,0,0,0,5.042-3.6475,23.9042,23.9042,0,0,0,2.8965-3.6474q1.0724-1.7154,1.9317-2.8965A2.5708,2.5708,0,0,1,249.085,429.809Z"/><path class="cls-1" d="M289.6318,475.2944q-1.9307,0-3.6474,2.2695a18.6433,18.6433,0,0,0-2.7891,5.6191,28.6878,28.6878,0,0,0-1.2871,7.2374,21.6323,21.6323,0,0,0,.751,7.2382,12.37,12.37,0,0,0,3.3252,5.6182,8.8827,8.8827,0,0,0,6.4365,2.2695q4.29,0,8.69-3.8613,4.3959-3.8628,7.6171-13.5176a1.7522,1.7522,0,0,1,1.8233-1.0722q1.3931,0,1.1806,1.9306a43.3573,43.3573,0,0,1-3.2187,14.8848,35.74,35.74,0,0,1-6.9727,10.8613,29.1152,29.1152,0,0,1-9.2255,6.5713,24.564,24.564,0,0,1-9.9776,2.2256,21.0328,21.0328,0,0,1-10.2978-2.36,21.65,21.65,0,0,1-7.08-6.1142,26.576,26.576,0,0,1-4.1846-8.5821A35.0788,35.0788,0,0,1,259.38,496.75a40.8127,40.8127,0,0,1,1.7168-11.1563,40.0533,40.0533,0,0,1,4.9345-10.9424,30.17,30.17,0,0,1,7.9385-8.26,18.1727,18.1727,0,0,1,10.7276-3.3262,13.6975,13.6975,0,0,1,9.2256,3.54q4.0737,3.5406,4.0771,9.9766a6.5958,6.5958,0,0,1-1.2881,4.0771,3.7051,3.7051,0,0,1-3.0029,1.7159,2.0839,2.0839,0,0,1-2.36-2.3594,16.6564,16.6564,0,0,1,.3213-3.0039Q291.9923,475.2958,289.6318,475.2944Z"/><path class="cls-1" d="M364.2939,490.7426a41.4948,41.4948,0,0,1-1.5019,6.4365,29.9913,29.9913,0,0,1-2.7891,6.3291,17.84,17.84,0,0,1-4.291,4.9346,9.3886,9.3886,0,0,1-6.0078,2.0381,16.51,16.51,0,0,1-3.4326-.3213c-1.0029-.2148-2.0049-.4629-3.0039-.751A32.4679,32.4679,0,0,1,334.042,519.6a21.2882,21.2882,0,0,1-12.6592,3.9688q-5.581,0-10.19-5.4707-4.6113-5.4713-4.6133-15.126a52.4569,52.4569,0,0,1,2.4678-16.6279,40.7426,40.7426,0,0,1,6.3291-12.3369,30.0421,30.0421,0,0,1,8.4746-7.6162,18.0515,18.0515,0,0,1,9.1182-2.6827q9.0117,0,13.0878,6.33a27.347,27.347,0,0,1,4.0762,15.126,41.2869,41.2869,0,0,1-.5361,6.543,48.6127,48.6127,0,0,1-1.6094,6.7587,3.3087,3.3087,0,0,0,3.0039,1.9307q2.3585,0,4.8281-3.8613a36.4108,36.4108,0,0,0,3.9688-8.582c.1406-.2852.4629-.43.9658-.43a3.6365,3.6365,0,0,1,1.6084.43,4.8464,4.8464,0,0,1,1.502,1.18A1.7319,1.7319,0,0,1,364.2939,490.7426Zm-33.6845,16.0908q3.6446,0,6.4365-3.8613a6.4647,6.4647,0,0,1-.2148-1.9316,11.44,11.44,0,0,1,1.5019-6.2217,5.7042,5.7042,0,0,1,3.4326-2.7891,37.0146,37.0146,0,0,0,1.0733-7.9385,16.8812,16.8812,0,0,0-1.1807-6.7587,4.0678,4.0678,0,0,0-3.9687-2.6817q-4.295,0-7.4024,5.042a34.7325,34.7325,0,0,0-4.3984,11.05,27.673,27.673,0,0,0-.3213,11.0488Q326.5327,506.8364,330.6094,506.8334Z"/><path class="cls-1" d="M371.8008,463.0649q-.6431,4.5058-1.9307,10.1914-1.2876,5.688-2.8965,11.3711-1.61,5.688-3.54,10.8349a67.5991,67.5991,0,0,1-4.0762,9.0118q-.4276.6431-1.2881.1074a5.7389,5.7389,0,0,1-1.6084-1.6094,12.5375,12.5375,0,0,1-1.288-2.36,2.5049,2.5049,0,0,1,.1074-2.36,49.8176,49.8176,0,0,0,3.8623-8.582q1.9307-5.36,3.54-11.586a96.4023,96.4023,0,0,0,2.36-12.3359,65.9862,65.9862,0,0,0,.5361-10.835c0-.43.3213-.8925.9658-1.3945a7.5592,7.5592,0,0,1,2.252-1.1807,18.3326,18.3326,0,0,1,2.4677-.6435c.7842-.1406,1.25-.07,1.3946.2148a18.11,18.11,0,0,1,0,4.0762c0,.5732.3554.8584,1.0732.8584q2.7848.2167,7.08.8584a26.6815,26.6815,0,0,1,8.26,2.6816,21.53,21.53,0,0,1,6.8662,5.5782q2.8959,3.54,2.8965,9.5478a39.8006,39.8006,0,0,1-2.0381,12.4444,40.3559,40.3559,0,0,0-2.0391,12.6582,21.3777,21.3777,0,0,0,.4326,3.97c.2881,1.501.9424,2.2519,1.9551,2.2519a5.75,5.75,0,0,0,4.2334-2.3593,31.9743,31.9743,0,0,0,3.7988-5.4717,61.326,61.326,0,0,0,3.0371-6.2217q1.3023-3.1085,1.9541-4.8271a1.7761,1.7761,0,0,1,1.8438-1.0733q1.4077,0,1.1973,1.9307a49.6191,49.6191,0,0,1-2.8067,14.59,41.4939,41.4939,0,0,1-5.8222,10.9424,24.8516,24.8516,0,0,1-7.7647,6.8652,18.1933,18.1933,0,0,1-8.8437,2.36,13.36,13.36,0,0,1-6.0411-1.3945,14.2863,14.2863,0,0,1-4.747-3.7549,17.81,17.81,0,0,1-3.02-5.3633,18.327,18.327,0,0,1-1.0752-6.2227,43.2349,43.2349,0,0,1,.998-8.6894q.9961-4.8267,2.22-9.8692,1.2174-5.0376,2.22-9.8691a43.5271,43.5271,0,0,0,.999-8.69,6.21,6.21,0,0,0-1.7676-4.8271,11.7821,11.7821,0,0,0-4.8535-2.4678C372.166,462.1362,371.8008,462.351,371.8008,463.0649Z"/><path class="cls-1" d="M429.9434,478.0834a41.4649,41.4649,0,0,1,8.4746-10.19,16.2142,16.2142,0,0,1,10.8349-4.3984q5.7935,0,7.8321,4.0761a21.3836,21.3836,0,0,1,2.038,9.6553,53.781,53.781,0,0,1-.43,6.65q-.4321,3.435-.9649,6.6514-.5391,3.2182-.9658,5.9a28.0558,28.0558,0,0,0-.4287,4.1836q0,5.3656,3.0029,5.3642,1.7154,0,3.54-2.2529a33.48,33.48,0,0,0,3.4335-5.2569q1.6085-3.0014,2.8965-6.0078a42.5483,42.5483,0,0,0,1.7159-4.5048,1.752,1.752,0,0,1,1.8242-1.0733q1.393,0,1.18,1.9307a52.4968,52.4968,0,0,1-2.6817,14.59,39.4676,39.4676,0,0,1-5.6855,10.9424,25.2976,25.2976,0,0,1-7.6172,6.8652,17.4245,17.4245,0,0,1-8.69,2.36,14.1705,14.1705,0,0,1-6.9726-1.502,11.4277,11.4277,0,0,1-4.1836-3.8613,14.6157,14.6157,0,0,1-2.0381-5.3643,33.91,33.91,0,0,1-.5361-6.0078,63.9219,63.9219,0,0,1,1.0722-11.4785,58.2368,58.2368,0,0,0,1.0733-10.19q0-3.003-1.7168-3.0039-2.1475,0-4.9346,4.9346-2.7906,4.9379-2.7891,12.873,0,4.5059.3213,9.333t.751,9.7617a2.2017,2.2017,0,0,1-.751,2.0391,2.8727,2.8727,0,0,1-2.0381.9648H413.209q-2.3643,0-2.79-2.5742a72.4929,72.4929,0,0,1-1.2871-11.6933q-.2109-6.3252.1075-13.1954.3222-6.8628,1.0732-13.9453.7485-7.081,2.0381-13.9463a2.569,2.569,0,0,1,2.789-2.36l14.59-.2139q2.3585,0,1.9307,2.3594-.4321,2.5752-.9659,5.6865-.5376,3.1128-.9648,5.8994C429.73,478.3725,429.8,478.3725,429.9434,478.0834Z"/><path class="cls-1" d="M136.13,110.4222c10.4-18.618,21.7115-43.9005,51.671-58.5621,19.093-9.3437,40.5289-10.4415,56.7305,3.98,65.0239,57.881-2.2745,233.7039,51.8241,297.9322,22.9228-29.0689,31.9853-47.2181,54.6048-61.768,30.1247-19.3776,55.1865-9.94,62.5667,12.3954,13.72,41.5232-38.57,110.6327-110.5737,79.91-10.42-4.4463-24.1261,44.0276-95.7349,27.25-5.439-1.2744-10.1608-7.2007-8.2332-13.12,3.1891-9.7936,12.6472-6.5485,23.4013-4.3841,37.3148,7.51,62.3113-22.18,60.27-24.6556-52.4076-63.5718-15.6779-205.0146-33.97-269.3615C226.3,21.2929,139.9576,86.2124,140.2073,189.7612c.4891,202.8236,3.1768,194.189-7.8906,196.1278-5.9382,1.04-11.8966-2.966-11.9575-14.3479-1.3556-253.612,8.4632-325.7909-50.95-280.473-8.9176,6.802-18.8907-3.3826-12.6734-11.9366C67.0532,64.936,86.23,57.4627,98.6025,58.8261,124.058,61.6313,129.6795,81.9791,136.13,110.4222ZM312.54,366.5483c83.0436,32.5028,109.0255-92.8866,54.2224-60.4582C343.7946,319.6805,330.147,340.7672,312.54,366.5483Z"/><polygon class="cls-1" points="301.757 31.108 332.865 39.484 301.757 47.859 293.381 78.967 285.005 47.859 253.897 39.484 285.005 31.108 293.381 0 301.757 31.108"/><polygon class="cls-1" points="211.897 325.194 243.005 333.569 211.897 341.945 203.522 373.053 195.146 341.945 164.038 333.569 195.146 325.194 203.522 294.086 211.897 325.194"/><polygon class="cls-1" points="428.006 242.513 452.678 249.156 428.006 255.799 421.363 280.471 414.72 255.799 390.048 249.156 414.72 242.513 421.363 217.841 428.006 242.513"/><polygon class="cls-1" points="54.953 170.353 79.625 176.996 54.953 183.639 48.31 208.311 41.667 183.639 16.995 176.996 41.667 170.353 48.31 145.681 54.953 170.353"/><polygon class="cls-1" points="321.808 182.607 346.48 189.25 321.808 195.892 315.165 220.564 308.522 195.892 283.851 189.25 308.522 182.607 315.165 157.935 321.808 182.607"/><path class="cls-1" d="M445.1893,145.6813c0,13.5005-20.4227,13.52-20.4227,0C424.7666,132.1808,445.1893,132.1617,445.1893,145.6813Z"/><path class="cls-1" d="M313.123,415.26c0,13.5-20.4226,13.52-20.4226,0C292.7,401.7593,313.123,401.74,313.123,415.26Z"/><path class="cls-1" d="M166.08,404.3677c0,13.5-20.4226,13.52-20.4226,0C145.6576,390.8672,166.08,390.8481,166.08,404.3677Z"/><path class="cls-1" d="M393.452,69.4369c0,13.5005-20.4226,13.52-20.4226,0C373.0294,55.9364,393.452,55.9172,393.452,69.4369Z"/><path class="cls-1" d="M182.4183,220.5642c0,13.5-20.4226,13.52-20.4226,0C161.9957,207.0637,182.4183,207.0446,182.4183,220.5642Z"/><path class="cls-1" d="M100.7279,343.1c0,13.5-20.4226,13.52-20.4226,0C80.3053,329.5994,100.7279,329.58,100.7279,343.1Z"/><path class="cls-1" d="M224.6251,156.5734c0,13.5005-20.4227,13.52-20.4227,0C204.2024,143.0729,224.6251,143.0537,224.6251,156.5734Z"/><path class="cls-1" d="M53.0751,280.4705c0,13.5-20.4226,13.52-20.4226,0C32.6525,266.97,53.0751,266.9509,53.0751,280.4705Z"/><path class="cls-1" d="M191.9489,14.9766c0,13.5005-20.4226,13.52-20.4226,0C171.5263,1.4761,191.9489,1.4569,191.9489,14.9766Z"/></g></g></svg>