<svg xmlns="http://www.w3.org/2000/svg" viewBox="0 0 432.4909 530.3834"><defs><style>.cls-1{fill:#464646;}</style></defs><g id="katman_2" data-name="katman 2"><g id="katman_1-2" data-name="katman 1"><path class="cls-1" d="M152.993,438.984q-2.3635,7.941-4.6128,17.0566-2.2529,9.1232-3.9692,18.13-1.72,9.0117-2.79,17.0576a104.42,104.42,0,0,0-1.0727,13.4092,16.9713,16.9713,0,0,0,.751,5.6856,2.596,2.596,0,0,0,2.4673,2.0381,6.4976,6.4976,0,0,0,4.5058-2.0381,20.4409,20.4409,0,0,0,3.7544-4.9346,53.7593,53.7593,0,0,0,2.79-5.793q1.1762-2.8959,1.8237-4.6132a1.7517,1.7517,0,0,1,1.8232-1.0723q1.3931,0,1.18,1.9307a52.1841,52.1841,0,0,1-2.6816,14.5625,38.711,38.711,0,0,1-5.6861,10.8652,25.1873,25.1873,0,0,1-7.6162,6.7851,17.6035,17.6035,0,0,1-8.6894,2.33,11.1731,11.1731,0,0,1-6.1148-1.6963,15.5859,15.5859,0,0,1-4.6128-4.5595,21.3058,21.3058,0,0,1-2.8965-6.4659,27.8007,27.8007,0,0,1-.9658-7.2314,159.6332,159.6332,0,0,1,.9658-18.2373q.9654-8.3672,2.4673-16.0908,1.4985-7.7241,3.4326-15.02,1.9314-7.29,3.8623-15.0185a3.4265,3.4265,0,0,1,3.2183-3.0029,31.7151,31.7151,0,0,0,8.582-1.8243,18.2028,18.2028,0,0,0,6.4366-4.1836q1.7145-1.7152,3.1108-1.3945Q153.8495,435.9812,152.993,438.984Z"/><path class="cls-1" d="M178.3089,505.03a11.6642,11.6642,0,0,0,3.4327,5.2832,9.4746,9.4746,0,0,0,6.4365,2.0479q4.29,0,8.6894-3.8614,4.3953-3.8628,7.6167-13.5175a1.7524,1.7524,0,0,1,1.8238-1.0723q1.3931,0,1.18,1.9307a43.3567,43.3567,0,0,1-3.2182,14.8847,36.9944,36.9944,0,0,1-6.8657,10.8613,27.9515,27.9515,0,0,1-9.1187,6.5713,24.5577,24.5577,0,0,1-9.9766,2.2256q-8.8,0-14.0532-4.3984a23.4374,23.4374,0,0,1-7.4023-11.1563,35.9871,35.9871,0,0,1-1.3946-14.4824,41.6534,41.6534,0,0,1,4.0767-14.4824,30.9039,30.9039,0,0,1,9.1187-11.1563,22.063,22.063,0,0,1,13.7309-4.3984,15.02,15.02,0,0,1,9.87,3.56q4.2891,3.561,4.2911,10.456a19.446,19.446,0,0,1-5.042,13.2657,20.2031,20.2031,0,0,1-12.7657,6.7919C178.45,504.3824,178.3089,504.6,178.3089,505.03Zm-.2148-6.4q6.8643-1.4985,9.6553-6.0068a15.887,15.887,0,0,0,2.789-8.1533,2.492,2.492,0,0,0-1.9311-2.6817,5.7877,5.7877,0,0,0-4.3985.8584,12.5678,12.5678,0,0,0-4.5053,5.1485q-2.0421,3.7572-2.253,10.1914A.5687.5687,0,0,0,178.0941,498.63Z"/><path class="cls-1" d="M260.0521,497.5573a41.7544,41.7544,0,0,1-1.5019,6.4365,30.047,30.047,0,0,1-2.7891,6.3291,17.8577,17.8577,0,0,1-4.291,4.9345,9.39,9.39,0,0,1-6.0078,2.0381,16.5272,16.5272,0,0,1-3.4336-.3213c-1.002-.2148-2.0039-.4628-3.0039-.7509A32.4661,32.4661,0,0,1,229.8,526.4147a21.2888,21.2888,0,0,1-12.6592,3.9687q-5.5818,0-10.1914-5.4707-4.6114-5.4711-4.6128-15.126a52.4861,52.4861,0,0,1,2.4673-16.6279,40.752,40.752,0,0,1,6.3295-12.3369,30.0329,30.0329,0,0,1,8.4751-7.6162,18.0529,18.0529,0,0,1,9.1182-2.6826q9.0117,0,13.0869,6.33a27.34,27.34,0,0,1,4.0762,15.126,41.2717,41.2717,0,0,1-.5352,6.543,48.7419,48.7419,0,0,1-1.6093,6.7588,3.3087,3.3087,0,0,0,3.0039,1.9306q2.3583,0,4.8281-3.8613a36.4066,36.4066,0,0,0,3.9687-8.582c.1407-.2852.4629-.43.9649-.43a3.6407,3.6407,0,0,1,1.6094.43,4.8583,4.8583,0,0,1,1.5019,1.18A1.7319,1.7319,0,0,1,260.0521,497.5573Zm-33.6855,16.0908q3.6459,0,6.4365-3.8614a6.5,6.5,0,0,1-.2139-1.9316,11.4391,11.4391,0,0,1,1.502-6.2217,5.704,5.704,0,0,1,3.4326-2.789,37.0152,37.0152,0,0,0,1.0732-7.9385,16.9009,16.9009,0,0,0-1.1806-6.7588,4.0691,4.0691,0,0,0-3.97-2.6816q-4.2934,0-7.4013,5.0419a34.7333,34.7333,0,0,0-4.3985,11.05,27.6905,27.6905,0,0,0-.3222,11.0488Q222.29,513.651,226.3666,513.6481Z"/><path class="cls-1" d="M132.3669,178.5763c-6.1818-34.4615-14.0745-67.9421-5.6031-103.9325,17.7725-75.5065,113.69-100.9433,158.07-42.4923,33.8154,44.5359,29.5127,108.2452,4.9819,159.4871-20.7471,43.3384-45.9938,80.6894-58.1451,122.7658-32.4654,112.4173,61.71,129.2231,90.9925,72.0673,4.7366-9.2451,8.3716-19.5547,18.1458-16.1529,5.0981,1.7744,8.9372,8.3019,5.57,15.7068-43.9473,96.6419-184.0325,59.6143-129.6055-93.22,27.2794-76.6022,106.9048-158.2481,55.8247-241.8928C238.3549-5.1615,148.84,22.0182,144.5,95.566c-3.2555,55.1655,15.8707,77.4579,12.1811,134.2705-4.6457,71.5365-105.7116,74.2659-117.23,6.8078C31.863,192.2089,76.5522,147.3831,132.3669,178.5763ZM97.4811,264.76a38.3278,38.3278,0,0,0,38.2632-38.2856c-.0507-20.8435-17.7471-38.835-38.5756-38.0956C46.1306,190.1907,47.7355,264.6361,97.4811,264.76Z"/><polygon class="cls-1" points="397.965 278.916 430.364 287.639 397.965 296.363 389.242 328.761 380.519 296.363 348.12 287.639 380.519 278.916 389.242 246.517 397.965 278.916"/><polygon class="cls-1" points="220.715 164.058 253.114 172.781 220.715 181.504 211.991 213.903 203.268 181.504 170.869 172.781 203.268 164.058 211.991 131.659 220.715 164.058"/><polygon class="cls-1" points="88.84 358.324 121.239 367.047 88.84 375.771 80.117 408.169 71.394 375.771 38.995 367.047 71.394 358.324 80.117 325.925 88.84 358.324"/><polygon class="cls-1" points="387.652 110.56 413.348 117.479 387.652 124.397 380.734 150.093 373.815 124.397 348.12 117.479 373.815 110.56 380.734 84.865 387.652 110.56"/><polygon class="cls-1" points="77.11 77.946 102.805 84.865 77.11 91.783 70.191 117.479 63.273 91.783 37.577 84.865 63.273 77.946 70.191 52.251 77.11 77.946"/><path class="cls-1" d="M211.2825,59.3407c0,14.0607-21.27,14.0807-21.27,0C190.0124,45.28,211.2825,45.26,211.2825,59.3407Z"/><path class="cls-1" d="M328.9767,40.9067c0,14.0607-21.27,14.0806-21.27,0C307.7067,26.846,328.9767,26.8261,328.9767,40.9067Z"/><path class="cls-1" d="M21.27,297.5652c0,14.0607-21.27,14.0807-21.27,0C0,283.5045,21.27,283.4846,21.27,297.5652Z"/><path class="cls-1" d="M21.27,161.4369c0,14.0608-21.27,14.0807-21.27,0C0,147.3762,21.27,147.3563,21.27,161.4369Z"/><path class="cls-1" d="M190.0124,440.7835c0,14.0608-21.27,14.0807-21.27,0C168.7424,426.7228,190.0124,426.7029,190.0124,440.7835Z"/><path class="cls-1" d="M336.0667,226.6651c0,14.0607-21.27,14.0806-21.27,0C314.7967,212.6044,336.0667,212.5845,336.0667,226.6651Z"/><path class="cls-1" d="M432.4909,213.9031c0,14.0607-21.27,14.0806-21.27,0C411.2209,199.8424,432.4909,199.8224,432.4909,213.9031Z"/><path class="cls-1" d="M287.8546,357.1214c0,14.0607-21.27,14.0806-21.27,0C266.5846,343.0607,287.8546,343.0407,287.8546,357.1214Z"/><path class="cls-1" d="M155.98,325.9253c0,14.0607-21.27,14.0806-21.27,0C134.71,311.8646,155.98,311.8447,155.98,325.9253Z"/></g></g></svg>