<?xml version="1.0" encoding="UTF-8"?>
<svg id="katman_1" data-name="katman 1" xmlns="http://www.w3.org/2000/svg" viewBox="0 0 700 700">
  <defs>
    <style>
      .cls-1 {
        fill: #464646;
        stroke-width: 0px;
      }

      .cls-2 {
        font-family: Montserrat-Bold, Montserrat;
        font-size: 16.84px;
        font-weight: 700;
        isolation: isolate;
      }
    </style>
  </defs>
  <path class="cls-1" d="m443.95,275.65c15.94,0,118.76-1.03,120.93-.74,11.42,1.52,11.59,16.55.97,19.06-3.89.92-145.52,1.48-156.82,1.84-9.1.29-9.7-11.27-4.49-14.78,1.27-.85,2.64-1.55,3.94-2.35,36.95-22.52,53.26-67.1,39.39-107.66-33.45-97.81-178.28-73.42-178.01,28.74.09,34.09,15.04,60.16,43.5,78.65,7.55,4.9,9.27,9.2,6.41,17.61-184.14,0-175.08,2.98-176.63-5.18-.9-4.75,1.63-9.54,6.2-10.96,4.24-1.32,117.94-1.86,130.26-2.52-1.75-2.48-2.86-4.3-4.2-5.93-69.45-84.86,11.95-210.67,119.32-176.88,69.33,21.82,106.49,103.79,49.21,181.11Z"/>
  <path class="cls-1" d="m358.83,411.19c-205.79,0-193.36.16-196.57-.29-10.07-1.41-11.14-15.11-2.01-18.23,5.11-1.74-18.61-1.33,386.09-1.29,4.71,0,18.13-1.21,17.72,10.52-.47,13.27.89,9.29-205.22,9.29Z"/>
  <polygon class="cls-1" points="225.55 109.97 258.5 118.84 225.55 127.71 216.68 160.66 207.81 127.71 174.86 118.84 207.81 109.97 216.68 77.02 225.55 109.97"/>
  <polygon class="cls-1" points="338.04 210.92 370.99 219.79 338.04 228.66 329.17 261.61 320.3 228.66 287.35 219.79 320.3 210.92 329.17 177.97 338.04 210.92"/>
  <polygon class="cls-1" points="461.67 75.75 487.81 82.78 461.67 89.82 454.64 115.95 447.6 89.82 421.47 82.78 447.6 75.75 454.64 49.61 461.67 75.75"/>
  <polygon class="cls-1" points="555.41 205.54 581.55 212.58 555.41 219.61 548.38 245.75 541.34 219.61 515.21 212.58 541.34 205.54 548.38 179.41 555.41 205.54"/>
  <polygon class="cls-1" points="401.1 335.34 427.24 342.37 401.1 349.41 394.07 375.54 387.03 349.41 360.9 342.37 387.03 335.34 394.07 309.2 401.1 335.34"/>
  <polygon class="cls-1" points="278.52 449.27 304.65 456.3 278.52 463.34 271.48 489.47 264.45 463.34 238.31 456.3 264.45 449.27 271.48 423.13 278.52 449.27"/>
  <path class="cls-1" d="m164.04,208.25c0,14.3-21.63,14.32-21.63,0s21.63-14.32,21.63,0Z"/>
  <path class="cls-1" d="m301.05,65.48c0,14.3-21.63,14.32-21.63,0s21.63-14.32,21.63,0Z"/>
  <path class="cls-1" d="m162.6,325.07c0,14.3-21.63,14.32-21.63,0s21.63-14.32,21.63,0Z"/>
  <path class="cls-1" d="m510.16,166.43c0,14.3-21.63,14.32-21.63,0s21.63-14.32,21.63,0Z"/>
  <path class="cls-1" d="m266.44,364c0,14.3-21.63,14.32-21.63,0s21.63-14.32,21.63,0Z"/>
  <path class="cls-1" d="m573.61,346.7c0,14.3-21.63,14.32-21.63,0s21.63-14.32,21.63,0Z"/>
  <path class="cls-1" d="m393.34,493.8c0,14.3-21.63,14.32-21.63,0s21.63-14.32,21.63,0Z"/>
  <path class="cls-1" d="m498.62,457.74c0,14.3-21.63,14.32-21.63,0s21.63-14.32,21.63,0Z"/>
  <path class="cls-1" d="m404.88,172.2c0,14.3-21.63,14.32-21.63,0s21.63-14.32,21.63,0Z"/>
  <path class="cls-1" d="m233.27,251.52c0,14.3-21.63,14.32-21.63,0s21.63-14.32,21.63,0Z"/>
  <path class="cls-1" d="m358.65,571c8.45,8.44,9.32,18.33,5.76,28.98-3.59,10.77-18.74,15.14-18.78,6.38-.11-24.48.97-42.45,2.2-65.27.65-12,29.01,4.31,10.81,29.91Zm-6.77,33.53c8.49-2.16,10.34-15.22,7.04-23.37-.51-1.27-3.9-7.58-5.86-5.98-1.24,1.01-.97.87-1.41,28.23,0,.27.11.53.23,1.11Zm1.41-61.56c-.56,8.58-.8,16.63-.76,24.74,4.68-3.34,6.82-7.85,6.2-13.39-.46-4.12-.86-8.45-5.44-11.34Z"/>
  <path class="cls-1" d="m403.56,591.2c-.01.05-3.38,15.85-3.53,16.22-1.21,2.94-4.78,2.18-5.06-.64-.2-2.01,10.05-60.32,14.64-67.75,1.78-2.88,5.83-2.42,6.87,3.53,3.38,19.29,2.44,11.29,8.12,64.19.57,5.27-5.32,6.13-5.93.44-.95-8.77-.86-9.25-1.54-14.04-4.46-.97-8.83-2.05-13.57-1.95Zm8.34-38.88c-3.24,10.88-5.59,21.89-7.31,33.12l11.96,1.46c-1.05-11.77-2.47-23.2-4.65-34.58Z"/>
  <path class="cls-1" d="m377.53,574.67c0,33.73.09,32.7-.21,34.22-.59,3.05-4.86,3.11-5.51.03-.09-.42-.23,4.54-.06-66.71,0-3.31,1.25-4.49,4.57-4.83,14.02-1.42,18.39,20.46,8.38,31.49-1.24,1.37-1.5,2.47-1.04,4.18.08.3,8.79,32.83,8.84,34,.13,3.39-3.92,4.19-5.31,1.66-.98-1.79-.84-.91-8.85-34.2l-.81.16Zm.4-8.6c3.21-.28,8.72-8.24,4.93-19.25-1.22-3.53-3.98-3.73-5.39-3.97l.46,23.21Z"/>
  <path class="cls-1" d="m326.94,602.53v-58.48c-1.37-.03-2.82,0-4.26-.11-4.47-.38-3.84-3.85-1.99-4.77,1.39-.69,2.37-.65,14.94-1.31,3.24-.17,4.56,1.11,4.57,2.84.02,3.23-4.12,2.81-5.14,2.9-2.97.26-2.05-5.83-2.05,58.77.23.01,6.88.29,7.12.33,2.89.48,3.22,4.38.2,5.36-.81.26-14.44-.09-14.49-.09-2.32-.06-4.57-.95-4.29-3.24.33-2.64,3.32-2.19,5.38-2.19Z"/>
  <path class="cls-1" d="m304.35,601.63c15.56,0,9.34-.14,10.85-.07,2.84.13,3.81,3.87,1.33,5.21-1.87,1.01-3.61.94-12.94,1.05-4.71.05-5.43-2.56-5.44-6.91-.1-70.86-.46-69.34-.2-70.95.51-3.14,4.52-2.86,4.98-.14,1.08,6.45,1.12,66.91,1.41,71.81Z"/>
</svg>
