<svg xmlns="http://www.w3.org/2000/svg" viewBox="0 0 422.8491 576.0091"><defs><style>.cls-1{fill:#464646;}</style></defs><g id="katman_2" data-name="katman 2"><g id="katman_1-2" data-name="katman 1"><path class="cls-1" d="M92.9031,520.6546q-.643,7.7228-.6436,17.5928,0,9.8717.8584,21.4551a3.0391,3.0391,0,0,1-1.9512,3.0039,19.56,19.56,0,0,0-6.1816,4.1836,25.61,25.61,0,0,0-3.252,4.291q-1.1967,2.0376-2.0615,3.4336a2.68,2.68,0,0,1-2.3838,1.3945c-.5766,0-1.12-.8252-1.6294-2.4678a50.7968,50.7968,0,0,1-1.4077-6.5439q-.6489-4.0781-.9756-9.333-.3222-5.2543-.3252-10.835a288.6567,288.6567,0,0,1,2.169-34.65,162.1081,162.1081,0,0,1,7.59-33.5771q1.0811-2.7861,3.252-3.0039a31.9541,31.9541,0,0,0,8.6455-1.8233,18.1668,18.1668,0,0,0,6.45-4.1835q1.7145-1.7154,3.2182-1.3946,1.4986.3209.4292,3.3252-1.0766,3.0074-2.4677,6.6514-1.3975,3.65-2.4673,7.2949-.2161.643.4292,0a37.1539,37.1539,0,0,1,6.6514-6.9736,10.2432,10.2432,0,0,1,6.2216-2.253q6.8643,0,10.5132,6.4366a29.9628,29.9628,0,0,1,3.6475,15.02,73.5728,73.5728,0,0,1-1.2871,14.375h.8579q2.3583,0,5.1494-3.541a20.5714,20.5714,0,0,0,3.8618-8.0449c.1411-.2852.4629-.43.9653-.43a3.6383,3.6383,0,0,1,1.6094.43,4.8568,4.8568,0,0,1,1.502,1.18,1.733,1.733,0,0,1,.4292,1.6094q-.6438,3.2183-1.7168,6.7578a24.216,24.216,0,0,1-3.0034,6.4366,16.491,16.491,0,0,1-4.72,4.7207,12.2824,12.2824,0,0,1-6.8657,1.8232h-1.2871a28.0135,28.0135,0,0,1-6.6514,9.6553,12.3616,12.3616,0,0,1-8.3676,3.4326,11.5347,11.5347,0,0,1-9.6548-4.3984A27.5837,27.5837,0,0,1,93.1179,520.44C92.9739,520.0111,92.9031,520.0843,92.9031,520.6546ZM105.3474,491.69a5.6955,5.6955,0,0,0-3.6475,1.3945,12.4177,12.4177,0,0,0-3.0039,3.7549,26.8362,26.8362,0,0,0-2.1455,5.2559,19.9334,19.9334,0,0,0-.8579,5.6865,24.872,24.872,0,0,0,.9653,6.9726q.9654,3.3282,3.7549,3.3252,3.2182,0,5.6856-4.0761a27.422,27.422,0,0,0,3.4326-9.1182,23.1546,23.1546,0,0,0,.1074-9.1191Q108.7786,491.6937,105.3474,491.69Z"/><path class="cls-1" d="M160.9138,472.5941q-2.1474,7.9408-4.1841,18.2373a99.5855,99.5855,0,0,0-2.0381,19.31,24.7374,24.7374,0,0,0,.751,6.4365q.7493,2.792,2.4673,2.789,2.1423,0,4.1836-2.3593a32.0423,32.0423,0,0,0,3.7549-5.4717,61.7114,61.7114,0,0,0,3.0039-6.2217q1.2868-3.1085,1.9306-4.8271a1.7519,1.7519,0,0,1,1.8238-1.0733q1.3931,0,1.18,1.9307a49.9957,49.9957,0,0,1-2.7891,14.59,41.6713,41.6713,0,0,1-5.793,10.9424,24.8086,24.8086,0,0,1-7.7241,6.8652,18.0214,18.0214,0,0,1-8.7964,2.36,10.5571,10.5571,0,0,1-6.0078-1.7158,15.087,15.087,0,0,1-4.3979-4.6133,23.4016,23.4016,0,0,1-2.79-6.544,28.3888,28.3888,0,0,1-.9653-7.2949,154.8312,154.8312,0,0,1,1.18-18.2363,132.7229,132.7229,0,0,1,3.3252-18.0225,3.4276,3.4276,0,0,1,3.2188-3.0039q9.8656-.8554,15.0185-6.0078,1.7147-1.7139,3.1109-1.3945Q161.77,469.5911,160.9138,472.5941Zm-2.1455-30.252a2.63,2.63,0,0,1,2.0381,1.3955q.9653,1.3976.9653,5.2559a19.3081,19.3081,0,0,1-.8579,5.1494,27.9383,27.9383,0,0,1-2.4678,5.9,17.1257,17.1257,0,0,1-4.0761,4.9346,8.658,8.658,0,0,1-5.6856,2.0381,5.6047,5.6047,0,0,1-4.72-1.9307,7.4461,7.4461,0,0,1-1.502-4.7207,7.2949,7.2949,0,0,1,1.0728-3.7539,7.5054,7.5054,0,0,1,3.2183-2.8965,19.5394,19.5394,0,0,0,5.042-3.6475,23.9652,23.9652,0,0,0,2.8964-3.6474q1.0709-1.7154,1.9312-2.8965A2.5714,2.5714,0,0,1,158.7683,442.3421Z"/><path class="cls-1" d="M166.2751,510.7845a51.4,51.4,0,0,0,4.5054-10.19q2.1423-6.3267,4.1836-12.874,2.0368-6.5421,4.1841-12.336a33.0011,33.0011,0,0,1,4.5054-8.7969,8.8735,8.8735,0,0,1,2.6821-2.4677,7.5856,7.5856,0,0,1,3.9692-.9649,4.0842,4.0842,0,0,1,3.4326,1.7158,6.2836,6.2836,0,0,1,1.2871,3.8624,3.6365,3.6365,0,0,1-1.9306,3.4326q-1.9306,1.0766-1.9312,2.5742,0,3.2183,3.2183,6.5439,3.2183,3.33,7.1875,7.51a56.6226,56.6226,0,0,1,7.1875,9.44,23.585,23.585,0,0,1,3.2187,12.5508,29.0512,29.0512,0,0,1-1.5019,9.2266,25.1664,25.1664,0,0,1-4.3985,8.0449,22.9344,22.9344,0,0,1-7.1875,5.793,20.9314,20.9314,0,0,1-9.87,2.2529,20.5538,20.5538,0,0,1-9.2256-1.8232,16.3338,16.3338,0,0,1-5.7929-4.6133,16.6965,16.6965,0,0,1-3.0039-6.2217,20.6353,20.6353,0,0,1-.6436-6.4365c-.2847.2881-.7139.2509-1.2871-.1075a5.72,5.72,0,0,1-1.6094-1.6093,14.1157,14.1157,0,0,1-1.2871-2.253A2.3021,2.3021,0,0,1,166.2751,510.7845Zm16.9493-27.4619a76.3492,76.3492,0,0,0-4.8272,12.7656q-1.8252,6.5464-4.1841,12.7656a3.4747,3.4747,0,0,1,2.1455-.6435q1.0716,0,.8584,1.3945a14.9185,14.9185,0,0,0-.2143,2.0381,7.01,7.01,0,0,0,2.1455,5.1494,7.2686,7.2686,0,0,0,5.3637,2.1455q4.9329,0,6.6509-3.1113a14.1906,14.1906,0,0,0,1.7168-6.9727,23.3423,23.3423,0,0,0-1.0727-7.1875,56.3656,56.3656,0,0,0-2.4678-6.3291q-1.3974-3.0028-3.0034-6.0078a30.21,30.21,0,0,1-2.4673-6.0068Q183.6516,482.4671,183.2244,483.3226Z"/><path class="cls-1" d="M249.52,487.8275q-1.9306,0-3.6474,2.2695a18.6439,18.6439,0,0,0-2.7891,5.6192,28.6862,28.6862,0,0,0-1.2871,7.2373,21.6323,21.6323,0,0,0,.751,7.2382,12.37,12.37,0,0,0,3.3252,5.6182,8.8831,8.8831,0,0,0,6.4365,2.2695q4.2906,0,8.69-3.8613,4.3959-3.8628,7.6172-13.5176a1.7521,1.7521,0,0,1,1.8232-1.0722q1.3931,0,1.1807,1.9306a43.3591,43.3591,0,0,1-3.2188,14.8848,35.74,35.74,0,0,1-6.9726,10.8613,29.1167,29.1167,0,0,1-9.2256,6.5713,24.564,24.564,0,0,1-9.9776,2.2256,21.0331,21.0331,0,0,1-10.2978-2.36,21.65,21.65,0,0,1-7.08-6.1142,26.5765,26.5765,0,0,1-4.1846-8.582,35.08,35.08,0,0,1-1.3945-9.7627,40.8127,40.8127,0,0,1,1.7168-11.1563,40.0535,40.0535,0,0,1,4.9346-10.9424,30.1678,30.1678,0,0,1,7.9384-8.26,18.1727,18.1727,0,0,1,10.7276-3.3262,13.698,13.698,0,0,1,9.2256,3.54q4.0737,3.5406,4.0771,9.9766a6.5958,6.5958,0,0,1-1.2881,4.0771,3.7051,3.7051,0,0,1-3.0029,1.7159,2.0839,2.0839,0,0,1-2.36-2.3594,16.6564,16.6564,0,0,1,.3213-3.0039Q251.8807,487.8289,249.52,487.8275Z"/><path class="cls-1" d="M290.282,510.7484a11.6678,11.6678,0,0,0,3.4326,5.2832,9.4749,9.4749,0,0,0,6.4365,2.0478q4.2891,0,8.69-3.8613,4.3944-3.8628,7.6162-13.5176a1.7534,1.7534,0,0,1,1.8242-1.0722q1.393,0,1.18,1.9306a43.336,43.336,0,0,1-3.2178,14.8848,36.9741,36.9741,0,0,1-6.8662,10.8613,27.9445,27.9445,0,0,1-9.1182,6.5713,24.5591,24.5591,0,0,1-9.9765,2.2256q-8.8008,0-14.0537-4.3984a23.4386,23.4386,0,0,1-7.4014-11.1563,35.9625,35.9625,0,0,1-1.3945-14.4824,41.6391,41.6391,0,0,1,4.0761-14.4824,30.913,30.913,0,0,1,9.1182-11.1563,22.0651,22.0651,0,0,1,13.7314-4.3984,15.0182,15.0182,0,0,1,9.8692,3.56q4.29,3.5611,4.292,10.4561a19.4481,19.4481,0,0,1-5.042,13.2656,20.2069,20.2069,0,0,1-12.7666,6.792C290.4226,510.1009,290.282,510.3187,290.282,510.7484Zm-.2149-6.4q6.8643-1.4985,9.6553-6.0068a15.8832,15.8832,0,0,0,2.7891-8.1534,2.4921,2.4921,0,0,0-1.9307-2.6816,5.7859,5.7859,0,0,0-4.3984.8584,12.5647,12.5647,0,0,0-4.5059,5.1484q-2.0419,3.7574-2.2529,10.1914A.5687.5687,0,0,0,290.0671,504.348Z"/><path class="cls-1" d="M311.95,510.7845a51.3114,51.3114,0,0,0,4.5059-10.19q2.1415-6.3267,4.1836-12.874,2.0361-6.5421,4.1836-12.336a33.03,33.03,0,0,1,4.5058-8.7969,8.8732,8.8732,0,0,1,2.6817-2.4677,7.5875,7.5875,0,0,1,3.97-.9649,4.085,4.085,0,0,1,3.4326,1.7158,6.2836,6.2836,0,0,1,1.2871,3.8624,3.6365,3.6365,0,0,1-1.9306,3.4326q-1.9307,1.0766-1.9307,2.5742,0,3.2183,3.2178,6.5439,3.2183,3.33,7.1875,7.51a56.6226,56.6226,0,0,1,7.1875,9.44,23.585,23.585,0,0,1,3.2187,12.5508,29.0512,29.0512,0,0,1-1.5019,9.2266,25.1683,25.1683,0,0,1-4.3985,8.0449,22.9344,22.9344,0,0,1-7.1875,5.793,20.9294,20.9294,0,0,1-9.8691,2.2529,20.5568,20.5568,0,0,1-9.2266-1.8232,16.33,16.33,0,0,1-5.792-4.6133,16.6843,16.6843,0,0,1-3.0039-6.2217,20.5933,20.5933,0,0,1-.6435-6.4365c-.2852.2881-.7149.2509-1.2881-.1075a5.7238,5.7238,0,0,1-1.6084-1.6093,14.16,14.16,0,0,1-1.2881-2.253A2.3059,2.3059,0,0,1,311.95,510.7845Zm16.95-27.4619a76.3532,76.3532,0,0,0-4.8281,12.7656q-1.8252,6.5464-4.1836,12.7656a3.4737,3.4737,0,0,1,2.1455-.6435q1.0708,0,.8584,1.3945a14.8583,14.8583,0,0,0-.2148,2.0381,7.0135,7.0135,0,0,0,2.1455,5.1494,7.2705,7.2705,0,0,0,5.3642,2.1455q4.9336,0,6.6514-3.1113a14.2008,14.2008,0,0,0,1.7158-6.9727,23.3423,23.3423,0,0,0-1.0722-7.1875,56.3656,56.3656,0,0,0-2.4678-6.3291q-1.3976-3.0028-3.0039-6.0078a30.2075,30.2075,0,0,1-2.4668-6.0068Q329.327,482.4671,328.9,483.3226Z"/><path class="cls-1" d="M170.4487,215.974l78.2557-1.0842c3.0705-53.236,13.6556-143.39,33.49-176.602,5.4326-9.0967,19.0124-4.5894,17.3414,6.5016-.0234.1554-30.8945,80.5331-30.8945,169.2514,38.6747,2.61,55.7164-5.4358,57.537,8.3391,2.1354,16.1555-20.8481,9.574-57.5473,12.036,0,114.2763,34.9518,168.9988,35.9422,173.357,2.2383,9.85-9.9539,15.8957-16.3321,8.5265-5.6665-6.5469-20.4582-38.7343-29.3137-82.7269-7.8388-38.9416-8.108-58.8023-10.2955-98.4658H170.64c-1.6589,16.3871-1.5221,105.6271-35.6663,171.8488-3.5874,6.9576-8.1379,12.5543-15.57,8.7429-4.5106-2.3133-6.9785-7.82-3.046-15.21,26.86-50.4713,31.33-111.4828,34.5019-164.6175-9.46-.339-53.6085.3878-53.629.3854-12.621-1.5273-12.3848-17.6656-.0787-19.1754,2.9785-.3654,43.9935-.5876,53.3464-1.6245,0-135.7535-46.3785-175.8275-25.1277-184.1986,7.2733-2.865,11.31,2.6331,14.1415,9.8568C170.196,119.4035,169.415,206.55,170.4487,215.974Z"/><polygon class="cls-1" points="80.146 102.869 110.337 110.998 80.146 119.127 72.016 149.319 63.887 119.127 33.696 110.998 63.887 102.869 72.016 72.677 80.146 102.869"/><polygon class="cls-1" points="240.035 30.192 270.227 38.321 240.035 46.45 231.906 76.641 223.777 46.45 193.586 38.321 223.777 30.192 231.906 0 240.035 30.192"/><polygon class="cls-1" points="390.675 157.046 420.867 165.175 390.675 173.304 382.546 203.496 374.417 173.304 344.226 165.175 374.417 157.046 382.546 126.855 390.675 157.046"/><polygon class="cls-1" points="78.464 351.653 102.409 358.1 78.464 364.548 72.016 388.493 65.569 364.548 41.624 358.1 65.569 351.653 72.016 327.708 78.464 351.653"/><polygon class="cls-1" points="213.247 289.547 237.192 295.994 213.247 302.442 206.8 326.387 200.352 302.442 176.407 295.994 200.352 289.547 206.8 265.602 213.247 289.547"/><path class="cls-1" d="M372.6358,367.35c0,13.1028-19.8211,13.1214-19.8211,0C352.8147,354.2473,372.6358,354.2287,372.6358,367.35Z"/><path class="cls-1" d="M332.9937,295.9944c0,13.1028-19.8211,13.1214-19.8211,0C313.1726,282.8915,332.9937,282.873,332.9937,295.9944Z"/><path class="cls-1" d="M422.8491,265.6021c0,13.1028-19.8211,13.1214-19.8211,0C403.028,252.4993,422.8491,252.4807,422.8491,265.6021Z"/><path class="cls-1" d="M207.46,397.7424c0,13.1029-19.821,13.1214-19.821,0C187.6393,384.64,207.46,384.621,207.46,397.7424Z"/><path class="cls-1" d="M216.71,149.3186c0,13.1028-19.8211,13.1214-19.8211,0C196.8891,136.2157,216.71,136.1972,216.71,149.3186Z"/><path class="cls-1" d="M19.8211,265.6021c0,13.1028-19.8211,13.1214-19.8211,0C0,252.4993,19.8211,252.4807,19.8211,265.6021Z"/><path class="cls-1" d="M109.6765,277.4947c0,13.1029-19.8211,13.1214-19.8211,0C89.8554,264.3919,109.6765,264.3733,109.6765,277.4947Z"/><path class="cls-1" d="M362.0645,76.6414c0,13.1028-19.821,13.1214-19.821,0C342.2435,63.5386,362.0645,63.52,362.0645,76.6414Z"/><path class="cls-1" d="M39.6421,163.854c0,13.1029-19.821,13.1214-19.821,0C19.8211,150.7512,39.6421,150.7326,39.6421,163.854Z"/></g></g></svg>