<svg xmlns="http://www.w3.org/2000/svg" viewBox="0 0 555.3762 583.0743"><defs><style>.cls-1{fill:#464646;}</style></defs><g id="katman_2" data-name="katman 2"><g id="katman_1-2" data-name="katman 1"><path class="cls-1" d="M.35,516.7775A51.4016,51.4016,0,0,0,4.8557,506.587Q6.998,500.26,9.0393,493.713q2.0368-6.542,4.1841-12.3359a33.0011,33.0011,0,0,1,4.5054-8.7969,8.8751,8.8751,0,0,1,2.6821-2.4678,7.5865,7.5865,0,0,1,3.9692-.9648,4.084,4.084,0,0,1,3.4326,1.7158A6.284,6.284,0,0,1,29.1,474.7257a3.6366,3.6366,0,0,1-1.9311,3.4326q-1.9306,1.0767-1.9312,2.5742,0,3.2182,3.2183,6.544,3.2183,3.33,7.1875,7.51a56.6454,56.6454,0,0,1,7.1875,9.44A23.5843,23.5843,0,0,1,46.05,516.7775a29.05,29.05,0,0,1-1.5015,9.2265,25.1563,25.1563,0,0,1-4.3984,8.0449,22.94,22.94,0,0,1-7.1875,5.793,20.93,20.93,0,0,1-9.87,2.2529,20.5524,20.5524,0,0,1-9.2256-1.8232,16.3327,16.3327,0,0,1-5.7929-4.6133A16.6958,16.6958,0,0,1,5.07,529.4366,20.6353,20.6353,0,0,1,4.4265,523c-.2847.2881-.7139.251-1.2871-.1074A5.7215,5.7215,0,0,1,1.53,521.2833,14.11,14.11,0,0,1,.2429,519.03,2.3023,2.3023,0,0,1,.35,516.7775ZM17.3,489.3155a76.35,76.35,0,0,0-4.8272,12.7657q-1.8252,6.5463-4.1841,12.7656a3.4748,3.4748,0,0,1,2.1455-.6436q1.0716,0,.8584,1.3946a14.917,14.917,0,0,0-.2143,2.0381,7.01,7.01,0,0,0,2.1455,5.1494,7.269,7.269,0,0,0,5.3638,2.1455q4.9327,0,6.6508-3.1113a14.1909,14.1909,0,0,0,1.7168-6.9727,23.3418,23.3418,0,0,0-1.0727-7.1875,56.3656,56.3656,0,0,0-2.4678-6.3291q-1.3974-3.003-3.0034-6.0078a30.2109,30.2109,0,0,1-2.4673-6.0069Q17.7269,488.46,17.3,489.3155Z"/><path class="cls-1" d="M86.5989,525.7892A40.446,40.446,0,0,1,76.73,537.6964q-5.5818,4.4-11.1567,4.3984a9.8353,9.8353,0,0,1-8.4751-4.3984,24.221,24.221,0,0,1-3.9692-11.0488,48.4538,48.4538,0,0,1,.4292-14.2686,52.812,52.812,0,0,1,4.5058-14.2676,33.503,33.503,0,0,1,8.3672-11.0488,17.9348,17.9348,0,0,1,12.0151-4.3984,15.8492,15.8492,0,0,1,6.544,1.3945,11.5338,11.5338,0,0,1,5.042,4.3985c.2846.288.4995.2138.6435-.2149l.6436-2.5742a3.4273,3.4273,0,0,1,3.2183-3.0039q9.8664-.8554,15.0185-6.0078,1.7154-1.7139,3.1113-1.3946,1.3931.3224.5362,3.3252-2.1468,7.9615-4.1836,18.3116a100.5617,100.5617,0,0,0-2.0381,19.41,17.1409,17.1409,0,0,0,.751,5.7158,2.6,2.6,0,0,0,2.4673,2.0479,6.4956,6.4956,0,0,0,4.5053-2.0381A20.4424,20.4424,0,0,0,118.46,517.1a53.6584,53.6584,0,0,0,2.7891-5.7929q1.1769-2.8961,1.8237-4.6133a1.7535,1.7535,0,0,1,1.8242-1.0723q1.3917,0,1.18,1.9307a49.6959,49.6959,0,0,1-2.7891,14.5625,40.8634,40.8634,0,0,1-5.7934,10.8652,25.1914,25.1914,0,0,1-7.6162,6.7852,17.6051,17.6051,0,0,1-8.69,2.33,11.1521,11.1521,0,0,1-9.5478-4.9345,24.5684,24.5684,0,0,1-4.398-11.1563c0-.2851-.0742-.4629-.2148-.5371C86.884,525.3966,86.74,525.504,86.5989,525.7892Zm-9.0113-1.7168a5.8961,5.8961,0,0,0,4.3985-2.2695,19.0191,19.0191,0,0,0,3.4331-5.836,41.1,41.1,0,0,0,2.1455-7.8916,49.3556,49.3556,0,0,0,.751-8.4316,3.7543,3.7543,0,0,0-1.0728-2.92,3.7168,3.7168,0,0,0-2.5747-.9717,7.1281,7.1281,0,0,0-4.935,1.9472,16.9166,16.9166,0,0,0-3.647,4.8643,25.7349,25.7349,0,0,0-2.2529,6.376,31.4338,31.4338,0,0,0-.751,6.7021,14.7447,14.7447,0,0,0,1.0727,6.0537A3.5715,3.5715,0,0,0,77.5876,524.0724Z"/><path class="cls-1" d="M151.3914,530.295a35.6607,35.6607,0,0,1-8.69,8.6885,15.9949,15.9949,0,0,1-8.9043,3.1113,9.8339,9.8339,0,0,1-8.4746-4.3984,24.1764,24.1764,0,0,1-3.9692-11.0488,50.8742,50.8742,0,0,1,.3217-14.2686,50.2894,50.2894,0,0,1,4.3985-14.2676,33.5016,33.5016,0,0,1,8.3672-11.0488,17.9334,17.9334,0,0,1,12.0146-4.3984,16.0749,16.0749,0,0,1,6.8662,1.5019,10.2258,10.2258,0,0,1,4.9346,5.1494l.2148.2139.2139-.2139q.4278-1.932.9658-4.1845a3.4446,3.4446,0,0,1,3.1114-2.6817,31.7184,31.7184,0,0,0,8.582-1.8232,18.1825,18.1825,0,0,0,6.4365-4.1846q1.7154-1.7139,3.0039-1.3945,1.2876.3222.6436,3.3262-1.72,7.2963-3.2188,13.624-1.5029,6.331-2.5742,12.3369-1.0767,6.0088-2.0381,11.9072-.9652,5.9034-1.6094,12.1221c0,.5732.1407.7178.4287.43a41.7254,41.7254,0,0,0,10.9424-8.4756q4.0738-4.61,7.08-13.8379a1.67,1.67,0,0,1,1.7168-1.0732q1.2876,0,1.2871,1.9306a43.7523,43.7523,0,0,1-1.7158,11.48,28.5032,28.5032,0,0,1-4.291,8.5821,32.4669,32.4669,0,0,1-6.8662,6.7578,78.4,78.4,0,0,1-9.2256,5.7929,1.2349,1.2349,0,0,0-.43.8584q-.4322,6.8687-1.501,14.2676a51.2325,51.2325,0,0,1-3.8623,13.624,26.5957,26.5957,0,0,1-8.0459,10.2989q-5.26,4.0722-14.2676,4.0761a17.9606,17.9606,0,0,1-11.1572-3.7548q-4.938-3.756-4.9346-11.9073a18.4358,18.4358,0,0,1,1.9317-8.3672,27.1521,27.1521,0,0,1,5.1484-7.081,53.5185,53.5185,0,0,1,7.4024-6.1143q4.1835-2.8959,8.6894-5.4707a1.2356,1.2356,0,0,0,.43-.8584l1.0723-9.0117C151.82,530.08,151.6755,530.01,151.3914,530.295ZM149.2458,551.75a39.7686,39.7686,0,0,0-7.9384,6.1143,9.5705,9.5705,0,0,0-3.0039,6.7588,4.4377,4.4377,0,0,0,1.0722,3.11,3.596,3.596,0,0,0,2.7891,1.1807,4.4285,4.4285,0,0,0,3.6475-2.0381,14.4583,14.4583,0,0,0,2.2529-4.8281,52.3294,52.3294,0,0,0,1.1806-5.5782,30.6411,30.6411,0,0,0,.4288-4.291C149.6746,551.61,149.53,551.465,149.2458,551.75ZM145.5984,525.36q3.0015,0,5.042-3.11a28.6042,28.6042,0,0,0,3.3252-7.2949,50.2255,50.2255,0,0,0,1.8242-8.3672,55.4621,55.4621,0,0,0,.5361-6.5439,4.3845,4.3845,0,0,0-1.0732-3.2188,3.5214,3.5214,0,0,0-2.5742-1.0722,7.1543,7.1543,0,0,0-4.9346,1.9306,16.7665,16.7665,0,0,0-3.6475,4.8272,25.4326,25.4326,0,0,0-2.2529,6.3291,30.9632,30.9632,0,0,0-.751,6.6514,20.5458,20.5458,0,0,0,1.0723,6.7587Q143.237,525.3619,145.5984,525.36Z"/><path class="cls-1" d="M215.7556,478.587q-2.1474,7.941-4.1836,18.2373a99.5518,99.5518,0,0,0-2.039,19.31,24.7377,24.7377,0,0,0,.7509,6.4365q.75,2.7921,2.4678,2.7891,2.1415,0,4.1836-2.3594a32.0669,32.0669,0,0,0,3.7549-5.4717,61.5922,61.5922,0,0,0,3.0039-6.2216q1.2876-3.1085,1.9307-4.8272a1.752,1.752,0,0,1,1.8242-1.0732q1.3915,0,1.18,1.9306a49.98,49.98,0,0,1-2.7891,14.59,41.6861,41.6861,0,0,1-5.793,10.9424,24.8139,24.8139,0,0,1-7.7236,6.8652,18.0231,18.0231,0,0,1-8.7969,2.36,10.5571,10.5571,0,0,1-6.0078-1.7158,15.099,15.099,0,0,1-4.3984-4.6133,23.4019,23.4019,0,0,1-2.7891-6.5439,28.3945,28.3945,0,0,1-.9658-7.2949,154.9269,154.9269,0,0,1,1.1807-18.2364,132.6293,132.6293,0,0,1,3.3251-18.0224,3.4279,3.4279,0,0,1,3.2188-3.0039q9.8656-.8554,15.0186-6.0078,1.7137-1.7139,3.1113-1.3946Q216.6111,475.5842,215.7556,478.587ZM213.61,448.3351a2.63,2.63,0,0,1,2.0381,1.3955q.9652,1.3974.9658,5.2558a19.3274,19.3274,0,0,1-.8584,5.1495,27.9144,27.9144,0,0,1-2.4678,5.9,17.1173,17.1173,0,0,1-4.0761,4.9345,8.6584,8.6584,0,0,1-5.6856,2.0381,5.6055,5.6055,0,0,1-4.7207-1.9307,7.4488,7.4488,0,0,1-1.5019-4.7207,7.2906,7.2906,0,0,1,1.0732-3.7539,7.51,7.51,0,0,1,3.2178-2.8964,19.522,19.522,0,0,0,5.042-3.6475,23.9107,23.9107,0,0,0,2.8965-3.6475q1.0722-1.7152,1.9316-2.8965A2.5709,2.5709,0,0,1,213.61,448.3351Z"/><path class="cls-1" d="M223.0476,485.6681a.38.38,0,0,1-.43-.43l.43-2.1455a.3794.3794,0,0,1,.4287-.4287q2.5752,0,4.72-3.3262a25.5439,25.5439,0,0,0,3.2188-9.1182,3.4431,3.4431,0,0,1,3.2178-3.0039,31.7261,31.7261,0,0,0,8.583-1.8232,18.21,18.21,0,0,0,6.4365-4.1836q1.7139-1.7154,2.8965-1.3945,1.1763.3207.751,3.3252l-4.0772,19.7382a39.3189,39.3189,0,0,0,6.0078-.4287,17.953,17.953,0,0,0,5.042-1.5019,10.02,10.02,0,0,0,3.8613-3.3252,14.3237,14.3237,0,0,0,2.253-5.9,2.3354,2.3354,0,0,1,.1074-.751,2.4049,2.4049,0,0,0,.1074-.751,3.4433,3.4433,0,0,1,3.2188-3.0039,31.7259,31.7259,0,0,0,8.582-1.8232,18.204,18.204,0,0,0,6.436-4.1836q1.7139-1.7154,2.8965-1.3945,1.1763.3207.751,3.3252l-3.8623,18.2373q-.4321,1.2861,1.0723,1.2871h3.8623a.38.38,0,0,1,.43.4287l-.43,2.1455a.379.379,0,0,1-.4288.43h-3.8623a1.3753,1.3753,0,0,0-1.5019,1.2871q-1.719,7.94-2.7886,15.7695a100.6293,100.6293,0,0,0-1.0722,13.4092,28.7471,28.7471,0,0,0,.6435,6.4365q.6431,2.7921,2.5742,2.7891A6.1342,6.1342,0,0,0,287.6272,523a25.5425,25.5425,0,0,0,3.7549-5.4717,59.4165,59.4165,0,0,0,2.789-6.2216q1.1763-3.1085,1.8233-4.8272a1.752,1.752,0,0,1,1.8242-1.0732q1.393,0,1.18,1.9306a49.98,49.98,0,0,1-2.7891,14.59,41.6859,41.6859,0,0,1-5.7929,10.9424,24.8193,24.8193,0,0,1-7.7232,6.8652,18.0231,18.0231,0,0,1-8.7969,2.36,10.76,10.76,0,0,1-9.2255-4.8271,26.684,26.684,0,0,1-4.5059-11.2637c-.1445-.57-.4287-.57-.8584,0a32.9463,32.9463,0,0,1-9.1182,11.8,18.3338,18.3338,0,0,1-11.4785,4.291,10.5571,10.5571,0,0,1-6.0078-1.7158,15.099,15.099,0,0,1-4.3984-4.6133,23.4019,23.4019,0,0,1-2.7891-6.5439,28.39,28.39,0,0,1-.9658-7.2949,142.0059,142.0059,0,0,1,1.0732-17.5928q1.0709-8.58,2.7891-17.3789c.1406-.8584-.2149-1.2871-1.0723-1.2871Zm27.0332,0a1.3753,1.3753,0,0,0-1.5019,1.2871q-1.72,7.94-2.7891,15.7695a100.65,100.65,0,0,0-1.0732,13.4092,28.7432,28.7432,0,0,0,.6445,6.4365q.6431,2.7921,2.5742,2.7891,4.0737,0,6.8652-4.6123a43.0182,43.0182,0,0,0,4.5059-10.835,106.3063,106.3063,0,0,0,2.6816-12.7656q.9669-6.5419,1.6094-10.1914c.1406-.8584-.2139-1.2871-1.0723-1.2871Z"/><path class="cls-1" d="M327.5315,525.7892a40.44,40.44,0,0,1-9.8691,11.9072q-5.5826,4.4-11.1573,4.3984a9.8363,9.8363,0,0,1-8.4746-4.3984,24.2265,24.2265,0,0,1-3.9687-11.0488,48.4223,48.4223,0,0,1,.4287-14.2686,52.812,52.812,0,0,1,4.5058-14.2676,33.503,33.503,0,0,1,8.3672-11.0488,17.9336,17.9336,0,0,1,12.0147-4.3984,15.8456,15.8456,0,0,1,6.5439,1.3945,11.5283,11.5283,0,0,1,5.042,4.3985c.2852.288.5.2138.6436-.2149l.6445-2.5742a3.4268,3.4268,0,0,1,3.2178-3.0039q9.8656-.8554,15.0185-6.0078,1.7154-1.7139,3.1114-1.3946,1.393.3224.5361,3.3252-2.1476,7.9615-4.1836,18.3116a100.57,100.57,0,0,0-2.0381,19.41,17.1435,17.1435,0,0,0,.751,5.7158,2.5985,2.5985,0,0,0,2.4668,2.0479,6.4976,6.4976,0,0,0,4.5058-2.0381,20.4653,20.4653,0,0,0,3.7549-4.9346,53.847,53.847,0,0,0,2.7891-5.7929q1.1763-2.8961,1.8232-4.6133a1.7535,1.7535,0,0,1,1.8242-1.0723q1.3932,0,1.18,1.9307a49.6666,49.6666,0,0,1-2.789,14.5625,40.8515,40.8515,0,0,1-5.793,10.8652,25.1844,25.1844,0,0,1-7.6162,6.7852,17.6023,17.6023,0,0,1-8.6895,2.33,11.1527,11.1527,0,0,1-9.5478-4.9345,24.57,24.57,0,0,1-4.3985-11.1563c0-.2851-.0732-.4629-.2138-.5371C327.8166,525.3966,327.6721,525.504,327.5315,525.7892Zm-9.0107-1.7168a5.8967,5.8967,0,0,0,4.3984-2.2695,19.0383,19.0383,0,0,0,3.4326-5.836,41.0636,41.0636,0,0,0,2.1455-7.8916,49.4061,49.4061,0,0,0,.751-8.4316,3.7545,3.7545,0,0,0-1.0733-2.92,3.7135,3.7135,0,0,0-2.5742-.9717,7.1269,7.1269,0,0,0-4.9345,1.9472,16.9088,16.9088,0,0,0-3.6475,4.8643,25.6986,25.6986,0,0,0-2.2529,6.376,31.4338,31.4338,0,0,0-.751,6.7021,14.7534,14.7534,0,0,0,1.0723,6.0537A3.573,3.573,0,0,0,318.5208,524.0724Z"/><path class="cls-1" d="M376.0168,481.5909q-.6431,4.5059-1.9306,10.1914-1.2876,5.688-2.8965,11.3711-1.61,5.688-3.54,10.835A67.6287,67.6287,0,0,1,363.5735,523q-.4278.6431-1.2881.1074a5.7358,5.7358,0,0,1-1.6084-1.6093,12.5444,12.5444,0,0,1-1.2881-2.36,2.5047,2.5047,0,0,1,.1074-2.36,49.8155,49.8155,0,0,0,3.8623-8.5821q1.9308-5.36,3.54-11.5859a96.4083,96.4083,0,0,0,2.36-12.3359,65.9767,65.9767,0,0,0,.5362-10.835c0-.43.3213-.8926.9658-1.3945a7.5574,7.5574,0,0,1,2.2519-1.1807,18.3309,18.3309,0,0,1,2.4678-.6436c.7842-.1406,1.25-.07,1.3945.2149a18.097,18.097,0,0,1,0,4.0762c0,.5732.3555.8584,1.0733.8584q2.7846.2167,7.08.8584a26.6809,26.6809,0,0,1,8.26,2.6816,21.5271,21.5271,0,0,1,6.8662,5.5781q2.8961,3.5406,2.8965,9.5479a39.7966,39.7966,0,0,1-2.0381,12.4443,40.36,40.36,0,0,0-2.039,12.6582,21.3759,21.3759,0,0,0,.4326,3.97c.2881,1.501.9424,2.252,1.9551,2.252A5.75,5.75,0,0,0,405.595,523a31.976,31.976,0,0,0,3.7988-5.4717,61.3566,61.3566,0,0,0,3.0371-6.2216q1.3023-3.1085,1.9541-4.8272a1.7762,1.7762,0,0,1,1.8438-1.0732q1.4076,0,1.1972,1.9306a49.62,49.62,0,0,1-2.8066,14.59,41.494,41.494,0,0,1-5.8223,10.9424,24.8526,24.8526,0,0,1-7.7646,6.8652,18.1932,18.1932,0,0,1-8.8438,2.36,13.3578,13.3578,0,0,1-6.041-1.3945,14.2851,14.2851,0,0,1-4.7471-3.7549,17.8132,17.8132,0,0,1-3.02-5.3632,18.327,18.327,0,0,1-1.0752-6.2227,43.2373,43.2373,0,0,1,.9981-8.69q.996-4.8265,2.22-9.8691,1.2173-5.0376,2.22-9.8691a43.5294,43.5294,0,0,0,.9991-8.69,6.21,6.21,0,0,0-1.7676-4.8271,11.78,11.78,0,0,0-4.8535-2.4678C376.3821,480.6622,376.0168,480.8771,376.0168,481.5909Z"/><path class="cls-1" d="M439.5237,478.587q-2.1476,7.941-4.1836,18.2373a99.5523,99.5523,0,0,0-2.0391,19.31,24.7374,24.7374,0,0,0,.751,6.4365q.75,2.7921,2.4678,2.7891,2.1415,0,4.1836-2.3594a32.0669,32.0669,0,0,0,3.7549-5.4717,61.5922,61.5922,0,0,0,3.0039-6.2216q1.2876-3.1085,1.9306-4.8272a1.7521,1.7521,0,0,1,1.8242-1.0732q1.3917,0,1.18,1.9306a49.9833,49.9833,0,0,1-2.789,14.59,41.689,41.689,0,0,1-5.793,10.9424,24.815,24.815,0,0,1-7.7236,6.8652,18.0231,18.0231,0,0,1-8.7969,2.36,10.5569,10.5569,0,0,1-6.0078-1.7158,15.1,15.1,0,0,1-4.3985-4.6133,23.3988,23.3988,0,0,1-2.789-6.5439,28.39,28.39,0,0,1-.9658-7.2949,154.9255,154.9255,0,0,1,1.1806-18.2364,132.6441,132.6441,0,0,1,3.3252-18.0224,3.4279,3.4279,0,0,1,3.2188-3.0039q9.8656-.8554,15.0185-6.0078,1.7139-1.7139,3.1113-1.3946Q440.3792,475.5842,439.5237,478.587Zm-2.1455-30.2519a2.63,2.63,0,0,1,2.0381,1.3955q.9653,1.3974.9658,5.2558a19.3315,19.3315,0,0,1-.8584,5.1495,27.9248,27.9248,0,0,1-2.4678,5.9,17.1176,17.1176,0,0,1-4.0762,4.9345,8.658,8.658,0,0,1-5.6855,2.0381,5.6055,5.6055,0,0,1-4.7207-1.9307,7.4483,7.4483,0,0,1-1.502-4.7207,7.2908,7.2908,0,0,1,1.0733-3.7539,7.5093,7.5093,0,0,1,3.2177-2.8964,19.522,19.522,0,0,0,5.042-3.6475,23.9045,23.9045,0,0,0,2.8965-3.6475q1.0723-1.7152,1.9317-2.8965A2.5709,2.5709,0,0,1,437.3782,448.3351Z"/><path class="cls-1" d="M477.4963,522.7853a40.2964,40.2964,0,0,1-9.0117,14.16q-5.3643,5.15-9.4394,5.1494a7.0442,7.0442,0,0,1-5.042-1.9306,14.3725,14.3725,0,0,1-3.3262-5.042,28.44,28.44,0,0,1-1.8232-7.08,61.9734,61.9734,0,0,1-.5372-8.2607,92.9192,92.9192,0,0,1,.5372-9.7617q.5376-5.0391,1.18-9.7627.6446-4.7169,1.3946-8.5821.75-3.8613,1.1806-6.4365a2.5685,2.5685,0,0,1,2.7891-2.36l14.8037-.2138q2.3585,0,1.9307,2.3594-.4321,1.932-1.0723,5.1494-.6445,3.2182-1.18,7.08-.539,3.8628-.9658,7.8321a66.9459,66.9459,0,0,0-.43,7.1875,29.1491,29.1491,0,0,0,.6445,6.3291q.6432,2.8959,1.9307,2.8965,2.7861,0,4.72-4.7207a62.8215,62.8215,0,0,0,3.2188-10.835q1.2876-6.1143,2.0381-12.0146a69.2807,69.2807,0,0,1,1.3945-8.26,3.4271,3.4271,0,0,1,3.2188-3.0039q9.8657-.8554,15.0185-6.0078,1.7139-1.7139,3.11-1.3946,1.3931.3224.5371,3.3252-2.1475,7.941-4.1846,18.2373a99.6253,99.6253,0,0,0-2.0381,19.31q0,7.941,3.8623,7.9385a5.5207,5.5207,0,0,0,4.0762-2.1455,27.2389,27.2389,0,0,0,3.54-5.042,48.9336,48.9336,0,0,0,2.7891-5.9q1.1778-3.0015,1.8242-4.5049a1.7516,1.7516,0,0,1,1.8233-1.0732q1.393,0,1.1806,1.9306a49.9833,49.9833,0,0,1-2.789,14.59,41.689,41.689,0,0,1-5.793,10.9424,24.808,24.808,0,0,1-7.7246,6.8652,18.0194,18.0194,0,0,1-8.7959,2.36,11.2285,11.2285,0,0,1-10.1914-5.9A28.4686,28.4686,0,0,1,477.925,523C477.925,522.0011,477.7815,521.9269,477.4963,522.7853Z"/><path class="cls-1" d="M509.676,516.7775a51.3184,51.3184,0,0,0,4.5059-10.1905q2.1415-6.3265,4.1836-12.874,2.0361-6.542,4.1836-12.3359a33.03,33.03,0,0,1,4.5058-8.7969,8.8748,8.8748,0,0,1,2.6817-2.4678,7.5884,7.5884,0,0,1,3.97-.9648,4.0847,4.0847,0,0,1,3.4326,1.7158,6.2835,6.2835,0,0,1,1.2871,3.8623,3.6363,3.6363,0,0,1-1.9306,3.4326q-1.9307,1.0767-1.9307,2.5742,0,3.2182,3.2178,6.544,3.2182,3.33,7.1875,7.51a56.6185,56.6185,0,0,1,7.1875,9.44,23.5845,23.5845,0,0,1,3.2187,12.5508,29.0506,29.0506,0,0,1-1.5019,9.2265,25.1662,25.1662,0,0,1-4.3985,8.0449,22.9316,22.9316,0,0,1-7.1875,5.793,20.9285,20.9285,0,0,1-9.8691,2.2529,20.5555,20.5555,0,0,1-9.2266-1.8232,16.3292,16.3292,0,0,1-5.792-4.6133,16.6836,16.6836,0,0,1-3.0039-6.2217A20.5933,20.5933,0,0,1,513.7532,523c-.2852.2881-.7149.251-1.2881-.1074a5.7243,5.7243,0,0,1-1.6084-1.6094,14.1544,14.1544,0,0,1-1.2881-2.2529A2.3059,2.3059,0,0,1,509.676,516.7775Zm16.95-27.462a76.3542,76.3542,0,0,0-4.8281,12.7657q-1.8252,6.5463-4.1836,12.7656a3.4738,3.4738,0,0,1,2.1455-.6436q1.0708,0,.8584,1.3946a14.8568,14.8568,0,0,0-.2148,2.0381,7.0138,7.0138,0,0,0,2.1455,5.1494,7.2709,7.2709,0,0,0,5.3642,2.1455q4.9336,0,6.6514-3.1113a14.2011,14.2011,0,0,0,1.7158-6.9727,23.3418,23.3418,0,0,0-1.0722-7.1875,56.3656,56.3656,0,0,0-2.4678-6.3291q-1.3976-3.003-3.0039-6.0078a30.2083,30.2083,0,0,1-2.4668-6.0069Q527.0529,488.46,526.6262,489.3155Z"/><path class="cls-1" d="M243.7742,243.9322c-19.0585-20.34-57.84-60.563-59.9651-63.7283-6.7679-10.0818,4.4041-21.5358,14.4037-14.3734,2.1753,1.5581.5188-.281,55.8693,58.1284,8.1471,8.5975-15.5868,24.8444,173.6282-142.477-70.8749-5.3961-103.5789,5.5947-102.29-13.3911.8936-13.1647,5.8114-10.2559,127.0653-7.134,9.4971.2445,15.12,6.3892,14.209,15.815-1.6326,16.8918-10.3153,84.2943-13.431,108.609-1.32,10.3005-6.13,13.7466-12.5439,12.7619-11.9566-1.8357-8.4313-14.3245-6.4394-30.4364,9.54-77.1669,8.1729-63.5157,8.1729-71.0124C257.23,260.4373,272.0967,242.9263,279.6132,250.8428c58.8865,62.02,57.3187,59.8208,59.0469,63.3776,4.3766,9.0081-6.1611,18.7409-14.9785,12.9871-2.77-1.8077-55.5185-56.4595-64.0714-68.634C139.413,361.4939,136.27,375.826,124.998,363.6174,112.9206,350.5363,131.4663,347.0211,243.7742,243.9322Z"/><polygon class="cls-1" points="432.814 383.347 465.583 392.17 432.814 400.993 423.991 433.762 415.168 400.993 382.4 392.17 415.168 383.347 423.991 350.578 432.814 383.347"/><polygon class="cls-1" points="247.803 54.916 280.572 63.739 247.803 72.562 238.98 105.331 230.157 72.562 197.388 63.739 230.157 54.916 238.98 22.147 247.803 54.916"/><polygon class="cls-1" points="268.924 376.567 294.913 383.565 268.924 390.562 261.927 416.551 254.929 390.562 228.94 383.565 254.929 376.567 261.927 350.578 268.924 376.567"/><polygon class="cls-1" points="379.358 225.977 405.347 232.974 379.358 239.972 372.36 265.961 365.363 239.972 339.374 232.974 365.363 225.977 372.36 199.988 379.358 225.977"/><polygon class="cls-1" points="121.202 271.871 147.191 278.869 121.202 285.866 114.205 311.855 107.207 285.866 81.218 278.869 107.207 271.871 114.205 245.882 121.202 271.871"/><path class="cls-1" d="M157.9476,212.8954c0,14.2213-21.513,14.2415-21.513,0C136.4346,198.6741,157.9476,198.654,157.9476,212.8954Z"/><path class="cls-1" d="M291.328,158.3959c0,14.2213-21.513,14.2414-21.513,0C269.815,144.1746,291.328,144.1545,291.328,158.3959Z"/><path class="cls-1" d="M132.1321,105.3306c0,14.2213-21.513,14.2414-21.513,0C110.6191,91.1093,132.1321,91.0891,132.1321,105.3306Z"/><path class="cls-1" d="M173.7238,400.7753c0,14.2213-21.513,14.2415-21.513,0C152.2108,386.554,173.7238,386.5339,173.7238,400.7753Z"/><path class="cls-1" d="M358.7353,10.6735c0,14.2213-21.513,14.2415-21.513,0C337.2223-3.5478,358.7353-3.5679,358.7353,10.6735Z"/><path class="cls-1" d="M327.1829,453.8406c0,14.2213-21.5129,14.2415-21.5129,0C305.67,439.6194,327.1829,439.5992,327.1829,453.8406Z"/><path class="cls-1" d="M509.3261,311.8551c0,14.2212-21.513,14.2414-21.513,0C487.8131,297.6338,509.3261,297.6136,509.3261,311.8551Z"/><path class="cls-1" d="M520.8,191.3824c0,14.2213-21.513,14.2415-21.513,0C499.2867,177.1612,520.8,177.141,520.8,191.3824Z"/></g></g></svg>