<svg xmlns="http://www.w3.org/2000/svg" viewBox="0 0 465.5714 583.7454"><defs><style>.cls-1{fill:#464646;}</style></defs><g id="katman_2" data-name="katman 2"><g id="katman_1-2" data-name="katman 1"><path class="cls-1" d="M33.9887,518.5208a51.3989,51.3989,0,0,0,4.5054-10.19q2.1423-6.3266,4.1836-12.874,2.0369-6.5419,4.1841-12.3359a33.0011,33.0011,0,0,1,4.5054-8.7969,8.8751,8.8751,0,0,1,2.6821-2.4678,7.5865,7.5865,0,0,1,3.9692-.9648,4.084,4.084,0,0,1,3.4326,1.7158,6.284,6.284,0,0,1,1.2876,3.8623,3.6366,3.6366,0,0,1-1.9311,3.4326q-1.9307,1.0767-1.9312,2.5743,0,3.2182,3.2183,6.5439,3.2182,3.33,7.1875,7.51a56.6454,56.6454,0,0,1,7.1875,9.44,23.5843,23.5843,0,0,1,3.2183,12.5508,29.05,29.05,0,0,1-1.5015,9.2265,25.1579,25.1579,0,0,1-4.3984,8.045,22.9406,22.9406,0,0,1-7.1875,5.7929,20.93,20.93,0,0,1-9.87,2.253,20.5523,20.5523,0,0,1-9.2256-1.8233,16.3327,16.3327,0,0,1-5.7929-4.6133,16.6961,16.6961,0,0,1-3.0039-6.2216,20.6362,20.6362,0,0,1-.6436-6.4366c-.2847.2881-.7138.251-1.2871-.1074a5.7215,5.7215,0,0,1-1.6094-1.6094,14.11,14.11,0,0,1-1.2871-2.2529A2.3023,2.3023,0,0,1,33.9887,518.5208ZM50.938,491.0589a76.3492,76.3492,0,0,0-4.8272,12.7656q-1.8252,6.5463-4.1841,12.7656a3.4747,3.4747,0,0,1,2.1455-.6435q1.0716,0,.8584,1.3945a14.917,14.917,0,0,0-.2143,2.0381,7.01,7.01,0,0,0,2.1455,5.1494,7.2692,7.2692,0,0,0,5.3638,2.1455q4.9327,0,6.6508-3.1113a14.1909,14.1909,0,0,0,1.7168-6.9727,23.3388,23.3388,0,0,0-1.0727-7.1875,56.3656,56.3656,0,0,0-2.4678-6.3291q-1.3974-3.0029-3.0034-6.0078a30.2126,30.2126,0,0,1-2.4673-6.0068Q51.3653,490.2033,50.938,491.0589Z"/><path class="cls-1" d="M117.2339,495.5637q-1.9314,0-3.6475,2.27a18.6433,18.6433,0,0,0-2.7891,5.6191A28.6515,28.6515,0,0,0,109.51,510.69a21.6484,21.6484,0,0,0,.751,7.2383,12.3683,12.3683,0,0,0,3.3257,5.6182,8.8831,8.8831,0,0,0,6.4365,2.2695q4.2891,0,8.6895-3.8613,4.3945-3.8628,7.6167-13.5176a1.7516,1.7516,0,0,1,1.8232-1.0723q1.393,0,1.18,1.9307a43.3346,43.3346,0,0,1-3.2183,14.8848,35.74,35.74,0,0,1-6.9726,10.8613,29.113,29.113,0,0,1-9.2261,6.5713,24.5594,24.5594,0,0,1-9.9766,2.2256,21.0338,21.0338,0,0,1-10.2983-2.36,21.6633,21.6633,0,0,1-7.0806-6.1143,26.595,26.595,0,0,1-4.1836-8.582,35.042,35.042,0,0,1-1.3945-9.7627,40.8333,40.8333,0,0,1,1.7163-11.1562A40.04,40.04,0,0,1,93.6328,494.92a30.1612,30.1612,0,0,1,7.9385-8.26,18.1728,18.1728,0,0,1,10.7275-3.3261,13.6978,13.6978,0,0,1,9.2261,3.54q4.0729,3.54,4.0762,9.9766a6.5956,6.5956,0,0,1-1.2872,4.0771,3.7066,3.7066,0,0,1-3.0039,1.7158,2.0838,2.0838,0,0,1-2.36-2.3594,16.6153,16.6153,0,0,1,.3217-3.0039Q119.5935,495.5653,117.2339,495.5637Z"/><path class="cls-1" d="M191.895,511.012a41.7384,41.7384,0,0,1-1.502,6.4365,30.0394,30.0394,0,0,1-2.789,6.3291,17.8567,17.8567,0,0,1-4.291,4.9346,9.3905,9.3905,0,0,1-6.0078,2.0381,16.5333,16.5333,0,0,1-3.4336-.3213c-1.002-.2149-2.0039-.4629-3.0039-.751a32.4772,32.4772,0,0,1-9.2247,10.1914,21.2916,21.2916,0,0,1-12.6591,3.9688q-5.5818,0-10.1914-5.4707-4.6114-5.4712-4.6128-15.126a52.4892,52.4892,0,0,1,2.4672-16.628,40.7555,40.7555,0,0,1,6.33-12.3369,30.0411,30.0411,0,0,1,8.4746-7.6162,18.0512,18.0512,0,0,1,9.1177-2.6826q9.0117,0,13.0879,6.33a27.34,27.34,0,0,1,4.0762,15.126,41.27,41.27,0,0,1-.5352,6.5429,48.7385,48.7385,0,0,1-1.6093,6.7588,3.3088,3.3088,0,0,0,3.0039,1.9307q2.3583,0,4.8281-3.8613a36.4055,36.4055,0,0,0,3.9687-8.5821c.1407-.2851.4629-.43.9649-.43a3.642,3.642,0,0,1,1.6094.43,4.8583,4.8583,0,0,1,1.5019,1.18A1.7319,1.7319,0,0,1,191.895,511.012Zm-33.6856,16.0908q3.6446,0,6.4375-3.8613a6.4654,6.4654,0,0,1-.2148-1.9317,11.4306,11.4306,0,0,1,1.502-6.2216,5.7,5.7,0,0,1,3.4316-2.7891,36.967,36.967,0,0,0,1.0742-7.9385,16.8824,16.8824,0,0,0-1.1816-6.7588A4.0671,4.0671,0,0,0,165.29,494.92q-4.2949,0-7.4023,5.042a34.755,34.755,0,0,0-4.398,11.05,27.6991,27.6991,0,0,0-.3217,11.0488Q154.1328,527.1057,158.2094,527.1028Z"/><path class="cls-1" d="M199.4018,483.3343q-.6431,4.5059-1.9306,10.1914-1.2876,5.688-2.8965,11.3711-1.61,5.6879-3.54,10.8349a67.6163,67.6163,0,0,1-4.0761,9.0117q-.4278.6431-1.2881.1075a5.7376,5.7376,0,0,1-1.6084-1.6094,12.5444,12.5444,0,0,1-1.2881-2.36,2.5047,2.5047,0,0,1,.1074-2.36,49.8155,49.8155,0,0,0,3.8623-8.5821q1.9307-5.36,3.54-11.5859a96.4083,96.4083,0,0,0,2.36-12.3359,65.9877,65.9877,0,0,0,.5362-10.835c0-.43.3212-.8926.9658-1.3945a7.5574,7.5574,0,0,1,2.2519-1.1807,18.33,18.33,0,0,1,2.4678-.6435c.7842-.1407,1.25-.07,1.3945.2148a18.097,18.097,0,0,1,0,4.0762c0,.5732.3555.8584,1.0733.8584q2.7846.2167,7.08.8584a26.6809,26.6809,0,0,1,8.26,2.6816,21.532,21.532,0,0,1,6.8657,5.5781q2.8961,3.5406,2.8965,9.5479a39.7966,39.7966,0,0,1-2.0381,12.4443,40.36,40.36,0,0,0-2.039,12.6582,21.3778,21.3778,0,0,0,.4326,3.97c.2881,1.5009.9424,2.2519,1.9551,2.2519a5.75,5.75,0,0,0,4.2334-2.3594,31.979,31.979,0,0,0,3.7988-5.4716,61.3683,61.3683,0,0,0,3.0371-6.2217q1.3023-3.1085,1.9541-4.8272a1.7762,1.7762,0,0,1,1.8438-1.0732q1.4076,0,1.1972,1.9306a49.62,49.62,0,0,1-2.8066,14.59,41.494,41.494,0,0,1-5.8223,10.9424,24.8526,24.8526,0,0,1-7.7646,6.8652,18.1915,18.1915,0,0,1-8.8433,2.36,13.3579,13.3579,0,0,1-6.041-1.3946,14.2841,14.2841,0,0,1-4.7471-3.7549,17.8132,17.8132,0,0,1-3.02-5.3632,18.327,18.327,0,0,1-1.0752-6.2227,43.2356,43.2356,0,0,1,.9981-8.6894q.996-4.8267,2.22-9.8692,1.2173-5.0376,2.22-9.8691a43.5287,43.5287,0,0,0,.999-8.69,6.21,6.21,0,0,0-1.7675-4.8271,11.78,11.78,0,0,0-4.8536-2.4678C199.7671,482.4055,199.4018,482.62,199.4018,483.3343Z"/><path class="cls-1" d="M253.2529,528.3909q-.6431,7.7226-.6435,17.5928t.8583,21.455a3.039,3.039,0,0,1-1.9511,3.004,19.557,19.557,0,0,0-6.1817,4.1835,25.6079,25.6079,0,0,0-3.2519,4.2911q-1.1969,2.0376-2.0615,3.4336a2.681,2.681,0,0,1-2.3838,1.3945c-.5762,0-1.12-.8252-1.6289-2.4678a50.6663,50.6663,0,0,1-1.4082-6.5439q-.649-4.0782-.9756-9.333-.3224-5.2545-.3252-10.835a288.55,288.55,0,0,1,2.1689-34.65,162.0745,162.0745,0,0,1,7.59-33.5771q1.0811-2.7862,3.2519-3.0039a31.9541,31.9541,0,0,0,8.6455-1.8233,18.16,18.16,0,0,0,6.45-4.1836q1.7139-1.7153,3.2178-1.3945,1.4985.3208.43,3.3252-1.0767,3.0073-2.4678,6.6513-1.3974,3.65-2.4668,7.295c-.1445.4287,0,.4287.4287,0a37.1581,37.1581,0,0,1,6.6514-6.9737,10.2441,10.2441,0,0,1,6.2217-2.2529q6.8641,0,10.5136,6.4365a29.9729,29.9729,0,0,1,3.6465,15.02,73.5357,73.5357,0,0,1-1.2871,14.375h.8584q2.3585,0,5.1494-3.5411a20.5682,20.5682,0,0,0,3.8623-8.0449c.1407-.2851.462-.43.9649-.43a3.6387,3.6387,0,0,1,1.6094.43,4.8467,4.8467,0,0,1,1.5019,1.18,1.7339,1.7339,0,0,1,.4287,1.6094q-.6431,3.2183-1.7158,6.7578a24.2306,24.2306,0,0,1-3.0039,6.4365,16.4786,16.4786,0,0,1-4.7207,4.7207,12.2787,12.2787,0,0,1-6.8652,1.8233h-1.2872a28.0119,28.0119,0,0,1-6.6513,9.6552,12.3612,12.3612,0,0,1-8.3672,3.4327,11.5346,11.5346,0,0,1-9.6553-4.3985,27.5791,27.5791,0,0,1-4.9346-11.2637C253.3232,527.7473,253.2529,527.8206,253.2529,528.3909Zm12.4443-28.9649a5.6972,5.6972,0,0,0-3.6474,1.3946,12.415,12.415,0,0,0-3.0039,3.7549,26.8378,26.8378,0,0,0-2.1455,5.2558,19.9314,19.9314,0,0,0-.8584,5.6865,24.8692,24.8692,0,0,0,.9658,6.9727q.9653,3.3282,3.7549,3.3252,3.2183,0,5.6855-4.0762a27.4185,27.4185,0,0,0,3.4326-9.1181,23.144,23.144,0,0,0,.1075-9.1192Q269.1284,499.43,265.6972,499.426Z"/><path class="cls-1" d="M321.2636,480.33q-2.1474,7.941-4.1835,18.2374a99.5435,99.5435,0,0,0-2.0391,19.31,24.7331,24.7331,0,0,0,.751,6.4365q.75,2.7921,2.4677,2.7891,2.1417,0,4.1836-2.3594a32.0642,32.0642,0,0,0,3.7549-5.4716,61.5826,61.5826,0,0,0,3.0039-6.2217q1.2876-3.1085,1.9307-4.8272a1.752,1.752,0,0,1,1.8242-1.0732q1.3916,0,1.18,1.9306a49.98,49.98,0,0,1-2.7891,14.59,41.6859,41.6859,0,0,1-5.7929,10.9424,24.8153,24.8153,0,0,1-7.7237,6.8652,18.0229,18.0229,0,0,1-8.7968,2.36,10.5572,10.5572,0,0,1-6.0079-1.7159,15.1009,15.1009,0,0,1-4.3984-4.6132,23.4038,23.4038,0,0,1-2.7891-6.544,28.3945,28.3945,0,0,1-.9658-7.2949,154.9239,154.9239,0,0,1,1.1807-18.2363,132.6274,132.6274,0,0,1,3.3252-18.0225,3.4278,3.4278,0,0,1,3.2187-3.0039q9.8658-.8555,15.0186-6.0078,1.7139-1.7139,3.1113-1.3945Q322.119,477.3274,321.2636,480.33Zm-2.1455-30.2519a2.6294,2.6294,0,0,1,2.0381,1.3955q.9654,1.3974.9658,5.2559a19.3274,19.3274,0,0,1-.8584,5.1494,27.917,27.917,0,0,1-2.4677,5.9,17.1176,17.1176,0,0,1-4.0762,4.9345,8.6582,8.6582,0,0,1-5.6855,2.0381,5.6056,5.6056,0,0,1-4.7207-1.9306,7.4487,7.4487,0,0,1-1.502-4.7207,7.2917,7.2917,0,0,1,1.0732-3.754,7.5108,7.5108,0,0,1,3.2178-2.8964,19.522,19.522,0,0,0,5.042-3.6475,23.9045,23.9045,0,0,0,2.8965-3.6475q1.0722-1.7153,1.9316-2.8964A2.5709,2.5709,0,0,1,319.1181,450.0784Z"/><path class="cls-1" d="M386.6992,511.012a41.5072,41.5072,0,0,1-1.502,6.4365,29.9882,29.9882,0,0,1-2.789,6.3291,17.84,17.84,0,0,1-4.291,4.9346,9.3886,9.3886,0,0,1-6.0078,2.0381,16.5182,16.5182,0,0,1-3.4327-.3213c-1.0029-.2149-2.0048-.4629-3.0039-.751a32.4679,32.4679,0,0,1-9.2256,10.1914,21.2883,21.2883,0,0,1-12.6591,3.9688q-5.581,0-10.19-5.4707-4.6113-5.4712-4.6132-15.126a52.46,52.46,0,0,1,2.4677-16.628,40.7437,40.7437,0,0,1,6.3291-12.3369,30.0465,30.0465,0,0,1,8.4746-7.6162,18.0529,18.0529,0,0,1,9.1182-2.6826q9.0117,0,13.0879,6.33a27.3478,27.3478,0,0,1,4.0762,15.126,41.2733,41.2733,0,0,1-.5362,6.5429,48.61,48.61,0,0,1-1.6093,6.7588,3.3088,3.3088,0,0,0,3.0039,1.9307q2.3583,0,4.8281-3.8613a36.4055,36.4055,0,0,0,3.9687-8.5821c.1407-.2851.4629-.43.9659-.43a3.6381,3.6381,0,0,1,1.6084.43,4.8467,4.8467,0,0,1,1.5019,1.18A1.7319,1.7319,0,0,1,386.6992,511.012Zm-33.6846,16.0908q3.6446,0,6.4365-3.8613a6.4654,6.4654,0,0,1-.2148-1.9317,11.4385,11.4385,0,0,1,1.502-6.2216,5.7042,5.7042,0,0,1,3.4326-2.7891,37.0208,37.0208,0,0,0,1.0732-7.9385,16.8835,16.8835,0,0,0-1.1806-6.7588,4.0679,4.0679,0,0,0-3.9688-2.6816q-4.2949,0-7.4023,5.042a34.7327,34.7327,0,0,0-4.3985,11.05,27.673,27.673,0,0,0-.3213,11.0488Q348.938,527.1057,353.0146,527.1028Z"/><path class="cls-1" d="M133.311,78.5326C144.93,65.266,152.4052,54.426,170.0484,46.8317c17.8914-7.7011,33.7529-2.1211,42.2875,15.4553,12.807,26.3753,3.1765,34.2821,13.6433,20.3431,29.8946-39.8116,61.85-37.3588,78.5227-11.6031,37.9831,58.6771-6.7935,229.5687,43.7658,313.9875,14.3864,24.0209,36.1914,23.8177,62.2948,20.4664-4.6852-11.8343-6.4345-11.5468-11.6264-22.2313-4.3176-8.8852,7.0185-18.5489,15.55-10.3676,1.9789,1.8976,21.753,33.31,22.4232,34.3837,6.1215,9.8106,1.017,18.77-7.9344,32.4681-12.8959,19.7347-20.7976,35.6165-32.2069,28.5412-13.2437-8.2128,2.8967-23.334,12.9392-39.6933-27.1647,0-78.67,11.6138-100.3249-83.3218-20.03-87.8126,2.7438-216.1964-23.3614-262.05-17.6027-30.9188-61.856,27.194-62.6936,59.8812-.0039.1511-5.8077,203.3214-6.5841,206.8631-3.0392,13.8634-21.3984,11.9571-21.487-2.0771-.3646-57.6955,13.0872-241.1163-1.94-274.7071-3.5738-7.9889-7.7911-9.4881-15.8171-5.5385-14.9348,7.3494-31.9245,26.0263-38.9726,50.5868-3.3876,11.8049,1.0547,1.0481-6.3209,114.2016-7.458,114.4177.7974,127.5551-14.5062,129.1858-20.9141,2.2287-10.33-28.2616-3.5793-192.2629,1.0133-24.6194,2.4068-65.7244-4.3261-89.531-2.417-8.5461-6.4684-9.8811-14.2668-5.3251-12.175,7.1131-22.26,16.7956-31.5053,27.3259-12.3058,14.0156-25.32.2074-15.5362-12.0452C59.8115,75.5841,80.5705,53.5679,98.5484,50.55,121.9723,46.6174,128.1479,67.0145,133.311,78.5326Z"/><polygon class="cls-1" points="419.613 299.888 453.653 309.053 419.613 318.218 410.448 352.258 401.283 318.218 367.243 309.053 401.283 299.888 410.448 265.848 419.613 299.888"/><polygon class="cls-1" points="63.544 170.273 97.584 179.438 63.544 188.603 54.379 222.643 45.214 188.603 11.174 179.438 45.214 170.273 54.379 136.233 63.544 170.273"/><polygon class="cls-1" points="337.266 38.085 364.263 45.354 337.266 52.623 329.997 79.62 322.728 52.623 295.731 45.354 322.728 38.085 329.997 11.088 337.266 38.085"/><polygon class="cls-1" points="438.574 137.903 465.571 145.172 438.574 152.441 431.305 179.438 424.036 152.441 397.039 145.172 424.036 137.903 431.305 110.906 438.574 137.903"/><polygon class="cls-1" points="165.936 415.011 192.933 422.28 165.936 429.549 158.667 456.546 151.398 429.549 124.401 422.28 151.398 415.011 158.667 388.014 165.936 415.011"/><path class="cls-1" d="M180.2693,179.4382c0,14.7729-22.3475,14.7938-22.3475,0C157.9218,164.6652,180.2693,164.6443,180.2693,179.4382Z"/><path class="cls-1" d="M375.4368,197.3161c0,14.7729-22.3474,14.7939-22.3474,0C353.0894,182.5432,375.4368,182.5223,375.4368,197.3161Z"/><path class="cls-1" d="M283.0674,274.7872c0,14.7729-22.3474,14.7938-22.3474,0C260.72,260.0143,283.0674,259.9933,283.0674,274.7872Z"/><path class="cls-1" d="M259.23,382.0548c0,14.773-22.3475,14.7939-22.3475,0C236.8827,367.2819,259.23,367.261,259.23,382.0548Z"/><path class="cls-1" d="M305.4149,444.6276c0,14.773-22.3475,14.7939-22.3475,0C283.0674,429.8547,305.4149,429.8338,305.4149,444.6276Z"/><path class="cls-1" d="M67.0423,371.626c0,14.773-22.3474,14.7939-22.3474,0C44.6949,356.8531,67.0423,356.8322,67.0423,371.626Z"/><path class="cls-1" d="M22.3474,265.8482c0,14.7729-22.3474,14.7939-22.3474,0C0,251.0753,22.3474,251.0544,22.3474,265.8482Z"/><path class="cls-1" d="M208.576,11.0875c0,14.773-22.3474,14.7939-22.3474,0C186.2286-3.6854,208.576-3.7063,208.576,11.0875Z"/></g></g></svg>