<svg xmlns="http://www.w3.org/2000/svg" viewBox="0 0 411.1323 521.2443"><defs><style>.cls-1{fill:#464646;}</style></defs><g id="katman_2" data-name="katman 2"><g id="katman_1-2" data-name="katman 1"><path class="cls-1" d="M172.7265,202.246c-6.5744-8.2052-2.6618,2.9428-45.0042-40.4937C65.1078,97.52,46.8526,113.6285,34.8615,112.84,24.4856,112.1579,22.7345,98.78,32.79,96.1514c75.54-19.7445,112.4871,85.6212,175.68,97.2382,55.4933,10.2015,95.68-113.6627,181.2179-97.6836,13.496,2.5212,8.9875,19.3068-3.0019,16.9849-49.94-9.6717-80.6737,48.8558-139.0071,91.2912,58.6032,25.5354,79.0779,84.651,62.8623,134.0659-33.4884,102.052-177.89,98.2268-206.6758-3.975C89.2181,282.071,114.0914,224.2781,172.7265,202.246ZM207.28,393.5239c46.1321.3707,88.7576-35.04,89.3752-88.16.5719-49.1893-37.3916-87.684-85.8962-89.4974-47.25-1.7664-90.55,34.3238-91.7773,87.0521C117.83,352.4272,156.869,393.1188,207.28,393.5239Z"/><polygon class="cls-1" points="45.807 184.117 75.581 192.134 45.807 200.15 37.79 229.924 29.774 200.15 0 192.134 29.774 184.117 37.79 154.344 45.807 184.117"/><polygon class="cls-1" points="305.126 75.959 334.9 83.975 305.126 91.992 297.11 121.766 289.093 91.992 259.32 83.975 289.093 75.959 297.11 46.185 305.126 75.959"/><polygon class="cls-1" points="378.101 287.063 407.874 295.08 378.101 303.096 370.084 332.87 362.068 303.096 332.294 295.08 362.068 287.063 370.084 257.29 378.101 287.063"/><polygon class="cls-1" points="117.123 43.737 140.736 50.094 117.123 56.452 110.765 80.066 104.407 56.452 80.793 50.094 104.407 43.737 110.765 20.123 117.123 43.737"/><polygon class="cls-1" points="205.734 308.269 229.348 314.627 205.734 320.984 199.376 344.598 193.018 320.984 169.405 314.627 193.018 308.269 199.376 284.655 205.734 308.269"/><path class="cls-1" d="M335.5517,192.1338c0,12.9215-19.5467,12.94-19.5467,0C316.005,179.2124,335.5517,179.1941,335.5517,192.1338Z"/><path class="cls-1" d="M325.1268,373.2666c0,12.9215-19.5467,12.94-19.5467,0C305.58,360.3451,325.1268,360.3268,325.1268,373.2666Z"/><path class="cls-1" d="M99.6882,231.2272c0,12.9215-19.5467,12.94-19.5467,0C80.1415,218.3058,99.6882,218.2875,99.6882,231.2272Z"/><path class="cls-1" d="M407.2229,146.5249c0,12.9215-19.5467,12.94-19.5467,0C387.6762,133.6034,407.2229,133.5851,407.2229,146.5249Z"/><path class="cls-1" d="M411.1323,232.53c0,12.9214-19.5467,12.94-19.5467,0C391.5856,219.6089,411.1323,219.5906,411.1323,232.53Z"/><path class="cls-1" d="M198.7248,107.4315c0,12.9215-19.5467,12.94-19.5467,0C179.1781,94.51,198.7248,94.4917,198.7248,107.4315Z"/><path class="cls-1" d="M111.4162,379.7822c0,12.9214-19.5467,12.94-19.5467,0C91.87,366.8607,111.4162,366.8424,111.4162,379.7822Z"/><path class="cls-1" d="M47.5636,295.08c0,12.9215-19.5467,12.94-19.5467,0C28.0169,282.1583,47.5636,282.14,47.5636,295.08Z"/><path class="cls-1" d="M240.4244,9.698c0,12.9214-19.5467,12.94-19.5467,0C220.8777-3.2235,240.4244-3.2418,240.4244,9.698Z"/><path class="cls-1" d="M42.4061,464.8175a.38.38,0,0,1-.4292-.43l.4292-2.1455a.38.38,0,0,1,.4292-.4287q2.5745,0,4.72-3.3262a25.5445,25.5445,0,0,0,3.2182-9.1181,3.4427,3.4427,0,0,1,3.2183-3.0039,31.7132,31.7132,0,0,0,8.582-1.8233,18.194,18.194,0,0,0,6.4366-4.1836q1.7145-1.7153,2.8964-1.3945,1.177.3209.751,3.3252l-3.8618,18.666a.7576.7576,0,0,0,.8579.8584h4.0767a.38.38,0,0,1,.4292.4287l-.4292,2.1455a.3793.3793,0,0,1-.4292.43H69.2254a1.1493,1.1493,0,0,0-1.2876.8574q-1.72,8.1563-2.7891,16.0918a103.0839,103.0839,0,0,0-1.0727,13.5166,15.5336,15.5336,0,0,0,.8584,6.1153,2.7433,2.7433,0,0,0,2.5742,1.8232,5.8482,5.8482,0,0,0,4.1841-2.1455,28.0778,28.0778,0,0,0,3.7544-5.042,56.113,56.113,0,0,0,3.0039-5.793,30.3511,30.3511,0,0,0,1.7163-4.6123,1.7519,1.7519,0,0,1,1.8237-1.0732q1.3931,0,1.18,1.9307a49.9964,49.9964,0,0,1-2.7891,14.59,41.6712,41.6712,0,0,1-5.7929,10.9424,24.8121,24.8121,0,0,1-7.7241,6.8652,18.0214,18.0214,0,0,1-8.7964,2.36,10.5567,10.5567,0,0,1-6.0078-1.7159,15.0869,15.0869,0,0,1-4.398-4.6132,23.4015,23.4015,0,0,1-2.79-6.544,28.389,28.389,0,0,1-.9654-7.2949,144.5973,144.5973,0,0,1,1.0728-17.7q1.0707-8.69,2.789-17.7012a.76.76,0,0,0-.8579-.8574Z"/><path class="cls-1" d="M111.7034,504.9386a40.4458,40.4458,0,0,1-9.8691,11.9072q-5.5818,4.4-11.1567,4.3985a9.8352,9.8352,0,0,1-8.4751-4.3985,24.2222,24.2222,0,0,1-3.9693-11.0488,48.4572,48.4572,0,0,1,.4292-14.2686,52.81,52.81,0,0,1,4.5059-14.2675,33.5021,33.5021,0,0,1,8.3672-11.0489,17.9346,17.9346,0,0,1,12.0151-4.3984,15.849,15.849,0,0,1,6.5439,1.3945,11.5338,11.5338,0,0,1,5.042,4.3985c.2847.2881.4995.2138.6436-.2149l.6435-2.5742a3.4275,3.4275,0,0,1,3.2183-3.0039q9.8664-.8555,15.0186-6.0078,1.7152-1.7139,3.1113-1.3945,1.393.3222.5361,3.3252-2.1466,7.9614-4.1836,18.3115a100.57,100.57,0,0,0-2.0381,19.41,17.1446,17.1446,0,0,0,.751,5.7159,2.6,2.6,0,0,0,2.4673,2.0478,6.4958,6.4958,0,0,0,4.5054-2.0381,20.4449,20.4449,0,0,0,3.7549-4.9346,53.6761,53.6761,0,0,0,2.789-5.7929q1.177-2.8961,1.8238-4.6133a1.7519,1.7519,0,0,1,1.8237-1.0723q1.3931,0,1.18,1.9307a49.6792,49.6792,0,0,1-2.79,14.5625,40.8486,40.8486,0,0,1-5.793,10.8652,25.189,25.189,0,0,1-7.6162,6.7852,17.6035,17.6035,0,0,1-8.6894,2.33,11.1524,11.1524,0,0,1-9.5479-4.9346,24.569,24.569,0,0,1-4.3979-11.1563c0-.2851-.0742-.4628-.2149-.5371C111.9886,504.546,111.8445,504.6534,111.7034,504.9386Zm-9.0112-1.7168a5.8958,5.8958,0,0,0,4.3984-2.2695,19.0179,19.0179,0,0,0,3.4331-5.836,41.0926,41.0926,0,0,0,2.1455-7.8916,49.3446,49.3446,0,0,0,.751-8.4316,3.7547,3.7547,0,0,0-1.0727-2.92,3.7168,3.7168,0,0,0-2.5747-.9717,7.1278,7.1278,0,0,0-4.9351,1.9473,16.9183,16.9183,0,0,0-3.647,4.8642,25.74,25.74,0,0,0-2.2529,6.376,31.4409,31.4409,0,0,0-.751,6.7021,14.7454,14.7454,0,0,0,1.0728,6.0538A3.5714,3.5714,0,0,0,102.6922,503.2218Z"/><path class="cls-1" d="M176.2811,501.9347a40.2965,40.2965,0,0,1-9.0118,14.16q-5.3641,5.15-9.44,5.1494a7.0451,7.0451,0,0,1-5.042-1.9307,14.38,14.38,0,0,1-3.3257-5.042,28.4816,28.4816,0,0,1-1.8237-7.08,62.06,62.06,0,0,1-.5361-8.2607,93.0475,93.0475,0,0,1,.5361-9.7617q.5384-5.0391,1.18-9.7627.6438-4.7169,1.3945-8.5821.7492-3.8613,1.18-6.4365a2.5692,2.5692,0,0,1,2.789-2.36l14.8042-.2139q2.3585,0,1.9307,2.3594-.4321,1.9321-1.0723,5.1494-.6444,3.2182-1.18,7.08-.5391,3.8628-.9659,7.832a66.9459,66.9459,0,0,0-.43,7.1875,29.1413,29.1413,0,0,0,.6446,6.3291q.643,2.8961,1.9306,2.8965,2.7862,0,4.72-4.7207a62.8191,62.8191,0,0,0,3.2187-10.835q1.2876-6.1143,2.0381-12.0146a69.2845,69.2845,0,0,1,1.3945-8.26,3.4272,3.4272,0,0,1,3.2188-3.0039q9.8656-.8555,15.0181-6.0078,1.7138-1.7139,3.11-1.3945,1.393.3222.5371,3.3252-2.1474,7.9409-4.1846,18.2373a99.6238,99.6238,0,0,0-2.038,19.31q0,7.941,3.8623,7.9385a5.5207,5.5207,0,0,0,4.0761-2.1455,27.2406,27.2406,0,0,0,3.54-5.042,48.9481,48.9481,0,0,0,2.789-5.9q1.1778-3.0015,1.8243-4.5049a1.7515,1.7515,0,0,1,1.8232-1.0732q1.393,0,1.1807,1.9307a49.98,49.98,0,0,1-2.7891,14.59,41.6861,41.6861,0,0,1-5.793,10.9424,24.8058,24.8058,0,0,1-7.7246,6.8652,18.0177,18.0177,0,0,1-8.7954,2.36,11.2289,11.2289,0,0,1-10.1914-5.9,28.4685,28.4685,0,0,1-3.97-13.1944C176.71,501.1505,176.5662,501.0763,176.2811,501.9347Z"/><path class="cls-1" d="M224.9808,460.74q-.643,4.5059-1.9307,10.1914-1.2876,5.688-2.8965,11.3711-1.61,5.688-3.54,10.8349a67.6159,67.6159,0,0,1-4.0762,9.0117q-.4276.6431-1.2881.1075a5.7389,5.7389,0,0,1-1.6084-1.6094,12.5444,12.5444,0,0,1-1.2881-2.36,2.505,2.505,0,0,1,.1075-2.36,49.8176,49.8176,0,0,0,3.8623-8.582q1.9307-5.36,3.54-11.586a96.4089,96.4089,0,0,0,2.36-12.3359,65.9867,65.9867,0,0,0,.5361-10.835c0-.43.3213-.8926.9658-1.3945a7.558,7.558,0,0,1,2.252-1.1807,18.3326,18.3326,0,0,1,2.4677-.6435c.7842-.1407,1.25-.07,1.3946.2148a18.11,18.11,0,0,1,0,4.0762c0,.5732.3554.8584,1.0732.8584q2.7848.2167,7.08.8584a26.6815,26.6815,0,0,1,8.26,2.6816,21.53,21.53,0,0,1,6.8662,5.5781q2.8959,3.5406,2.8965,9.5479a39.8,39.8,0,0,1-2.0381,12.4443,40.3569,40.3569,0,0,0-2.0391,12.6582,21.3778,21.3778,0,0,0,.4326,3.97c.2881,1.5009.9424,2.2519,1.9551,2.2519a5.75,5.75,0,0,0,4.2334-2.3594,31.9694,31.9694,0,0,0,3.7988-5.4716,61.326,61.326,0,0,0,3.0371-6.2217q1.3023-3.1085,1.9541-4.8272a1.7762,1.7762,0,0,1,1.8438-1.0732q1.4077,0,1.1973,1.9307a49.62,49.62,0,0,1-2.8067,14.59,41.4911,41.4911,0,0,1-5.8223,10.9424,24.8515,24.8515,0,0,1-7.7646,6.8652,18.1934,18.1934,0,0,1-8.8438,2.36,13.3579,13.3579,0,0,1-6.041-1.3946,14.2847,14.2847,0,0,1-4.747-3.7548,17.81,17.81,0,0,1-3.02-5.3633,18.327,18.327,0,0,1-1.0752-6.2227,43.2349,43.2349,0,0,1,.998-8.6894q.9962-4.8267,2.22-9.8692,1.2174-5.0376,2.22-9.8691a43.5361,43.5361,0,0,0,.999-8.69,6.21,6.21,0,0,0-1.7676-4.8271,11.78,11.78,0,0,0-4.8535-2.4678C225.346,459.8116,224.9808,460.0265,224.9808,460.74Z"/><path class="cls-1" d="M291.2767,501.9347a40.2978,40.2978,0,0,1-9.0117,14.16q-5.3643,5.15-9.44,5.1494a7.0442,7.0442,0,0,1-5.042-1.9307,14.3738,14.3738,0,0,1-3.3262-5.042,28.4384,28.4384,0,0,1-1.8232-7.08,61.9737,61.9737,0,0,1-.5371-8.2607,92.92,92.92,0,0,1,.5371-9.7617q.5376-5.0391,1.18-9.7627.6445-4.7169,1.3945-8.5821.75-3.8613,1.1807-6.4365a2.5684,2.5684,0,0,1,2.789-2.36l14.8037-.2139q2.3585,0,1.9307,2.3594-.4321,1.9321-1.0723,5.1494-.6444,3.2182-1.18,7.08-.5391,3.8628-.9659,7.832a66.97,66.97,0,0,0-.43,7.1875,29.1415,29.1415,0,0,0,.6445,6.3291q.6431,2.8961,1.9306,2.8965,2.7862,0,4.72-4.7207a62.8191,62.8191,0,0,0,3.2187-10.835q1.2876-6.1143,2.0381-12.0146a69.2845,69.2845,0,0,1,1.3945-8.26,3.4273,3.4273,0,0,1,3.2188-3.0039q9.8656-.8555,15.0185-6.0078,1.7139-1.7139,3.11-1.3945,1.3931.3222.5371,3.3252-2.1474,7.9409-4.1846,18.2373a99.6238,99.6238,0,0,0-2.038,19.31q0,7.941,3.8623,7.9385a5.5207,5.5207,0,0,0,4.0761-2.1455,27.2406,27.2406,0,0,0,3.54-5.042,48.9481,48.9481,0,0,0,2.789-5.9q1.1778-3.0015,1.8242-4.5049a1.7516,1.7516,0,0,1,1.8233-1.0732q1.3931,0,1.1807,1.9307a49.98,49.98,0,0,1-2.7891,14.59,41.6861,41.6861,0,0,1-5.793,10.9424,24.8058,24.8058,0,0,1-7.7246,6.8652,18.02,18.02,0,0,1-8.7959,2.36,11.2289,11.2289,0,0,1-10.1914-5.9,28.4685,28.4685,0,0,1-3.97-13.1944C291.7054,501.1505,291.5618,501.0763,291.2767,501.9347Z"/><path class="cls-1" d="M323.4564,495.9269a51.3176,51.3176,0,0,0,4.5058-10.19q2.1417-6.3267,4.1836-12.8741,2.0361-6.5419,4.1836-12.3359a33.03,33.03,0,0,1,4.5059-8.7969,8.8733,8.8733,0,0,1,2.6816-2.4678,7.5887,7.5887,0,0,1,3.97-.9648,4.0845,4.0845,0,0,1,3.4326,1.7158,6.2836,6.2836,0,0,1,1.2872,3.8623,3.6363,3.6363,0,0,1-1.9307,3.4326q-1.9306,1.0767-1.9307,2.5743,0,3.2182,3.2178,6.5439,3.2183,3.33,7.1875,7.51a56.6185,56.6185,0,0,1,7.1875,9.44,23.5845,23.5845,0,0,1,3.2188,12.5508,29.0507,29.0507,0,0,1-1.502,9.2265,25.1675,25.1675,0,0,1-4.3984,8.045,22.935,22.935,0,0,1-7.1875,5.7929,20.9289,20.9289,0,0,1-9.8692,2.253,20.5547,20.5547,0,0,1-9.2265-1.8233,16.3273,16.3273,0,0,1-5.792-4.6133,16.6808,16.6808,0,0,1-3.0039-6.2216,20.5914,20.5914,0,0,1-.6436-6.4366c-.2851.2881-.7148.251-1.2881-.1074a5.7256,5.7256,0,0,1-1.6084-1.6094,14.1544,14.1544,0,0,1-1.2881-2.2529A2.3057,2.3057,0,0,1,323.4564,495.9269Zm16.95-27.4619a76.3537,76.3537,0,0,0-4.8282,12.7656q-1.8252,6.5465-4.1836,12.7656a3.4737,3.4737,0,0,1,2.1455-.6435q1.0709,0,.8584,1.3945a14.8568,14.8568,0,0,0-.2148,2.0381,7.0135,7.0135,0,0,0,2.1455,5.1494,7.2711,7.2711,0,0,0,5.3643,2.1455q4.9335,0,6.6513-3.1113a14.2011,14.2011,0,0,0,1.7159-6.9727,23.3388,23.3388,0,0,0-1.0723-7.1875,56.3656,56.3656,0,0,0-2.4678-6.3291q-1.3974-3.0028-3.0039-6.0078a30.21,30.21,0,0,1-2.4668-6.0068Q340.8334,467.61,340.4066,468.465Z"/></g></g></svg>