<svg xmlns="http://www.w3.org/2000/svg" viewBox="0 0 471.2893 585.2008"><defs><style>.cls-1{fill:#464646;}</style></defs><g id="katman_2" data-name="katman 2"><g id="katman_1-2" data-name="katman 1"><path class="cls-1" d="M135.5748,530.276A40.8023,40.8023,0,0,1,125.92,540.36a20.41,20.41,0,0,1-12.23,3.8613q-7.7241,0-10.7275-5.9707a31.2632,31.2632,0,0,1-3.0039-14.1972A88.4031,88.4031,0,0,1,101.89,505.28q1.9307-8.9,4.291-18.13a2.7492,2.7492,0,0,1,2.7891-2.3593l15.4478-.2149q2.5744,0,1.9311,2.36-.86,3.65-2.0386,7.831-1.1814,4.1837-2.2524,8.3672-1.0767,4.1836-1.8237,8.1533a38.8137,38.8137,0,0,0-.751,7.1875,15.378,15.378,0,0,0,.8584,5.4707q.8547,2.253,2.5742,2.253a11.9758,11.9758,0,0,0,9.0112-4.1328A17.41,17.41,0,0,1,133,516.4371a5.8358,5.8358,0,0,1,4.0767-3.97,45.8957,45.8957,0,0,0,2.1455-9.2256,56.3188,56.3188,0,0,0,.4292-9.7617,68.584,68.584,0,0,0-.9659-9.0117,26.7348,26.7348,0,0,0-2.2524-7.1875c-.4292-.7139-.2886-1.2129.4292-1.502q5.1489-1.2876,7.8311,2.0381,2.68,3.33,3.3256,9.44a51.1719,51.1719,0,0,1-.7509,14.0537,82.7746,82.7746,0,0,1-4.3985,15.6621,1.7872,1.7872,0,0,0,0,1.7168,4.16,4.16,0,0,0,3.2183,1.9306q2.7861,0,5.042-3.7548a41.5081,41.5081,0,0,0,3.7544-8.26c.1411-.2852.4629-.43.9658-.43a3.6371,3.6371,0,0,1,1.6089.43,4.8583,4.8583,0,0,1,1.5019,1.18,1.7326,1.7326,0,0,1,.4292,1.6094q-.6438,3.2183-1.7163,6.8652a26.0922,26.0922,0,0,1-2.8965,6.5439,16.5447,16.5447,0,0,1-4.6128,4.8272,11.7725,11.7725,0,0,1-6.8657,1.9316,11.6075,11.6075,0,0,1-6.2221-1.7168C136.6476,529.5612,136.1446,529.7057,135.5748,530.276Z"/><path class="cls-1" d="M180.2,480.7135q-2.1474,7.941-4.1841,18.2373a99.5863,99.5863,0,0,0-2.0381,19.31,24.7374,24.7374,0,0,0,.751,6.4365q.7493,2.792,2.4673,2.7891,2.1423,0,4.1836-2.3594a32.0423,32.0423,0,0,0,3.7549-5.4717,61.7114,61.7114,0,0,0,3.0039-6.2217q1.2869-3.1083,1.9306-4.8271a1.7519,1.7519,0,0,1,1.8238-1.0732q1.393,0,1.18,1.9306a49.9971,49.9971,0,0,1-2.789,14.59,41.6736,41.6736,0,0,1-5.793,10.9423,24.81,24.81,0,0,1-7.7241,6.8653,18.0224,18.0224,0,0,1-8.7964,2.36,10.5571,10.5571,0,0,1-6.0078-1.7158,15.0873,15.0873,0,0,1-4.398-4.6133,23.4025,23.4025,0,0,1-2.79-6.5439,28.3894,28.3894,0,0,1-.9653-7.2949,154.8315,154.8315,0,0,1,1.18-18.2364,132.7213,132.7213,0,0,1,3.3252-18.0224,3.4274,3.4274,0,0,1,3.2188-3.0039q9.8656-.8555,15.0185-6.0078,1.7147-1.7139,3.1109-1.3946Q181.0568,477.7107,180.2,480.7135Zm-2.1455-30.2519a2.63,2.63,0,0,1,2.0381,1.3955q.9653,1.3974.9653,5.2558a19.3069,19.3069,0,0,1-.8579,5.1494,27.9362,27.9362,0,0,1-2.4678,5.9,17.1231,17.1231,0,0,1-4.0762,4.9346,8.6576,8.6576,0,0,1-5.6855,2.0381,5.6047,5.6047,0,0,1-4.72-1.9307,7.4454,7.4454,0,0,1-1.502-4.7207,7.2949,7.2949,0,0,1,1.0728-3.7539,7.5063,7.5063,0,0,1,3.2182-2.8965,19.5352,19.5352,0,0,0,5.042-3.6474,23.9667,23.9667,0,0,0,2.8965-3.6475q1.0708-1.7153,1.9312-2.8965A2.5713,2.5713,0,0,1,178.0548,450.4616Z"/><path class="cls-1" d="M202.0816,483.7174q-.6438,4.5059-1.9311,10.1914-1.2876,5.688-2.8965,11.3711-1.6092,5.688-3.54,10.835a67.6141,67.6141,0,0,1-4.0767,9.0117q-.4271.643-1.2871.1074a5.7322,5.7322,0,0,1-1.6094-1.6094,12.5089,12.5089,0,0,1-1.2871-2.36,2.5008,2.5008,0,0,1,.1074-2.36,49.8479,49.8479,0,0,0,3.8618-8.582q1.9308-5.36,3.54-11.5859a96.2489,96.2489,0,0,0,2.36-12.336,65.9354,65.9354,0,0,0,.5366-10.8349c0-.43.3217-.8926.9653-1.3946a7.552,7.552,0,0,1,2.2529-1.1806,18.3441,18.3441,0,0,1,2.4673-.6436c.7847-.1406,1.2505-.07,1.3946.2149a18.0451,18.0451,0,0,1,0,4.0761c0,.5733.3554.8584,1.0727.8584q2.7861.2169,7.0806.8584a26.6723,26.6723,0,0,1,8.2592,2.6817,21.52,21.52,0,0,1,6.8672,5.5781q2.8946,3.5406,2.8965,9.5479a39.8018,39.8018,0,0,1-2.039,12.4443,40.3569,40.3569,0,0,0-2.0391,12.6582,21.3,21.3,0,0,0,.4336,3.97c.2871,1.501.9414,2.252,1.9551,2.252a5.7485,5.7485,0,0,0,4.2324-2.3594,31.9743,31.9743,0,0,0,3.7988-5.4717,61.1423,61.1423,0,0,0,3.0376-6.2217q1.3038-3.1083,1.9551-4.8271a1.7745,1.7745,0,0,1,1.8437-1.0732q1.4063,0,1.1973,1.9306a49.6852,49.6852,0,0,1-2.8066,14.59,41.5115,41.5115,0,0,1-5.8228,10.9423,24.867,24.867,0,0,1-7.7656,6.8653,18.1915,18.1915,0,0,1-8.8438,2.36,13.3534,13.3534,0,0,1-6.04-1.3945,14.27,14.27,0,0,1-4.7471-3.7549,17.8031,17.8031,0,0,1-3.02-5.3633,18.3147,18.3147,0,0,1-1.0762-6.2226,43.2444,43.2444,0,0,1,.9991-8.6895q.9952-4.8266,2.2192-9.8691,1.2173-5.0376,2.2192-9.8692a43.4543,43.4543,0,0,0,.9991-8.6894,6.21,6.21,0,0,0-1.7666-4.8272,11.7852,11.7852,0,0,0-4.8545-2.4677C202.4469,482.7887,202.0816,483.0036,202.0816,483.7174Z"/><path class="cls-1" d="M268.5919,532.4215a35.6589,35.6589,0,0,1-8.69,8.6885,15.9949,15.9949,0,0,1-8.9043,3.1113,9.8339,9.8339,0,0,1-8.4746-4.3984,24.1839,24.1839,0,0,1-3.97-11.0488,50.9129,50.9129,0,0,1,.3223-14.2686,50.2893,50.2893,0,0,1,4.3984-14.2676,33.503,33.503,0,0,1,8.3672-11.0488,17.9329,17.9329,0,0,1,12.0146-4.3984,16.0754,16.0754,0,0,1,6.8663,1.5019,10.2257,10.2257,0,0,1,4.9345,5.1494l.2149.2139.2138-.2139q.4278-1.9321.9659-4.1845a3.4443,3.4443,0,0,1,3.1113-2.6817,31.7176,31.7176,0,0,0,8.582-1.8232,18.183,18.183,0,0,0,6.4365-4.1846q1.7154-1.7139,3.0039-1.3945,1.2876.3222.6436,3.3261-1.72,7.2965-3.2187,13.6241-1.503,6.3311-2.5743,12.3369-1.0766,6.0087-2.0381,11.9072-.9653,5.9034-1.6093,12.1221c0,.5732.1406.7178.4287.43A41.7271,41.7271,0,0,0,300.56,522.444q4.0737-4.61,7.08-13.8379a1.67,1.67,0,0,1,1.7168-1.0732q1.2876,0,1.2872,1.9306a43.7521,43.7521,0,0,1-1.7159,11.4795,28.4992,28.4992,0,0,1-4.291,8.582,32.4673,32.4673,0,0,1-6.8662,6.7579,78.4047,78.4047,0,0,1-9.2256,5.7929,1.2349,1.2349,0,0,0-.43.8584q-.4321,6.8686-1.5009,14.2676a51.2325,51.2325,0,0,1-3.8623,13.624,26.5955,26.5955,0,0,1-8.0459,10.2988q-5.26,4.0724-14.2676,4.0762a17.96,17.96,0,0,1-11.1573-3.7549q-4.9378-3.7559-4.9345-11.9072a18.4354,18.4354,0,0,1,1.9316-8.3672,27.15,27.15,0,0,1,5.1485-7.081,53.5115,53.5115,0,0,1,7.4023-6.1143q4.1836-2.896,8.69-5.4707a1.2359,1.2359,0,0,0,.43-.8584l1.0723-9.0117C269.0206,532.2067,268.8761,532.1364,268.5919,532.4215Zm-2.1455,21.4551a39.77,39.77,0,0,0-7.9385,6.1143,9.57,9.57,0,0,0-3.0039,6.7587,4.4378,4.4378,0,0,0,1.0723,3.11,3.5957,3.5957,0,0,0,2.789,1.1807,4.4285,4.4285,0,0,0,3.6475-2.0381,14.4583,14.4583,0,0,0,2.2529-4.8281,52.3546,52.3546,0,0,0,1.1807-5.5782,30.6392,30.6392,0,0,0,.4287-4.291C266.8751,553.736,266.7306,553.5914,266.4464,553.8766Zm-3.6475-26.3906q3.0015,0,5.042-3.11a28.6042,28.6042,0,0,0,3.3252-7.2949,50.2176,50.2176,0,0,0,1.8242-8.3672,55.4663,55.4663,0,0,0,.5362-6.5439,4.3845,4.3845,0,0,0-1.0733-3.2188,3.5214,3.5214,0,0,0-2.5742-1.0722,7.1547,7.1547,0,0,0-4.9346,1.9306,16.7644,16.7644,0,0,0-3.6474,4.8272,25.4313,25.4313,0,0,0-2.253,6.3291,30.9627,30.9627,0,0,0-.7509,6.6513,20.546,20.546,0,0,0,1.0722,6.7588Q260.4376,527.4884,262.7989,527.486Z"/><path class="cls-1" d="M363.2091,511.3952a41.5125,41.5125,0,0,1-1.502,6.4365,29.9956,29.9956,0,0,1-2.789,6.3291,17.8431,17.8431,0,0,1-4.291,4.9346,9.3886,9.3886,0,0,1-6.0079,2.038,16.51,16.51,0,0,1-3.4326-.3213c-1.0029-.2148-2.0049-.4628-3.0039-.7509a32.4679,32.4679,0,0,1-9.2256,10.1914,21.2886,21.2886,0,0,1-12.6592,3.9687q-5.5811,0-10.19-5.4707-4.6113-5.4711-4.6133-15.126a52.46,52.46,0,0,1,2.4678-16.6279,40.7426,40.7426,0,0,1,6.3291-12.3369,30.0434,30.0434,0,0,1,8.4746-7.6162,18.0526,18.0526,0,0,1,9.1182-2.6826q9.0117,0,13.0879,6.33a27.3477,27.3477,0,0,1,4.0761,15.1259,41.2742,41.2742,0,0,1-.5361,6.543,48.6,48.6,0,0,1-1.6094,6.7588,3.3089,3.3089,0,0,0,3.0039,1.9307q2.3584,0,4.8282-3.8614a36.4047,36.4047,0,0,0,3.9687-8.582c.1406-.2852.4629-.43.9658-.43a3.6361,3.6361,0,0,1,1.6084.43,4.8459,4.8459,0,0,1,1.502,1.18A1.7319,1.7319,0,0,1,363.2091,511.3952ZM329.5245,527.486q3.6446,0,6.4365-3.8614a6.4642,6.4642,0,0,1-.2148-1.9316,11.44,11.44,0,0,1,1.5019-6.2217,5.7048,5.7048,0,0,1,3.4327-2.789,37.0216,37.0216,0,0,0,1.0732-7.9385,16.8817,16.8817,0,0,0-1.1807-6.7588,4.0677,4.0677,0,0,0-3.9687-2.6816q-4.2949,0-7.4024,5.042a34.7339,34.7339,0,0,0-4.3984,11.05,27.673,27.673,0,0,0-.3213,11.0488Q325.4479,527.489,329.5245,527.486Z"/><path class="cls-1" d="M114.1813,131.9083c10.5144-17.595,20.289-34.3438,40.9879-47.0531,18.4219-11.3112,34.8324-14.9147,48.3748,1.9128,10.8359,13.4643,11.4032,25.5718,17.0591,57.8285,2.3878,13.6178-.1514,15.2689,6.1391,2.4485,32.6894-66.6228,82.0576-82.1168,91.4358-9.7142,3.5008,27.0272-.5125,24.0833,9.4987,19.2331,80.7246-39.1094,111.19,95.2328,2.3507,213.757-4.8889,5.3239-6.2921,9.95-3.5382,16.1139,2.995,6.7038,5.5052,13.7781,9.511,19.8425,12.0241,18.2032,35.6079,9.9432,50.6378-2.6008,14.8735-12.4134,28.6765,5.8258,9.7517,19.3553-37.9726,27.1469-70.0641,20.9988-89.93-28.43-11.8067,8.15-39.6835,35.1084-91.8588,55.36-10.1416,3.9365-15.4818,1.2228-17.7119-4.1982-3.7161-9.0334,4.2915-13.3076,12.5251-16.5635,48.846-19.3158,87.2518-54.02,89.365-57.3431,5.0165-7.8881-1.2423,8.9477.7622-111.247.5856-35.1154,5.8716-167.2112-19.9279-147.4988-90.5774,69.2066-35.1079,260.0384-63.037,264.198-6.6532.991-12.2662-2.7249-12.3793-14.3386-1.2712-130.5043,4.6764-276.596-27.6817-265.3816-37.0693,12.8473-59.5065,76.0552-60.0431,97.0776-2.639,103.38-3.9134,205.7871-4.4456,209.1193-2.0935,13.1078-20.215,11.8826-20.9054-.7293-2.6434-48.2913,13.1891-245.138-4.8854-288.2722-3.3595-8.0171-8.0734-9.8089-15.8635-5.851-25.7089,13.0617-28.0806,39.7549-41.549,34.101C2.0564,131.7973,90.3984,35.9985,110.4031,120.3878,113.4239,133.1311,111.7934,131.26,114.1813,131.9083ZM320.9494,346.9632c6.8472-1.1833,77.8344-96.4262,52.5519-162.2529-3.959-10.3081-16.4183-18.1-28.7191-13.4069-7.0489,2.6893-13.5682,6.7807-20.2859,10.3172-4.6193,2.4318-3.0944,5.2046-3.29,26.9254C319.8274,361.9822,319.7479,332.857,320.9494,346.9632Z"/><polygon class="cls-1" points="387.323 83.246 420.203 92.099 387.323 100.952 378.47 133.832 369.618 100.952 336.738 92.099 369.618 83.246 378.47 50.367 387.323 83.246"/><polygon class="cls-1" points="50.585 225.713 83.465 234.565 50.585 243.418 41.732 276.298 32.88 243.418 0 234.565 32.88 225.713 41.732 192.833 50.585 225.713"/><polygon class="cls-1" points="422.907 325.4 448.984 332.421 422.907 339.442 415.886 365.519 408.865 339.442 382.788 332.421 408.865 325.4 415.886 299.323 422.907 325.4"/><polygon class="cls-1" points="199.854 26.077 225.931 33.098 199.854 40.119 192.833 66.196 185.812 40.119 159.735 33.098 185.812 26.077 192.833 0 199.854 26.077"/><polygon class="cls-1" points="166.756 308.131 192.833 315.152 166.756 322.173 159.735 348.25 152.713 322.173 126.637 315.152 152.713 308.131 159.735 282.054 166.756 308.131"/><path class="cls-1" d="M277.0173,263.3464c0,14.2694-21.5857,14.29-21.5857,0C255.4316,249.0769,277.0173,249.0567,277.0173,263.3464Z"/><path class="cls-1" d="M346.0918,44.6106c0,14.2694-21.5858,14.29-21.5858,0C324.506,30.3412,346.0918,30.321,346.0918,44.6106Z"/><path class="cls-1" d="M443.9473,155.4175c0,14.2694-21.5858,14.29-21.5858,0C422.3615,141.1481,443.9473,141.1279,443.9473,155.4175Z"/><path class="cls-1" d="M471.2893,259.0292c0,14.2694-21.5858,14.29-21.5858,0C449.7035,244.76,471.2893,244.74,471.2893,259.0292Z"/><path class="cls-1" d="M164.7714,430.2763c0,14.2694-21.5858,14.29-21.5858,0C143.1856,416.0069,164.7714,415.9867,164.7714,430.2763Z"/><path class="cls-1" d="M287.0907,451.8621c0,14.2694-21.5858,14.29-21.5858,0C265.5049,437.5927,287.0907,437.5724,287.0907,451.8621Z"/><path class="cls-1" d="M66.9159,332.4208c0,14.2694-21.5858,14.29-21.5858,0C45.33,318.1514,66.9159,318.1312,66.9159,332.4208Z"/><path class="cls-1" d="M170.5276,192.8329c0,14.2694-21.5858,14.29-21.5858,0C148.9418,178.5634,170.5276,178.5432,170.5276,192.8329Z"/><path class="cls-1" d="M266.944,66.1964c0,14.2694-21.5858,14.29-21.5858,0C245.3582,51.9269,266.944,51.9067,266.944,66.1964Z"/><path class="cls-1" d="M127.356,56.123c0,14.2694-21.5857,14.29-21.5857,0C105.77,41.8536,127.356,41.8334,127.356,56.123Z"/></g></g></svg>